<?xml version="1.0" standalone="no"?>
<!DOCTYPE svg PUBLIC "-//W3C//DTD SVG 20010904//EN"
 "http://www.w3.org/TR/2001/REC-SVG-20010904/DTD/svg10.dtd">
<svg version="1.0" xmlns="http://www.w3.org/2000/svg"
 width="5rem" height="5rem" viewBox="0 0 1024.000000 1024.000000"
 preserveAspectRatio="xMidYMid meet">

<g transform="translate(0.000000,1024.000000) scale(0.100000,-0.100000)"
fill="#000000" stroke="none">
<path d="M0 5120 l0 -5120 5120 0 5120 0 0 5120 0 5120 -5120 0 -5120 0 0
-5120z m5155 4375 c37 -44 81 -109 99 -145 26 -56 31 -76 30 -145 0 -63 -5
-89 -22 -123 -26 -49 -75 -84 -112 -80 -24 3 -25 7 -36 106 -7 57 -14 106 -18
109 -15 16 -21 -16 -20 -113 l1 -104 -43 0 c-36 0 -51 6 -83 36 -87 77 -94
199 -23 345 44 90 128 202 148 197 7 -2 43 -39 79 -83z m2340 22 c774 -4 764
-3 965 -104 317 -159 515 -399 566 -683 14 -80 18 -197 8 -225 -10 -25 -51
-37 -77 -22 -12 6 -23 12 -24 12 -1 0 -9 33 -17 74 -18 87 -81 281 -106 331
-36 69 -90 134 -179 215 -97 89 -235 168 -385 223 l-71 26 -955 7 c-525 3
-972 10 -993 14 -28 6 -41 15 -48 32 -12 32 -13 28 22 64 30 31 35 32 138 38
58 3 194 5 301 4 107 -2 492 -4 855 -6z m-3517 -15 c25 -14 28 -36 10 -74 -24
-51 -33 -51 -1073 -58 -723 -5 -970 -9 -1000 -19 -164 -51 -342 -155 -443
-260 -103 -106 -187 -276 -248 -502 -14 -55 -16 -57 -56 -63 -22 -4 -43 -4
-47 0 -9 9 -4 172 7 234 32 169 134 353 264 476 140 132 389 253 566 274 37 4
501 7 1032 6 766 -1 970 -4 988 -14z m1803 -292 c34 -201 14 -302 -74 -374
-33 -26 -47 -31 -90 -30 l-52 0 4 -55 c3 -52 -14 -249 -26 -301 -4 -20 12 -8
78 56 103 99 229 193 271 201 l31 6 -23 -41 c-13 -23 -89 -102 -169 -176 -309
-284 -413 -403 -489 -551 -28 -56 -79 -217 -92 -295 -18 -96 -3 -697 16 -678
24 24 132 199 149 241 10 23 50 128 90 232 39 105 76 190 81 190 18 0 15 -98
-6 -207 -12 -61 -19 -113 -16 -116 9 -9 174 169 222 240 25 37 78 137 119 223
41 86 82 158 91 162 8 3 22 -1 31 -10 13 -13 13 -20 -1 -69 -8 -29 -34 -93
-56 -142 -23 -49 -39 -90 -37 -92 2 -3 33 19 69 48 36 29 85 67 109 84 24 17
89 64 144 104 178 130 317 212 333 195 3 -3 -2 -22 -13 -41 -25 -47 -103 -113
-309 -263 -156 -114 -245 -182 -250 -190 -4 -5 -41 -34 -84 -64 -72 -50 -262
-239 -262 -260 0 -14 59 2 125 34 78 37 221 89 246 89 10 0 19 -4 19 -9 0 -14
-53 -56 -89 -70 -17 -8 -31 -16 -31 -20 0 -3 32 -16 72 -29 92 -29 162 -73
182 -116 9 -19 16 -39 16 -44 0 -6 -30 5 -67 23 -112 54 -169 68 -268 68 -121
1 -156 -19 -120 -67 13 -17 18 -18 59 -6 60 17 101 5 154 -44 61 -56 82 -104
82 -191 0 -66 -16 -204 -24 -213 -2 -2 -21 5 -43 16 -21 11 -63 27 -93 37
-115 38 -182 99 -201 185 -15 65 12 140 50 140 11 0 48 -31 85 -72 36 -39 68
-69 72 -65 26 26 -76 157 -150 192 -69 33 -96 32 -168 -7 -123 -66 -198 -196
-245 -430 -29 -143 -20 -566 18 -793 11 -71 53 -204 81 -258 25 -50 90 -120
135 -147 l36 -21 -7 144 c-8 156 -1 183 35 136 28 -36 47 -109 54 -207 9 -126
9 -127 60 -151 25 -11 49 -21 55 -21 6 0 10 34 10 84 0 166 44 341 106 427 40
55 73 79 109 79 33 0 32 -15 -6 -70 -42 -63 -68 -115 -84 -167 -24 -79 -38
-214 -31 -285 l8 -68 48 0 48 0 7 78 c3 42 7 88 8 102 2 19 8 25 27 25 35 0
50 -37 50 -127 l0 -78 44 0 45 0 5 53 c3 28 8 82 11 119 8 79 22 104 54 93 22
-7 23 -9 16 -108 -8 -129 1 -162 41 -162 29 0 29 0 39 85 11 90 18 110 39 110
15 0 26 -51 26 -117 0 -56 8 -73 35 -73 20 0 23 6 29 79 8 95 27 165 71 252
62 121 115 166 186 154 l39 -7 -48 -43 c-84 -76 -137 -199 -148 -346 l-7 -89
51 0 c48 0 52 2 57 28 13 67 48 180 64 207 17 31 61 47 61 23 -1 -7 -7 -42
-15 -78 -8 -36 -14 -91 -15 -122 l0 -58 59 0 59 0 7 93 c8 114 21 159 43 155
23 -5 42 -68 49 -165 l6 -83 61 0 62 0 11 75 c6 41 23 100 38 130 22 45 31 55
52 55 22 0 25 -3 19 -27 -3 -16 -9 -74 -12 -130 l-7 -103 39 0 40 0 22 73 c22
74 71 147 99 147 17 0 16 -5 -11 -100 -9 -30 -16 -70 -16 -88 0 -33 1 -33 41
-30 39 3 41 5 59 57 18 55 34 73 60 68 11 -2 16 -19 18 -65 l3 -62 44 0 45 0
0 54 c0 60 25 104 53 93 12 -5 17 -23 19 -74 l3 -68 41 -3 41 -3 7 67 c11 103
47 174 89 174 16 0 18 -5 13 -27 -3 -16 -9 -70 -12 -121 l-7 -93 49 3 49 3 12
47 c15 63 19 68 55 68 l31 0 -7 -55 c-6 -54 -6 -55 19 -55 24 0 25 3 25 61 0
67 10 93 42 110 21 11 21 11 14 -78 l-7 -90 38 -6 c44 -7 59 3 69 46 11 54 59
150 96 191 30 35 36 38 56 27 28 -15 28 -23 -3 -69 -30 -45 -65 -141 -65 -177
0 -25 2 -26 48 -23 45 3 48 5 70 51 20 42 26 48 50 45 20 -2 26 -8 25 -23 -1
-11 -3 -33 -5 -50 l-3 -30 256 -1 c141 -1 268 -4 282 -8 l26 -6 -2 -1903 -2
-1902 -28 -89 c-76 -243 -197 -406 -403 -542 -134 -88 -246 -143 -369 -181
l-90 -27 -990 -2 c-544 -1 -1032 2 -1083 6 -73 6 -98 12 -113 26 -26 26 -41
81 -26 91 7 5 500 10 1097 13 l1085 5 70 24 c231 77 461 240 563 399 81 126
136 289 152 452 9 88 21 3433 12 3473 -3 15 -19 17 -159 17 l-156 0 7 -182 c4
-101 7 -801 7 -1557 -1 -1301 -2 -1374 -18 -1387 -25 -19 -57 -17 -77 5 -15
17 -17 128 -19 1532 -2 953 -7 1527 -13 1549 l-10 35 -1414 5 c-778 3 -1416 5
-1417 4 -6 -2 110 -130 125 -138 11 -6 459 -10 1183 -11 l1166 0 41 -28 c58
-41 155 -145 183 -197 24 -44 24 -49 24 -327 0 -156 4 -283 8 -283 21 0 57
-51 57 -80 0 -37 -23 -85 -45 -94 -41 -15 -95 -6 -127 22 -37 34 -41 75 -11
118 18 28 19 42 15 309 l-4 280 -81 82 -81 83 -203 0 -204 0 12 -22 c6 -12 90
-102 185 -199 95 -98 181 -193 190 -211 15 -28 18 -66 19 -263 0 -155 4 -237
12 -251 7 -11 65 -72 130 -134 l118 -114 5 -585 5 -586 29 -43 c24 -35 28 -48
20 -69 -23 -65 -123 -93 -184 -51 -30 20 -35 30 -38 67 -3 37 1 46 31 75 l34
32 -6 548 -6 548 -31 26 c-17 15 -68 57 -112 94 -112 93 -114 101 -117 418
l-2 245 -125 125 c-69 69 -170 175 -225 235 l-100 110 -273 -1 c-245 -2 -274
-3 -282 -19 -9 -15 -12 -15 -29 4 -18 19 -31 21 -141 21 l-120 0 110 -117 c60
-65 119 -126 130 -136 18 -17 41 -18 261 -17 196 0 247 -2 278 -15 53 -22 377
-350 391 -396 6 -19 13 -89 15 -157 5 -115 4 -124 -16 -142 -30 -29 -73 -26
-93 6 -15 21 -16 43 -11 149 l7 124 -167 160 -167 161 -255 0 c-178 1 -264 5
-282 13 -15 7 -63 55 -107 107 -45 52 -119 132 -165 178 l-85 83 -106 -3 c-58
-2 -106 -5 -106 -6 0 -2 91 -98 202 -213 110 -115 216 -231 235 -259 26 -39
40 -50 61 -51 15 0 107 -2 206 -2 l178 -2 65 -70 c36 -38 138 -148 227 -244
174 -189 223 -239 365 -376 52 -49 126 -128 165 -174 l71 -84 0 -871 c0 -807
2 -873 18 -903 9 -18 17 -53 17 -78 0 -38 -5 -52 -29 -75 l-28 -29 48 -11 c61
-15 95 -53 105 -116 14 -95 -19 -177 -84 -208 -73 -35 -167 -5 -203 65 -19 37
-21 53 -15 116 l6 73 -33 16 c-17 9 -38 21 -45 27 -19 15 16 36 63 37 22 0 57
3 77 6 35 6 37 9 31 33 -11 46 -42 100 -68 117 -35 23 -34 62 3 76 l27 11 4
836 3 837 -202 202 c-112 111 -214 216 -226 234 -13 18 -61 70 -107 117 -45
47 -131 139 -191 203 l-108 117 -200 3 -201 3 -76 85 c-42 47 -137 148 -211
225 -74 77 -175 182 -224 233 l-89 93 -114 4 c-90 4 -113 2 -113 -8 0 -8 46
-54 103 -103 56 -48 239 -224 407 -391 168 -166 318 -306 333 -312 16 -6 92
-11 170 -11 l141 0 56 -62 c117 -131 359 -379 450 -460 127 -115 249 -250 261
-290 6 -20 9 -217 8 -494 -2 -426 -1 -464 15 -489 39 -60 26 -135 -29 -171
-53 -35 -147 18 -161 90 -6 37 13 85 44 108 16 12 18 46 21 471 l3 458 -224
222 c-123 122 -286 286 -360 365 l-136 143 -96 -7 c-53 -4 -96 -7 -96 -8 0 -1
154 -156 341 -346 188 -190 358 -369 378 -399 l36 -54 3 -846 c2 -465 0 -865
-3 -888 -4 -28 -11 -43 -21 -43 -8 0 -14 -4 -14 -10 0 -5 7 -10 16 -10 38 0
84 -33 104 -74 69 -144 -59 -320 -190 -261 -103 47 -141 163 -87 266 20 38 32
47 83 66 32 12 49 22 38 22 -15 1 -24 9 -28 26 -4 14 -6 408 -6 877 l1 851
-33 36 c-18 20 -179 185 -358 366 -179 182 -360 373 -402 425 -42 52 -163 181
-270 286 -185 182 -305 296 -687 649 -95 88 -176 165 -179 171 -4 6 -33 34
-65 62 -80 72 -145 72 -118 -1 19 -49 156 -194 691 -727 295 -294 584 -585
641 -645 57 -61 220 -231 362 -378 153 -159 263 -281 270 -300 9 -24 11 -193
7 -677 l-5 -645 -32 -3 c-28 -3 -36 2 -53 30 -21 33 -21 37 -16 650 l5 618
-92 87 c-202 192 -266 257 -472 473 -280 295 -330 346 -790 801 -490 484 -584
573 -634 598 -22 12 -43 21 -47 21 -18 0 13 -72 64 -148 59 -89 341 -378 687
-707 119 -113 174 -172 187 -202 16 -37 19 -67 18 -237 -1 -112 3 -202 8 -213
15 -27 243 -247 337 -325 44 -36 100 -90 125 -119 25 -30 94 -105 154 -167
l109 -114 -7 -596 -7 -596 26 -20 c18 -15 28 -34 32 -63 5 -39 2 -46 -30 -78
-28 -28 -43 -35 -74 -35 -53 0 -85 19 -106 62 -23 48 -9 113 28 130 l25 11 2
571 3 571 -35 30 c-103 88 -636 618 -668 664 l-37 53 -2 211 -3 210 -349 349
c-381 381 -361 366 -361 252 0 -56 7 -69 65 -114 21 -17 71 -69 111 -116 85
-102 84 -96 84 -374 l0 -197 289 -289 c158 -159 297 -305 307 -324 18 -33 19
-63 21 -433 l1 -397 27 -32 c22 -26 26 -39 21 -67 -7 -48 -35 -72 -88 -78 -40
-5 -49 -2 -81 27 -46 40 -49 79 -11 117 l27 26 -2 389 -2 388 -299 301 c-234
236 -302 309 -310 338 -5 20 -10 135 -10 257 l0 221 -67 64 c-59 57 -67 62
-74 44 -4 -11 -8 -169 -8 -351 -1 -250 2 -334 12 -346 6 -9 55 -51 108 -95
186 -153 451 -406 504 -483 l28 -41 4 -537 c3 -295 6 -542 8 -549 2 -6 17 -14
34 -18 38 -8 87 -63 100 -113 11 -39 5 -78 -19 -121 -16 -31 -86 -61 -142 -61
-39 0 -54 6 -84 32 -82 72 -86 189 -9 250 18 14 23 26 20 41 -7 29 -13 337
-14 723 l-1 311 -77 84 c-43 46 -105 109 -138 139 -33 30 -87 82 -121 115 -50
50 -152 137 -292 252 l-27 21 0 439 c0 354 -3 445 -14 475 -12 30 -12 51 -3
120 18 124 16 133 -24 178 -59 66 -66 57 -58 -67 3 -60 11 -114 17 -121 8 -10
7 -16 -4 -22 -12 -8 -14 -103 -17 -627 l-3 -618 164 -171 c90 -94 185 -197
213 -229 l49 -58 3 -621 c2 -407 0 -630 -7 -648 -13 -34 -119 -104 -171 -113
-28 -5 -51 -1 -84 14 -52 22 -71 57 -61 106 3 17 8 127 11 247 l4 216 -55 48
c-31 26 -57 45 -59 43 -2 -2 -7 -220 -10 -483 -4 -355 -8 -481 -17 -487 -8 -4
7 -17 40 -34 62 -31 90 -81 91 -158 0 -148 -151 -225 -265 -135 -97 76 -80
251 31 299 42 19 42 20 28 47 -11 22 -14 109 -14 495 0 257 -3 467 -7 467 -5
0 -30 -25 -58 -56 l-50 -57 -5 -211 c-5 -206 -4 -212 18 -245 28 -42 28 -60
-1 -102 -26 -39 -89 -66 -129 -56 -44 11 -88 63 -88 103 0 49 14 71 60 94 l40
20 0 206 c0 242 -1 239 101 344 l70 71 -85 90 c-97 103 -101 115 -91 256 7 89
10 97 45 141 46 58 155 162 169 162 7 0 11 38 11 110 0 61 -4 110 -9 110 -5 0
-11 -4 -13 -10 -1 -5 -72 -78 -155 -163 l-153 -154 0 -369 c0 -529 -8 -827
-23 -836 -7 -4 -29 -8 -49 -8 l-38 0 0 610 c0 505 2 617 14 645 8 18 65 87
128 152 62 65 131 141 152 168 22 28 62 71 90 97 l51 46 3 607 c2 334 0 611
-5 616 -5 5 -30 -12 -57 -40 l-48 -48 -1 -438 -2 -437 -32 -26 c-17 -15 -56
-44 -86 -65 -66 -47 -379 -363 -465 -469 l-62 -78 -1 -302 c0 -167 -4 -402 -8
-523 l-6 -220 32 -32 c88 -89 47 -230 -76 -263 -63 -17 -110 -4 -158 45 -40
40 -43 46 -43 97 0 82 45 137 131 162 14 4 17 60 21 533 6 601 1 563 95 672
97 111 390 398 474 463 l79 61 0 336 c0 316 -3 382 -19 381 -3 -1 -31 -33 -61
-72 l-55 -71 -5 -237 -5 -237 -29 -39 c-17 -21 -150 -160 -297 -309 -146 -148
-271 -280 -278 -292 -8 -15 -11 -140 -11 -406 0 -371 1 -384 20 -402 26 -24
27 -94 2 -125 -40 -49 -150 -33 -172 26 -11 27 3 79 27 106 15 17 17 49 14
361 -2 352 4 448 37 516 9 20 143 162 298 316 l282 280 4 240 c3 205 7 245 22
273 24 47 154 176 194 193 l32 14 0 81 c0 44 -3 83 -6 86 -3 3 -35 -26 -71
-66 -37 -39 -194 -198 -350 -354 l-283 -282 0 -190 c0 -149 -3 -199 -15 -227
-10 -24 -96 -117 -238 -258 -122 -122 -279 -280 -349 -353 l-128 -132 0 -281
0 -282 26 -54 c22 -45 26 -63 21 -108 -3 -30 -17 -81 -32 -113 -25 -53 -26
-65 -23 -181 l3 -124 34 -34 c30 -30 33 -38 28 -71 -14 -84 -112 -121 -176
-66 -27 22 -31 32 -31 74 0 41 4 52 29 73 27 23 29 27 20 65 -5 24 -5 74 0
119 9 82 5 99 -29 148 -50 73 -49 173 2 231 l30 34 -3 304 -3 303 26 34 c14
19 176 186 361 372 l336 338 3 208 3 208 28 43 c16 23 197 209 402 413 391
387 419 421 434 517 14 85 -5 73 -224 -139 -82 -80 -242 -234 -355 -342 -263
-251 -571 -557 -640 -634 -56 -63 -97 -105 -431 -455 -113 -118 -227 -239
-253 -268 l-49 -52 -1 -657 -1 -658 -27 -13 c-23 -11 -32 -11 -54 1 l-27 14 2
668 c2 540 5 673 16 694 14 26 133 157 324 356 58 61 162 171 230 245 163 177
375 392 904 918 239 238 451 456 470 485 44 64 50 91 21 95 -28 4 -93 -44
-233 -173 -66 -60 -163 -148 -217 -195 -194 -169 -292 -260 -459 -427 -203
-202 -536 -548 -595 -618 -50 -59 -328 -352 -483 -510 l-108 -110 3 -800 c2
-440 -1 -810 -5 -822 -7 -18 -3 -23 27 -33 151 -50 171 -258 30 -325 -46 -22
-124 -16 -162 12 -100 74 -102 246 -4 308 21 13 29 25 25 35 -22 50 -31 1629
-10 1667 7 12 89 102 183 200 93 98 203 214 244 258 41 44 125 130 188 192
l114 112 -104 3 -103 3 -125 -130 c-69 -71 -188 -195 -265 -275 -77 -80 -175
-183 -218 -229 l-78 -84 3 -396 c1 -218 1 -564 0 -770 l-3 -374 25 -24 c14
-13 27 -32 27 -41 5 -66 -28 -103 -98 -109 -45 -5 -53 -2 -86 27 -54 47 -50
92 11 132 l23 16 -3 528 c-5 1036 -5 1047 21 1080 41 52 316 345 513 546 l193
197 65 5 c36 3 112 8 170 12 l105 6 340 339 c222 222 372 364 434 409 52 38
97 72 100 76 3 4 -61 4 -143 1 -123 -5 -151 -9 -168 -24 -27 -24 -203 -222
-312 -353 -49 -58 -122 -141 -164 -185 l-75 -80 -204 -3 -204 -4 -111 -122
c-62 -66 -240 -251 -395 -411 -156 -159 -289 -299 -296 -310 -10 -16 -11 -207
-7 -970 3 -522 4 -960 2 -973 -4 -17 -11 -22 -37 -22 -52 0 -62 17 -68 127 -4
54 -8 494 -9 978 l-3 881 34 44 c19 25 143 155 275 290 133 135 298 308 368
385 70 77 148 158 175 180 l48 40 193 5 194 5 21 26 c12 15 94 107 182 205 88
99 182 205 209 237 l48 57 -96 0 -96 0 -41 -37 c-22 -20 -88 -93 -146 -161
-58 -68 -124 -137 -146 -153 l-40 -29 -247 0 -247 0 -162 -152 c-93 -87 -164
-161 -168 -176 -6 -23 2 -150 13 -224 5 -28 1 -41 -15 -57 -50 -50 -141 -7
-127 61 4 18 11 87 15 153 5 66 9 122 10 124 3 12 323 328 355 352 l39 29 243
0 244 0 57 58 c75 74 162 171 174 194 9 17 -10 18 -393 17 l-403 -1 -230 -230
-229 -231 -1 -271 c0 -321 1 -316 -95 -363 -37 -19 -83 -52 -108 -79 l-42 -46
-1 -481 c-1 -265 -4 -516 -8 -557 l-6 -75 42 -38 c47 -42 55 -76 27 -115 -37
-53 -130 -69 -178 -31 -21 17 -26 29 -26 66 0 29 7 53 19 69 19 24 20 42 14
612 l-5 588 45 54 c24 30 81 89 125 131 l80 75 7 73 c4 40 4 148 0 239 l-7
167 45 61 c24 33 71 83 103 110 59 49 227 220 252 256 13 18 9 19 -194 15
l-208 -4 -63 -69 c-35 -38 -66 -78 -68 -89 -7 -29 -11 -555 -5 -555 12 0 40
-60 40 -85 0 -41 -18 -65 -65 -86 -40 -18 -48 -18 -77 -6 -51 22 -82 61 -74
93 7 25 49 76 71 85 7 3 7 107 2 302 l-9 298 25 38 c29 43 138 155 176 180 23
14 100 16 766 17 407 1 936 2 1175 3 l435 1 63 67 c34 36 60 68 58 70 -6 7
-2808 4 -2815 -3 -3 -3 -7 -728 -9 -1612 -2 -1022 -6 -1610 -13 -1618 -7 -8
-1 -13 20 -17 72 -15 128 -131 101 -213 -14 -43 -62 -99 -101 -120 -36 -18
-112 -18 -147 0 -66 34 -106 107 -100 182 7 81 51 134 131 158 15 5 16 9 7 26
-8 15 -11 472 -11 1626 l0 1606 -152 -7 c-84 -4 -154 -9 -155 -10 -4 -4 -2
-1532 3 -2780 2 -499 7 -760 15 -803 68 -374 339 -653 731 -753 81 -21 108
-22 779 -25 382 -2 719 -6 747 -9 45 -5 54 -10 59 -30 7 -29 -21 -74 -50 -80
-60 -12 -511 -22 -991 -21 l-540 1 -88 28 c-110 34 -256 102 -335 155 -137 94
-285 259 -355 397 -39 78 -83 212 -97 295 -10 58 -13 494 -14 1930 l-1 1855
273 3 272 2 -15 38 c-9 20 -30 52 -47 69 -18 18 -29 35 -26 38 7 8 105 -60
153 -106 37 -35 46 -39 93 -39 l53 0 -7 48 c-4 26 -20 78 -37 115 -38 86 -27
105 30 53 43 -38 87 -119 98 -178 7 -38 7 -38 58 -38 l50 0 -7 100 c-6 80 -4
99 6 95 24 -10 57 -70 71 -130 l13 -60 51 -3 51 -3 6 43 c6 38 -4 120 -20 171
-10 33 38 16 63 -22 28 -42 43 -93 43 -148 l0 -43 44 0 45 0 6 48 c10 80 18
97 45 94 33 -3 34 -5 38 -77 l4 -65 44 0 44 0 0 75 c0 46 4 75 10 75 31 0 80
-85 80 -137 0 -9 17 -13 51 -13 l51 0 -7 57 c-4 32 -16 85 -26 118 -10 33 -19
61 -19 62 -1 14 40 -22 85 -74 51 -60 55 -68 55 -114 l0 -50 63 3 c62 3 62 3
65 35 4 38 -39 169 -73 224 -14 22 -41 57 -60 77 -22 25 -31 42 -25 51 15 25
61 2 125 -62 51 -51 67 -76 92 -142 17 -44 34 -101 38 -126 7 -46 7 -47 52
-53 95 -13 93 -14 93 58 0 72 -28 176 -68 249 -48 90 21 90 78 0 41 -64 68
-140 83 -232 l13 -76 45 0 44 0 -3 138 c-2 129 -1 137 17 137 38 0 61 -64 70
-190 l6 -85 55 0 55 0 -3 75 c-1 41 -11 112 -22 158 -24 101 -24 92 0 92 26 0
85 -89 100 -150 6 -25 14 -74 18 -110 7 -65 7 -65 37 -62 16 2 31 5 33 7 2 1
5 29 8 61 5 62 33 164 45 164 12 0 20 -33 32 -137 11 -102 11 -103 38 -103
l26 0 7 127 c4 74 12 130 18 134 33 21 51 -30 64 -183 l6 -78 44 0 44 0 0 104
c0 82 3 106 16 117 35 29 71 -36 73 -131 2 -81 8 -90 56 -90 53 0 55 5 55 124
0 149 -51 293 -150 424 l-40 52 36 0 c29 0 45 -9 88 -50 99 -93 149 -227 162
-429 4 -71 11 -111 18 -111 6 0 29 9 52 19 50 23 54 38 54 228 0 141 9 187 37
181 27 -5 42 -78 45 -214 2 -74 7 -124 13 -124 21 0 73 40 107 81 105 129 157
336 178 698 19 336 -36 632 -144 780 -80 109 -223 159 -275 97 -7 -9 -20 -16
-28 -16 -37 0 -159 -158 -138 -179 4 -3 32 22 63 56 68 74 102 87 127 49 41
-62 -6 -200 -85 -252 -41 -27 -222 -105 -229 -99 -2 2 -10 62 -17 132 -12 112
-12 135 1 180 19 66 74 126 131 143 36 11 47 10 88 -8 l47 -21 10 26 c21 55
17 66 -26 76 -92 20 -164 4 -392 -90 -29 -12 -10 26 35 69 29 29 77 61 125 83
42 20 77 38 77 40 0 3 -18 14 -39 25 -62 31 -57 40 11 19 35 -10 108 -30 163
-44 55 -15 115 -33 134 -41 18 -8 36 -13 38 -10 2 2 -55 64 -129 137 -132 131
-299 271 -433 364 -194 134 -410 332 -375 343 17 6 128 -52 190 -100 30 -23
125 -91 210 -151 85 -61 173 -125 195 -144 36 -31 40 -33 43 -15 2 11 -8 42
-21 69 -32 62 -77 189 -77 214 0 12 7 19 19 19 24 0 69 -69 116 -180 66 -154
122 -244 221 -357 53 -59 107 -119 121 -133 l25 -25 -5 65 c-3 36 -13 103 -22
150 -16 84 -13 170 6 170 5 0 9 -7 9 -16 0 -9 23 -84 51 -167 27 -82 57 -179
65 -215 8 -36 22 -79 31 -96 27 -55 138 -226 145 -226 5 0 8 141 7 313 0 258
-4 332 -20 427 -29 180 -96 349 -183 467 -43 59 -300 309 -393 383 -66 52
-133 136 -133 166 0 13 4 24 9 24 14 0 170 -117 226 -169 28 -26 75 -66 107
-89 l56 -41 -23 42 c-43 77 -53 194 -28 335 5 32 5 32 -21 21 -20 -10 -35 -9
-68 1 -65 19 -94 44 -127 112 -25 48 -31 74 -31 122 0 62 32 281 42 292 11 10
202 -93 248 -134 67 -58 102 -129 102 -202 0 -73 -29 -138 -72 -163 -30 -18
-30 -18 -40 5 -5 13 -18 55 -30 94 -23 80 -50 117 -50 68 0 -16 14 -67 31
-114 22 -62 33 -115 40 -195 5 -60 18 -151 29 -200 20 -89 21 -91 95 -170 86
-92 172 -216 218 -313 l32 -67 6 460 c4 263 12 483 18 513 12 58 27 92 41 92
15 0 20 -76 24 -395 6 -421 15 -593 33 -599 8 -3 18 7 27 29 19 45 78 130 166
240 40 50 82 108 95 130 31 53 60 152 75 250 6 44 20 100 29 125 15 39 53 174
68 248 3 12 1 22 -4 22 -14 0 -61 -101 -75 -159 -10 -46 -14 -51 -38 -51 -48
0 -100 79 -100 153 0 62 50 157 109 208 52 45 242 149 253 140 4 -4 17 -63 29
-131z m1094 100 c3 -5 -3 -18 -15 -30 -14 -14 -20 -16 -20 -6 0 36 21 58 35
36z m1023 -163 c3 -54 1 -58 -23 -67 -15 -6 -34 -10 -42 -10 -14 0 -13 4 5 23
15 16 22 36 22 63 0 23 3 44 7 48 17 16 28 -5 31 -57z m-5489 27 c27 -34 27
-80 2 -94 -28 -15 -33 -13 -21 9 17 32 12 58 -15 79 -30 24 -31 32 -6 32 11 0
29 -12 40 -26z m130 -25 c16 -46 14 -55 -19 -93 l-31 -34 26 -38 c14 -20 25
-45 25 -55 0 -24 -37 -86 -55 -93 -20 -7 -19 0 6 34 22 29 22 30 5 100 -18 71
-18 72 3 94 25 26 27 64 6 92 -8 10 -15 25 -15 32 0 24 37 -6 49 -39z m5461
19 c11 -18 20 -41 20 -51 0 -22 -66 -95 -76 -84 -4 4 5 20 19 35 34 35 34 62
2 92 -13 12 -22 27 -19 31 11 18 35 8 54 -23z m-5985 11 c4 -6 -2 -13 -13 -16
-17 -4 -22 -15 -24 -51 -2 -35 -7 -48 -20 -50 -26 -5 -24 51 3 94 21 34 42 43
54 23z m273 -2 c25 -29 24 -64 -2 -93 -19 -22 -25 -25 -26 -12 0 9 5 20 10 23
15 9 12 48 -6 73 -13 19 -13 22 -1 22 8 0 19 -6 25 -13z m1152 -77 c0 -27 -8
-48 -24 -67 -30 -35 -46 -24 -17 13 25 31 26 58 6 98 -23 43 -17 54 10 23 18
-20 25 -40 25 -67z m4050 76 c0 -8 -4 -17 -9 -20 -5 -3 -12 -18 -15 -32 -5
-19 -2 -30 11 -40 16 -12 16 -13 1 -14 -9 0 -24 -3 -34 -7 -15 -6 -16 -1 -11
36 5 43 30 91 47 91 6 0 10 -6 10 -14z m-5848 -113 c20 -22 20 -23 3 -23 -53
0 -84 82 -47 123 16 19 17 18 20 -29 2 -33 10 -56 24 -71z m1888 85 c25 -41
25 -76 0 -108 -25 -32 -35 -21 -14 16 17 29 14 44 -24 117 -2 4 1 7 7 7 6 0
20 -15 31 -32z m3518 1 c-33 -19 -15 -69 24 -69 10 0 18 -4 18 -10 0 -18 -46
-11 -74 11 -33 26 -33 43 0 76 20 20 28 23 37 14 9 -9 8 -15 -5 -22z m-5157
11 c22 -12 27 -68 7 -88 -17 -17 -63 -15 -77 2 -20 24 -9 69 19 83 30 15 27
15 51 3z m199 -9 c0 -36 -13 -81 -21 -75 -10 6 -12 55 -3 78 8 22 24 20 24 -3z
m47 3 c2 -5 -3 -19 -12 -29 -14 -19 -14 -18 -15 13 0 31 18 42 27 16z m58 -14
c15 -29 12 -56 -5 -45 -4 3 -10 -2 -14 -10 -6 -17 -36 -21 -36 -5 0 6 7 13 16
17 8 3 13 12 9 21 -5 14 2 52 10 52 3 0 12 -14 20 -30z m4995 14 c0 -2 -10
-13 -22 -24 -20 -18 -21 -23 -10 -41 18 -29 8 -35 -23 -15 -32 21 -32 49 1 75
21 16 54 20 54 5z m197 -38 c1 -43 0 -47 -20 -44 -18 3 -22 9 -19 38 3 48 10
62 25 58 7 -3 13 -24 14 -52z m398 9 c0 -32 -4 -41 -20 -43 -14 -2 -26 7 -39
32 -22 42 -14 58 27 54 30 -3 32 -5 32 -43z m-6021 27 c2 -4 2 -27 -1 -50 -6
-45 -22 -53 -55 -28 -23 17 -23 44 -1 68 17 18 48 24 57 10z m5131 -11 c-3
-10 1 -37 9 -60 13 -40 13 -41 -8 -41 -11 0 -31 -3 -43 -6 -22 -6 -23 -4 -23
60 l0 66 36 0 c30 0 34 -3 29 -19z m394 -7 c17 -14 31 -30 31 -35 0 -14 -75
-30 -109 -23 -17 4 -30 9 -29 13 2 3 10 18 17 33 12 24 24 32 53 37 3 0 20
-11 37 -25z m311 11 c12 -15 6 -35 -11 -35 -6 0 -7 5 -4 10 3 6 -1 10 -10 10
-10 0 -15 -7 -13 -17 2 -13 13 -18 38 -18 32 0 35 3 38 33 2 24 8 32 23 32 15
0 19 -7 19 -34 0 -19 -3 -37 -7 -39 -5 -3 -34 -8 -65 -12 -55 -7 -58 -6 -69
18 -21 47 29 91 61 52z m-3595 -35 c177 -45 271 -105 305 -194 16 -44 12 -113
-11 -157 -24 -47 -22 -48 -107 44 -30 31 -58 57 -63 57 -25 0 -2 -39 56 -96
69 -68 73 -84 26 -109 -81 -41 -158 -21 -231 62 -52 60 -76 137 -85 278 -3 61
-9 118 -11 128 -3 9 -3 17 0 17 3 0 58 -13 121 -30z m2280 -67 c-8 -128 -22
-204 -45 -258 -58 -136 -202 -193 -286 -114 l-23 21 65 86 c40 54 60 88 53 91
-12 4 -42 -25 -107 -104 l-33 -40 -34 37 c-39 43 -46 92 -21 152 20 47 82 113
130 139 35 18 254 82 294 86 11 1 13 -18 7 -96z m1805 47 c0 -22 -4 -40 -9
-40 -9 0 -20 67 -12 75 13 14 21 1 21 -35z m-5678 -127 c39 -35 10 -113 -43
-113 -34 0 -39 17 -6 22 32 4 36 52 6 84 l-22 24 23 0 c13 0 32 -7 42 -17z
m-961 -23 c8 -30 11 -105 4 -112 -3 -2 -18 -3 -35 0 -28 4 -30 7 -30 47 0 59
16 97 37 93 9 -2 20 -14 24 -28z m179 25 c0 -3 -7 -16 -15 -29 -18 -26 -11
-52 16 -67 24 -12 25 -29 1 -29 -55 0 -82 70 -42 110 19 19 40 27 40 15z
m5547 -55 c-2 -54 -4 -60 -23 -60 -48 0 -56 53 -14 98 32 34 39 27 37 -38z
m703 40 c6 -12 10 -38 8 -58 -3 -32 -7 -37 -30 -40 -31 -4 -33 0 -16 28 10 15
10 27 1 49 -8 22 -8 31 1 35 20 8 25 6 36 -14z m120 1 c19 -36 12 -78 -16
-100 -30 -23 -44 -27 -44 -10 0 6 9 13 21 16 17 5 20 12 16 37 -3 17 -8 41
-12 54 -9 28 19 31 35 3z m-6236 -7 c3 -9 6 -33 6 -54 0 -33 -3 -38 -27 -43
-36 -7 -56 17 -48 58 8 47 56 73 69 39z m308 -24 c-1 -18 3 -39 9 -46 9 -11 7
-14 -13 -14 -22 0 -24 3 -21 48 1 26 2 49 2 50 1 2 7 2 14 -1 7 -2 11 -18 9
-37z m133 27 c10 -8 15 -19 11 -25 -10 -16 -43 -15 -49 1 -3 6 -6 -2 -6 -19
-1 -28 1 -30 29 -26 18 3 30 0 30 -7 0 -6 -19 -11 -45 -11 -43 0 -45 1 -45 29
0 16 -3 36 -6 44 -9 25 51 35 81 14z m115 8 c0 -3 -7 -16 -16 -30 -12 -18 -13
-28 -5 -44 16 -28 14 -33 -11 -29 -17 2 -24 12 -29 38 -3 19 -7 40 -9 45 -1 6
-2 13 -1 18 1 8 71 10 71 2z m4730 -1 c0 -4 -8 -13 -17 -20 -19 -14 -19 -14
25 -81 23 -37 -10 -30 -42 8 -30 35 -33 61 -10 83 15 16 44 22 44 10z m250
-34 c0 -10 -4 -31 -10 -45 -8 -22 -15 -26 -42 -23 -31 3 -33 5 -33 43 0 32 5
42 24 52 30 14 61 1 61 -27z m99 -7 c-1 -38 -3 -43 -9 -23 -7 23 -7 23 -11
-10 -3 -27 -9 -36 -26 -38 -28 -4 -28 -5 3 106 2 6 13 12 24 12 17 0 20 -6 19
-47z m157 3 c8 -21 11 -42 8 -47 -7 -13 -61 -11 -87 2 -16 9 -22 9 -25 0 -6
-18 -22 -13 -22 7 0 24 28 62 54 72 39 16 58 7 72 -34z m-5667 15 c13 -13 18
-27 14 -43 -8 -30 -21 -38 -60 -38 -56 0 -66 60 -15 89 25 15 40 13 61 -8z
m101 4 c0 -8 -4 -15 -9 -15 -4 0 -8 -17 -7 -37 1 -32 -3 -39 -21 -41 -20 -3
-21 0 -18 50 2 29 4 54 4 56 1 1 12 2 26 2 16 0 25 -6 25 -15z m4898 -36 c-5
-28 -7 -57 -5 -63 3 -8 -7 -12 -29 -13 l-34 -1 0 64 0 64 39 0 38 0 -9 -51z
m795 32 c15 -15 -1 -59 -23 -66 -11 -4 -34 -4 -50 0 -25 5 -30 12 -30 35 0 17
7 33 18 40 18 11 71 5 85 -9z m108 -2 c-16 -15 -21 -28 -17 -45 5 -19 2 -24
-14 -24 -13 0 -26 13 -40 42 -11 23 -20 43 -20 45 0 2 26 3 57 3 l57 0 -23
-21z m-2847 -151 c46 -135 31 -263 -32 -297 -26 -14 -36 -2 -57 72 -29 101
-48 62 -20 -43 17 -63 9 -78 -31 -57 -113 59 -127 200 -32 311 55 64 130 119
140 102 4 -7 18 -46 32 -88z m388 39 c35 -34 73 -83 86 -108 52 -107 10 -235
-90 -272 -15 -5 -16 4 -15 78 3 113 -22 132 -38 30 -3 -23 -11 -50 -18 -59
-11 -15 -15 -14 -45 15 -45 44 -59 96 -44 167 12 58 80 212 93 212 4 0 36 -28
71 -63z m3287 -78 c28 -52 23 -75 -24 -134 -33 -40 -44 -24 -17 24 27 48 28
77 2 116 -25 37 -25 47 -2 43 9 -2 28 -24 41 -49z m-6114 -35 c0 -54 -3 -64
-17 -64 -15 0 -18 9 -18 51 0 50 16 97 28 84 4 -4 7 -35 7 -71z m531 30 c8
-53 -9 -122 -32 -131 -25 -9 -29 6 -10 38 14 24 17 42 11 85 -5 44 -4 54 9 54
10 0 17 -15 22 -46z m102 1 c16 -49 4 -100 -33 -135 -30 -28 -33 -13 -5 32 25
41 25 65 1 105 -11 17 -17 34 -13 37 15 16 38 -2 50 -39z m4442 37 c0 -5 -11
-19 -25 -32 -32 -30 -31 -47 2 -82 23 -24 24 -28 10 -34 -11 -4 -29 6 -53 30
-40 40 -38 54 17 100 31 26 49 33 49 18z m825 -22 c8 -16 15 -44 15 -62 0 -34
-32 -98 -50 -98 -14 0 -12 17 6 45 17 26 20 64 10 113 -9 40 -1 41 19 2z m113
-14 c15 -46 9 -85 -19 -121 -31 -39 -40 -30 -18 20 24 54 18 108 -15 131 -21
15 -20 15 9 12 25 -2 32 -10 43 -42z m224 14 c26 -27 30 -36 25 -67 -7 -43
-51 -93 -67 -77 -7 7 -4 19 12 39 l22 28 -27 49 c-15 26 -27 50 -27 53 0 15
36 1 62 -25z m-7132 -24 c0 -24 3 -58 6 -75 6 -27 4 -31 -15 -31 -19 0 -21 5
-21 68 0 38 3 72 7 75 15 16 23 4 23 -37z m520 29 c0 -9 -7 -18 -15 -21 -18
-7 -20 -48 -2 -62 7 -6 26 -10 43 -9 41 3 40 -27 -2 -31 -25 -2 -37 4 -64 35
-18 21 -40 41 -49 44 -12 4 -6 12 24 32 46 30 65 33 65 12z m1238 -25 c32 -48
29 -94 -9 -132 -22 -22 -33 -28 -41 -20 -8 8 -3 20 16 42 31 38 32 55 6 98
-37 61 -13 72 28 12z m3662 2 c0 -20 4 -51 9 -69 7 -25 6 -33 -6 -37 -27 -11
-30 -6 -37 61 -5 49 -4 68 6 74 23 15 28 10 28 -29z m964 -29 c-4 -38 -8 -70
-10 -72 -2 -2 -11 -1 -20 3 -14 5 -16 15 -10 63 6 52 17 72 39 73 4 0 5 -30 1
-67z m-6544 -13 c0 -67 -1 -70 -24 -70 -21 0 -24 5 -30 60 -8 69 -4 80 30 80
23 0 24 -2 24 -70z m1170 49 c0 -5 -7 -9 -15 -9 -19 0 -19 -36 0 -74 20 -38
11 -45 -20 -16 -31 29 -33 72 -5 100 20 20 40 19 40 -1z m630 -11 c25 -41 25
-69 1 -99 -21 -27 -42 -18 -23 9 25 34 25 46 3 84 -26 46 -9 51 19 6z m3628
-41 l3 -67 -28 0 c-27 0 -28 1 -30 62 -2 63 7 81 37 75 11 -2 16 -19 18 -70z
m-4470 41 c19 -19 14 -28 -12 -28 -14 0 -28 -5 -32 -11 -4 -7 6 -10 29 -8 44
4 58 -8 33 -27 -32 -23 -72 -17 -106 16 -24 24 -40 30 -72 30 -49 0 -44 -11 9
-19 47 -8 52 -35 8 -39 -23 -2 -37 4 -59 27 -41 43 -30 61 37 61 29 0 58 -5
63 -10 7 -7 20 -6 40 5 35 18 46 19 62 3z m4869 -4 c4 -10 -1 -20 -11 -26 -23
-13 -9 -29 20 -22 32 8 31 -9 -2 -35 -33 -26 -50 -26 -64 -2 -11 22 -14 84 -3
94 13 13 54 7 60 -9z m609 -33 c13 -45 10 -66 -7 -55 -5 3 -46 6 -91 6 -86 0
-118 9 -118 33 0 8 -7 15 -16 15 -12 0 -15 -7 -12 -25 6 -28 -12 -34 -31 -11
-30 36 43 82 119 74 30 -3 35 -7 35 -30 1 -35 11 -44 29 -29 8 7 19 10 25 7
13 -9 42 4 35 16 -3 5 -19 6 -35 3 -33 -7 -36 0 -12 27 10 11 27 18 41 16 20
-2 28 -12 38 -47z m220 31 c-15 -3 -17 -10 -12 -43 6 -37 5 -39 -19 -39 -22 0
-25 4 -25 38 0 47 13 61 48 54 21 -5 23 -7 8 -10z m234 -16 c0 -19 -28 -83
-39 -90 -24 -15 -41 7 -41 55 0 42 3 51 23 58 25 10 57 -3 57 -23z m526 -57
c-8 -44 -38 -82 -59 -78 -14 3 -12 11 14 49 24 37 29 52 26 85 l-5 40 15 -31
c10 -21 13 -44 9 -65z m-6986 61 l25 -20 -34 2 c-20 2 -36 -2 -38 -9 -3 -8 5
-13 21 -13 17 0 26 -5 26 -16 0 -11 -8 -14 -32 -12 -24 2 -34 9 -41 31 -5 15
-6 34 -3 42 8 21 46 18 76 -5z m836 4 c-3 -9 -6 -36 -6 -60 0 -39 -2 -44 -23
-44 -21 0 -23 4 -20 38 7 69 12 82 34 82 15 0 19 -5 15 -16z m112 0 c12 -8 22
-26 22 -39 0 -18 -8 -26 -37 -36 -35 -11 -38 -10 -60 15 -13 15 -23 31 -23 36
0 12 41 40 60 40 9 0 26 -7 38 -16z m65 -4 c18 0 47 -32 47 -51 0 -15 -57 -58
-61 -47 -3 9 -3 116 -1 108 2 -5 9 -10 15 -10z m5332 -30 l0 -45 -47 -3 -48
-3 0 33 c0 51 20 69 70 65 23 -2 25 -6 25 -47z m-6208 -15 c1 -43 0 -45 -27
-45 -27 0 -40 15 -40 46 0 8 15 21 33 29 17 8 32 14 32 15 0 0 1 -20 2 -45z
m5403 31 c0 -2 -7 -6 -15 -10 -8 -3 -15 -1 -15 4 0 6 7 10 15 10 8 0 15 -2 15
-4z m-3522 -157 c19 -39 21 -50 11 -77 l-11 -32 -28 20 c-37 27 -46 25 -26 -5
18 -28 21 -61 5 -70 -19 -12 -78 5 -109 32 -46 39 -59 72 -66 177 l-7 96 104
-48 c96 -45 106 -52 127 -93z m3566 125 c10 -26 7 -34 -14 -34 -13 0 -20 7
-20 18 0 33 23 44 34 16z m-114 -20 c0 -8 -4 -14 -10 -14 -5 0 -10 9 -10 21 0
11 5 17 10 14 6 -3 10 -13 10 -21z m-884 -69 c-8 -85 -24 -131 -58 -161 -32
-30 -63 -37 -103 -24 -30 10 -34 15 -29 35 5 19 1 24 -18 27 -17 2 -24 10 -26
31 -7 55 65 119 173 153 69 22 69 23 61 -61z m-5026 -89 c0 -42 -5 -78 -11
-81 -16 -11 -19 -4 -25 78 -7 74 -6 77 15 77 20 0 21 -5 21 -74z m190 55 c0
-53 -14 -111 -26 -111 -10 0 -14 16 -14 58 0 32 3 62 7 65 13 14 33 7 33 -12z
m778 -32 c4 -55 -12 -99 -34 -99 -12 0 -14 5 -9 18 4 9 10 43 13 75 5 69 26
73 30 6z m4639 -9 c-3 -28 -9 -55 -12 -60 -14 -22 -25 4 -25 56 0 49 2 54 21
54 20 0 21 -4 16 -50z m821 -6 c14 -58 6 -84 -25 -84 -11 0 -11 4 -2 21 7 14
9 41 5 70 -9 67 6 62 22 -7z m147 37 c-34 -7 -46 -40 -20 -61 23 -19 18 -34
-15 -47 -31 -12 -39 -6 -18 15 10 10 8 20 -6 47 -11 19 -25 35 -33 35 -15 0
-18 17 -3 22 5 2 36 1 67 -1 46 -4 52 -6 28 -10z m-6257 -42 c3 -53 -12 -67
-47 -43 -39 28 -21 98 24 92 16 -2 21 -12 23 -49z m802 41 c0 -5 -11 -10 -25
-10 -31 0 -33 -21 -4 -61 21 -30 21 -31 -26 -42 -18 -3 -20 0 -17 30 2 18 -1
40 -8 48 -21 26 -4 45 40 45 22 0 40 -4 40 -10z m-685 -23 c8 -12 16 -34 17
-47 3 -22 -2 -25 -30 -28 -18 -2 -40 2 -48 9 -14 12 -20 70 -7 82 14 15 53 6
68 -16z m91 -8 c0 -14 4 -30 8 -37 10 -17 0 -42 -16 -42 -7 0 -21 14 -31 31
-16 29 -16 34 -2 56 20 29 40 25 41 -8z m114 21 c11 -7 8 -11 -15 -20 -28 -11
-28 -13 -10 -20 25 -9 50 -38 42 -46 -3 -4 -22 -3 -42 0 -32 6 -35 10 -35 41
0 43 29 65 60 45z m233 -2 c7 -21 -24 -98 -39 -98 -11 0 -13 8 -9 34 4 19 2
43 -4 55 -11 19 -9 21 18 21 16 0 31 -6 34 -12z m4864 -32 c-1 -25 -6 -48 -10
-52 -10 -10 -57 40 -57 60 0 17 27 35 53 36 14 0 17 -7 14 -44z m597 28 c25
-25 20 -63 -10 -74 -39 -15 -47 -12 -30 12 21 29 20 48 -1 48 -16 1 -16 2 1
15 24 18 21 18 40 -1z m-5554 -23 c0 -12 -9 -16 -37 -16 -21 0 -39 -4 -40 -10
-1 -6 15 -9 38 -7 30 2 40 -1 37 -10 -3 -7 -23 -14 -46 -16 -36 -3 -43 0 -53
22 -17 37 -5 54 38 58 49 4 63 0 63 -21z m5074 17 c59 -26 36 -78 -34 -78 -56
0 -79 39 -44 74 18 19 44 20 78 4z m72 -2 c0 0 8 -13 17 -28 23 -37 21 -50 -5
-46 -15 2 -24 11 -26 25 -2 12 -10 27 -18 33 -21 19 -17 32 9 24 12 -3 22 -7
23 -8z m198 -38 c-8 -64 -9 -65 -29 -44 -9 9 -22 16 -29 16 -8 0 -19 7 -26 15
-9 11 -7 19 14 40 14 14 37 25 51 25 25 0 26 -1 19 -52z m109 40 c35 -17 35
-30 0 -28 -42 3 -53 1 -53 -10 0 -5 16 -10 36 -10 31 0 35 -2 24 -15 -16 -20
-90 -21 -90 -1 0 7 3 28 6 45 7 35 30 40 77 19z m-255 -29 c4 -24 3 -24 -12
-4 -19 24 -20 38 -3 33 6 -3 13 -15 15 -29z m-1360 -7 c12 -80 -164 -222 -278
-226 -80 -2 -99 34 -59 109 44 84 105 121 216 135 100 12 117 9 121 -18z
m-1813 7 c111 -28 215 -190 141 -219 -36 -13 -120 3 -165 33 -60 40 -130 150
-117 184 7 16 80 17 141 2z m-665 -115 c74 -42 120 -108 120 -175 0 -49 -16
-99 -32 -99 -5 0 -36 18 -69 41 -67 45 -128 74 -138 64 -9 -10 65 -72 127
-107 28 -16 52 -34 52 -40 0 -41 -70 -78 -147 -78 -96 0 -180 69 -269 222 -27
45 -62 97 -78 116 -16 18 -26 35 -23 39 4 3 55 16 114 29 155 34 268 30 343
-12z m3368 11 l93 -18 -20 -21 c-10 -11 -45 -68 -76 -126 -66 -121 -119 -183
-190 -216 -69 -33 -120 -31 -177 5 -25 16 -48 33 -51 39 -4 5 17 26 46 46 78
55 134 106 117 106 -22 0 -88 -37 -138 -77 -49 -40 -74 -38 -97 7 -46 88 29
220 149 264 53 20 217 16 344 -9z m-2967 -21 c13 -14 59 -47 103 -72 91 -54
162 -128 172 -178 7 -38 -22 -107 -48 -112 -9 -2 -31 17 -51 45 -39 53 -97
102 -97 81 0 -21 34 -66 78 -104 23 -19 42 -42 42 -49 0 -19 -72 -37 -115 -29
-52 9 -95 43 -130 98 -28 46 -30 56 -30 145 0 70 6 110 20 149 10 28 22 52 25
52 4 0 17 -12 31 -26z m2263 -6 c14 -52 18 -176 7 -231 -14 -65 -61 -134 -106
-156 -39 -19 -140 -27 -149 -12 -4 6 20 48 53 93 33 46 58 84 56 86 -10 10
-50 -26 -80 -73 -45 -70 -53 -74 -82 -41 -27 32 -30 80 -9 131 18 43 49 72
140 132 39 25 84 57 99 70 36 29 63 30 71 1z m1186 2 c0 -6 -12 -33 -26 -61
-23 -47 -24 -52 -10 -68 9 -10 16 -21 16 -24 0 -12 -37 -7 -49 7 -16 19 -3
101 21 131 20 25 48 34 48 15z m-5982 -72 c-3 -57 -5 -63 -25 -66 -22 -3 -23
0 -23 62 0 64 1 66 25 66 25 0 26 -1 23 -62z m562 57 c0 -2 -11 -15 -25 -29
-29 -29 -33 -71 -9 -104 18 -26 4 -29 -31 -6 -31 21 -33 64 -4 110 14 24 28
34 45 34 13 0 24 -2 24 -5z m5511 -29 c-22 -35 -20 -57 7 -88 14 -16 13 -18
-1 -18 -39 0 -63 109 -29 129 36 21 45 12 23 -23z m1341 -6 c26 -49 23 -82
-10 -113 -28 -27 -52 -35 -52 -18 0 5 7 15 16 22 27 22 33 52 16 84 -8 17 -20
33 -26 38 -8 5 -6 10 4 17 21 14 31 8 52 -30z m-6772 10 c0 -11 -7 -20 -15
-20 -23 0 -18 -25 11 -59 l26 -31 -26 0 c-27 0 -56 32 -56 62 0 9 5 29 12 43
14 30 48 34 48 5z m614 5 c13 -10 19 -26 18 -51 -2 -46 -11 -74 -23 -74 -17 0
-22 31 -8 57 12 22 11 26 -4 34 -9 6 -17 19 -17 29 0 24 8 25 34 5z m110 -12
c17 -34 13 -100 -8 -121 -9 -9 -17 -14 -20 -11 -4 5 5 159 10 159 2 0 10 -12
18 -27z m5816 -42 c10 -38 -8 -83 -42 -105 -28 -17 -32 0 -8 32 18 24 21 38
16 66 -4 19 -14 40 -24 46 -15 8 -15 11 -2 19 20 14 47 -13 60 -58z m118 13
l27 -55 -25 -19 c-43 -33 -64 -24 -35 14 22 29 18 52 -11 75 -14 11 -23 25
-19 31 14 23 37 7 63 -46z m-6124 27 c17 -19 17 -20 -13 -19 -23 1 -31 6 -31
20 0 24 22 23 44 -1z m5360 13 c24 -9 19 -49 -10 -95 -18 -30 -31 -39 -46 -37
-25 4 -37 28 -14 28 21 0 39 37 38 77 -1 33 4 38 32 27z m530 -62 c7 -51 6
-66 -8 -87 -9 -14 -25 -25 -37 -25 -19 0 -19 1 2 29 19 26 21 38 16 91 -9 84
15 77 27 -8z m-6205 44 c9 -11 6 -16 -19 -24 -37 -13 -39 -38 -4 -46 27 -7 28
-29 1 -34 -30 -6 -73 89 -50 111 12 12 60 7 72 -7z m111 -1 c10 -12 7 -15 -13
-20 -45 -12 -43 -46 3 -63 24 -9 23 -10 -13 -17 -21 -4 -42 -4 -47 1 -7 8 -14
66 -11 102 1 17 66 15 81 -3z m114 -12 c5 -13 -42 -95 -63 -108 -22 -13 -19
17 4 51 14 21 25 45 24 53 -1 9 -1 19 0 23 2 12 29 -2 35 -19z m400 2 c23 -35
20 -60 -13 -97 -36 -41 -49 -32 -22 13 25 41 27 65 5 77 -9 5 -14 14 -10 21
11 17 22 13 40 -14z m4716 13 l33 -11 -23 -19 c-21 -17 -25 -17 -32 -3 -12 20
-28 10 -28 -16 0 -14 6 -19 23 -18 37 3 57 0 57 -11 0 -5 -22 -10 -50 -10 -53
0 -76 20 -63 57 16 45 29 50 83 31z m124 6 c23 -9 20 -19 -9 -32 -28 -13 -25
-38 7 -48 29 -9 7 -26 -28 -22 -24 2 -30 8 -32 33 -2 17 -8 35 -13 41 -19 24
34 44 75 28z m98 0 c4 -3 -1 -19 -10 -35 -14 -23 -15 -32 -5 -48 10 -16 9 -20
-6 -24 -33 -8 -42 6 -28 43 9 26 9 34 0 37 -25 9 -14 33 15 33 16 0 31 -3 34
-6z m228 -9 c20 -24 2 -37 -26 -19 -13 9 -24 20 -24 25 0 14 36 10 50 -6z m87
-28 c13 -40 3 -81 -23 -91 -21 -8 -24 7 -12 48 9 29 9 42 0 57 -16 26 -15 31
6 27 9 -2 22 -19 29 -41z m96 26 c37 -42 29 -121 -15 -144 -29 -16 -34 -3 -15
36 21 44 22 79 2 99 -8 8 -15 17 -15 20 0 13 28 5 43 -11z m120 -18 c22 -45
22 -83 0 -107 -23 -26 -47 -24 -39 5 3 12 6 48 6 80 0 31 4 57 8 57 5 0 16
-16 25 -35z m-6205 -1 c3 -18 -1 -21 -24 -16 -20 4 -25 1 -22 -9 3 -8 13 -14
24 -14 23 -1 44 -13 44 -26 0 -13 -74 -11 -88 3 -16 16 -15 61 0 76 20 20 62
11 66 -14z m858 -50 c7 -49 -6 -74 -37 -74 -24 0 -24 4 2 40 19 25 21 34 11
72 -9 38 -9 41 3 24 8 -10 17 -38 21 -62z m-422 11 c-6 -16 -24 -21 -24 -7 0
11 11 22 21 22 5 0 6 -7 3 -15z m5466 -15 c0 -11 -6 -20 -13 -20 -19 0 -27 10
-20 26 8 21 33 17 33 -6z m858 -52 c-3 -7 -15 -14 -29 -16 -24 -4 -24 -3 -4
12 24 19 38 20 33 4z m-3301 -84 c54 -264 51 -317 -23 -390 -37 -38 -49 -44
-84 -44 -52 0 -57 13 -36 95 9 35 16 74 16 87 -1 22 -1 22 -12 3 -7 -11 -24
-56 -39 -100 -15 -44 -30 -79 -33 -77 -3 1 -12 2 -20 2 -8 0 -28 14 -45 30
-91 91 -23 265 150 387 43 30 81 59 85 64 13 22 29 -1 41 -57z m-4193 48 c2
-4 6 -32 7 -62 l3 -55 -39 0 -40 0 -3 63 -3 62 35 0 c19 0 37 -3 40 -8z m3071
-12 c3 -5 42 -28 86 -51 192 -100 258 -283 141 -393 -17 -15 -35 -25 -40 -22
-6 3 -20 36 -32 72 -22 66 -62 125 -72 108 -4 -5 5 -36 18 -68 13 -33 24 -75
24 -94 l0 -35 -45 5 c-62 7 -92 31 -121 91 -28 61 -31 140 -10 250 8 40 17 89
21 110 6 36 18 47 30 27z m2761 -5 c22 -11 55 -13 153 -9 120 5 168 -2 147
-23 -12 -12 -258 -16 -299 -5 -44 12 -60 -2 -23 -19 33 -15 24 -29 -20 -29
-31 0 -34 2 -34 31 0 37 16 69 34 69 8 0 26 -7 42 -15z m363 -2 c5 -10 11 -36
12 -58 4 -36 1 -40 -19 -43 -20 -3 -23 0 -17 16 3 11 -1 37 -10 57 -19 47 -19
45 5 45 10 0 23 -8 29 -17z m-6024 -1 c6 -4 10 -24 10 -44 0 -32 -3 -37 -29
-42 -16 -4 -30 -5 -32 -4 -1 2 0 24 3 51 6 46 21 59 48 39z m220 -2 c9 -15
288 -13 303 2 19 19 52 -18 52 -59 0 -28 -3 -33 -25 -33 -22 0 -23 3 -15 24 5
13 7 26 5 28 -2 2 -46 0 -97 -5 -51 -5 -135 -6 -185 -4 -51 2 -93 0 -93 -4 0
-5 9 -9 20 -9 11 0 20 -4 20 -10 0 -12 -67 -14 -74 -2 -3 5 -1 25 5 45 9 33
13 37 44 37 19 0 37 -4 40 -10z m440 -35 c0 -31 -19 -45 -28 -21 -8 20 4 57
17 53 6 -2 11 -16 11 -32z m120 -38 c4 -15 3 -27 -2 -27 -11 0 -33 44 -33 65
0 8 -5 15 -11 15 -5 0 -7 5 -4 10 9 14 42 -28 50 -63z m5355 48 c0 -8 -9 -15
-20 -15 -11 0 -20 7 -20 15 0 8 9 15 20 15 11 0 20 -7 20 -15z m92 -20 c10
-40 3 -43 -16 -6 -19 36 -20 44 -4 39 7 -3 15 -17 20 -33z m-799 -40 c1 -5
-10 -11 -25 -13 -16 -2 -28 1 -28 7 0 20 49 26 53 6z m-4643 -152 c5 -32 4
-50 -4 -55 -26 -18 -32 -6 -32 62 1 59 3 67 15 55 8 -7 17 -35 21 -62z m114
61 c3 -9 6 -33 6 -54 0 -44 -38 -99 -59 -86 -9 6 -7 13 9 28 22 21 23 48 5
106 -6 18 -4 22 13 22 11 0 23 -7 26 -16z m216 -6 c26 -28 25 -115 -2 -129
-26 -14 -32 7 -11 41 17 30 17 32 -4 71 -23 43 -15 51 17 17z m5254 -11 c12
-47 6 -97 -15 -118 -15 -15 -24 -18 -32 -10 -7 7 -3 16 14 30 24 19 24 20 7
67 -9 26 -15 51 -12 55 8 14 32 -2 38 -24z m229 -6 c13 -23 14 -34 5 -62 -6
-19 -12 -40 -14 -46 -5 -18 -34 -16 -34 2 0 9 6 18 14 21 22 8 28 35 13 58 -7
12 -16 29 -20 39 -11 28 17 20 36 -12z m-6765 -43 l3 -58 -41 0 -40 0 0 61 0
60 38 -3 37 -3 3 -57z m602 52 c-8 -5 -22 -10 -30 -10 -8 0 -21 -9 -28 -20 -9
-15 -19 -19 -36 -14 -23 5 -45 -10 -32 -23 3 -3 45 -5 93 -4 57 1 84 -2 77 -9
-5 -5 -33 -10 -62 -11 -28 -1 -52 -6 -52 -11 0 -18 -38 -7 -59 18 -25 28 -24
61 1 56 9 -1 31 6 50 17 34 20 108 30 78 11z m5391 -2 c1 -7 0 -28 -1 -46 -1
-22 5 -38 17 -48 17 -13 16 -14 -12 -12 -28 3 -30 6 -35 56 -3 29 -4 55 -1 58
9 9 31 3 32 -8z m423 -10 c3 -13 8 -40 11 -60 6 -37 5 -38 -25 -35 -16 2 -33
7 -38 11 -4 4 0 6 8 4 12 -2 16 9 18 50 3 53 18 70 26 30z m-6243 2 c30 -16
23 -30 -16 -30 -24 0 -35 -5 -35 -15 0 -10 10 -15 29 -15 40 0 48 -18 14 -31
-37 -14 -73 3 -73 34 0 33 21 57 58 66 2 1 12 -4 23 -9z m133 -6 c9 -8 16 -29
16 -45 0 -37 -36 -57 -69 -40 -22 12 -25 20 -21 61 3 41 44 54 74 24z m108 4
c9 -7 18 -29 20 -48 3 -35 3 -35 -39 -37 l-43 -2 0 38 c0 54 27 76 62 49z
m773 2 c8 -13 -15 -13 -35 0 -12 8 -11 10 7 10 12 0 25 -4 28 -10z m4473 -13
c2 -11 -3 -17 -17 -17 -11 0 -33 -11 -48 -25 l-28 -26 54 3 c36 2 55 -1 58 -9
6 -16 -94 -18 -117 -3 -23 15 -1 62 40 82 40 20 54 19 58 -5z m230 -33 c2 -39
-1 -53 -12 -57 -21 -8 -36 22 -36 73 0 37 2 41 23 38 19 -3 22 -10 25 -54z
m185 49 c-7 -2 -21 -2 -30 0 -10 3 -4 5 12 5 17 0 24 -2 18 -5z m581 -26 c12
-34 -3 -81 -28 -85 -21 -4 -36 13 -36 42 0 19 0 19 13 1 18 -24 37 -11 37 26
0 23 -4 29 -21 29 -11 0 -17 4 -14 11 12 18 39 5 49 -24z m-5951 9 c3 -8 3
-17 0 -20 -7 -7 -33 13 -33 25 0 15 27 10 33 -5z m156 5 c11 -7 11 -15 0 -45
-12 -34 -24 -41 -59 -36 -21 2 -40 29 -40 56 0 12 6 25 13 27 20 9 71 7 86 -2z
m4932 -1 c13 -8 19 -21 19 -45 0 -29 -4 -36 -26 -41 -35 -9 -78 7 -82 30 -4
20 34 66 55 66 8 0 23 -5 34 -10z m409 -45 c0 -49 -2 -55 -21 -55 -19 0 -21 4
-15 39 4 26 2 41 -6 43 -17 6 0 28 23 28 16 0 19 -7 19 -55z m144 33 c17 -28
-8 -47 -32 -25 -24 22 -32 21 -32 -3 0 -16 7 -20 30 -20 17 0 30 -4 30 -9 0
-12 -48 -23 -70 -16 -24 8 -36 60 -19 81 16 20 79 14 93 -8z m-5144 -28 c0
-12 -59 -50 -77 -50 -7 0 -13 9 -13 20 0 15 7 20 24 20 14 0 28 5 31 10 8 13
35 13 35 0z m991 -1 c60 -21 99 -67 114 -138 l7 -34 -53 7 c-30 4 -81 9 -114
12 -83 8 -63 -10 50 -45 49 -14 90 -32 92 -38 6 -17 -48 -74 -84 -89 -18 -8
-59 -14 -91 -14 -86 0 -157 39 -262 144 l-84 85 105 50 c57 27 120 54 139 59
48 14 140 14 181 1z m3140 -47 c65 -29 122 -52 128 -52 22 0 9 -16 -67 -86
-132 -120 -195 -154 -281 -154 -59 1 -109 26 -139 70 -21 32 -22 35 -6 47 9 7
47 22 83 34 36 12 70 25 76 30 15 14 -62 10 -126 -6 -33 -9 -64 -13 -69 -10
-14 9 -1 66 25 106 37 57 95 81 185 76 64 -3 92 -11 191 -55z m748 32 c40 -34
40 -47 -1 -27 -18 9 -39 19 -47 23 -23 10 -25 30 -3 30 11 0 34 -12 51 -26z
m-5361 -7 c3 -12 -3 -17 -22 -17 -25 0 -35 18 -19 34 12 12 38 2 41 -17z
m5382 -84 c0 -10 -7 -31 -15 -47 -20 -38 -19 -66 5 -96 26 -33 25 -42 -2 -38
-17 2 -26 15 -38 50 -14 44 -18 48 -47 48 -40 0 -50 -15 -23 -37 17 -15 28
-43 16 -43 -2 0 -11 -3 -19 -6 -24 -9 -47 24 -47 67 l0 39 59 0 c56 0 59 1 66
27 11 47 45 73 45 36z m1024 -14 c36 -29 48 -62 35 -96 -14 -39 -49 -73 -72
-73 -20 0 -20 0 0 23 49 53 55 93 18 127 -43 41 -28 56 19 19z m260 5 c39 -39
30 -110 -17 -132 -16 -8 -31 -12 -34 -9 -2 3 8 11 24 19 28 13 44 55 26 67 -5
3 -17 21 -26 39 -12 26 -13 32 -2 32 7 0 21 -7 29 -16z m-5818 -47 c18 -59 12
-102 -19 -121 -26 -17 -32 2 -9 27 26 28 27 42 7 90 -17 42 -19 57 -6 57 6 0
18 -24 27 -53z m87 35 c30 -33 38 -70 23 -105 -7 -18 -21 -39 -31 -47 -14 -12
-14 -8 4 20 28 47 27 85 -4 116 -14 14 -25 27 -25 29 0 11 18 4 33 -13z
m-1023 3 c0 -4 -7 -19 -15 -35 -14 -27 -13 -33 7 -74 12 -25 19 -49 15 -52
-13 -13 -46 28 -49 60 -3 30 -5 31 -43 27 -39 -3 -55 -14 -55 -37 0 -7 11 -9
28 -7 l27 5 -25 -21 c-14 -11 -28 -21 -32 -21 -11 0 -20 43 -16 76 3 28 5 29
53 29 44 0 51 3 63 28 11 23 42 39 42 22z m6391 -37 c9 -35 7 -104 -3 -113 -2
-1 -13 -6 -25 -9 -17 -6 -23 -3 -23 8 0 9 5 16 11 16 9 0 10 21 6 70 -5 56 -3
70 8 70 8 0 19 -18 26 -42z m239 23 c15 -29 12 -68 -6 -96 -23 -35 -38 -31
-19 5 20 38 19 52 -6 84 l-20 26 20 0 c11 0 25 -9 31 -19z m-7262 -53 l3 -56
-36 1 -35 1 0 59 0 58 33 -3 c32 -3 32 -4 35 -60z m728 51 c4 -7 -1 -16 -10
-21 -20 -11 -21 -40 0 -79 8 -17 13 -34 9 -37 -12 -12 -37 26 -42 65 -7 56 22
106 43 72z m336 -12 c-6 -7 -12 -39 -14 -72 -2 -35 -8 -60 -15 -63 -10 -3 -11
8 -7 41 4 26 2 53 -5 66 -15 27 -7 41 26 41 20 0 23 -3 15 -13z m5128 3 c0 -5
-5 -20 -11 -33 -8 -18 -7 -32 5 -60 18 -43 6 -48 -23 -11 -25 32 -27 71 -4 96
18 20 33 24 33 8z m350 1 c0 -6 -4 -13 -10 -16 -5 -3 -10 -19 -10 -34 0 -39
-19 -88 -35 -95 -21 -8 -27 10 -10 24 17 14 20 63 5 91 -6 11 -8 24 -5 29 8
13 65 13 65 1z m-6238 -19 c5 -5 8 -33 6 -63 -4 -56 -9 -52 -24 15 -13 56 -37
61 -28 7 5 -33 4 -41 -9 -41 -16 0 -27 29 -27 74 0 27 2 28 37 23 20 -4 40
-10 45 -15z m130 -6 c13 -18 9 -63 -6 -75 -8 -7 -27 -11 -43 -9 -25 3 -28 7
-31 46 -3 36 0 43 20 51 25 9 49 4 60 -13z m808 14 c13 -9 13 -12 -2 -24 -15
-11 -16 -15 -3 -32 19 -25 19 -34 0 -34 -8 0 -20 9 -27 19 -11 18 -13 18 -25
3 -11 -15 -12 -13 -13 16 0 17 0 35 -1 40 0 4 10 10 23 14 33 9 31 9 48 -2z
m5400 -4 c0 -7 3 -28 6 -45 5 -24 3 -31 -8 -31 -16 0 -33 64 -22 82 8 13 24 9
24 -6z m50 -44 c3 -29 3 -52 -1 -52 -13 0 -30 29 -27 47 1 10 -1 24 -5 31 -10
15 1 34 16 29 7 -2 14 -27 17 -55z m241 48 c31 -17 18 -90 -16 -90 -8 0 -15
-9 -15 -19 0 -20 -17 -37 -26 -28 -3 3 -8 31 -11 63 -4 48 -1 60 13 71 22 16
30 16 55 3z m-6761 -40 c0 -36 -2 -40 -25 -40 -21 0 -25 5 -25 28 0 30 16 52
37 52 9 0 13 -14 13 -40z m1198 18 c3 -14 -3 -18 -27 -18 -16 0 -33 -4 -36
-10 -4 -6 11 -10 37 -10 36 0 40 -2 28 -14 -29 -27 -54 -27 -83 0 -26 24 -27
32 -4 62 15 19 81 11 85 -10z m110 -19 c3 -39 -26 -76 -53 -66 -19 8 -20 27 0
27 8 0 15 5 15 10 0 6 -9 10 -20 10 -16 0 -20 7 -20 31 0 29 2 30 38 27 35 -3
37 -5 40 -39z m4226 4 c-8 -45 -9 -47 -23 -38 -12 7 -15 58 -4 68 3 4 13 7 20
7 11 0 12 -9 7 -37z m84 31 c12 -4 22 -13 22 -21 0 -10 -6 -12 -20 -8 -25 8
-27 -13 -2 -31 14 -10 15 -15 4 -26 -26 -26 -74 36 -59 76 7 17 19 19 55 10z
m86 -46 c-4 -29 -10 -57 -15 -62 -11 -12 -32 43 -25 68 3 11 0 26 -6 33 -8 10
-4 13 21 13 l32 0 -7 -52z m541 5 l13 -43 -33 0 c-24 0 -39 7 -49 22 -20 28
-20 33 0 53 28 28 55 15 69 -32z m413 -4 c3 -44 1 -47 -25 -52 -53 -11 -104
51 -72 89 8 10 26 14 53 12 l41 -3 3 -46z m-5888 32 c0 -12 -59 -32 -72 -25
-5 3 -4 12 3 20 13 15 69 19 69 5z m5350 -26 c0 -26 -14 -33 -25 -15 -9 14 1
40 15 40 5 0 10 -11 10 -25z m-5480 5 c0 -5 -4 -10 -10 -10 -5 0 -10 5 -10 10
0 6 5 10 10 10 6 0 10 -4 10 -10z m148 -38 c3 -10 -5 -13 -29 -10 -18 2 -34 9
-37 16 -3 10 5 13 29 10 18 -2 34 -9 37 -16z m1674 -38 c75 -37 119 -103 103
-153 -10 -32 -30 -31 -105 6 -39 19 -74 33 -77 29 -11 -10 29 -46 91 -81 l59
-33 -34 -21 c-82 -50 -229 1 -274 95 -9 20 -25 65 -35 99 l-18 63 67 10 c85
13 181 7 223 -14z m2207 4 c49 -11 52 -13 46 -37 -27 -108 -104 -206 -183
-229 -80 -24 -172 -8 -172 30 0 4 32 28 70 53 39 25 70 50 70 56 0 6 -6 9 -12
7 -159 -58 -178 -59 -178 -12 0 55 62 120 138 145 33 10 149 4 221 -13z
m-2587 -182 c42 -20 78 -70 78 -108 0 -25 -2 -25 -67 -25 -85 2 -146 -10 -140
-26 2 -8 33 -12 90 -13 101 -1 120 -11 105 -54 -21 -61 -108 -119 -179 -120
-19 0 -60 7 -90 16 -61 18 -259 114 -259 127 0 4 33 39 73 78 114 112 193 151
292 146 33 -2 77 -11 97 -21z m2968 -14 c25 -12 89 -62 142 -112 l98 -90 -63
-32 c-164 -85 -187 -93 -272 -93 -100 0 -142 19 -184 83 -17 26 -27 50 -23 54
12 12 124 38 167 38 38 1 39 1 20 16 -15 11 -42 14 -105 13 -77 -2 -85 0 -88
17 -4 27 36 83 78 112 31 21 44 23 110 20 52 -2 89 -10 120 -26z m-5070 -9 c0
-5 -7 -17 -15 -27 -23 -30 -18 -57 17 -93 17 -18 29 -35 26 -38 -9 -10 -52 15
-72 42 -25 34 -23 69 4 99 23 24 40 31 40 17z m6160 -71 c0 -22 -36 -82 -50
-82 -15 0 -12 16 5 30 22 18 19 72 -5 93 -12 10 -18 23 -14 29 9 14 64 -45 64
-70z m-5487 36 c22 -29 18 -80 -8 -114 -14 -17 -15 -15 -9 32 5 38 2 59 -11
84 -20 39 -2 38 28 -2z m123 -3 c18 -44 18 -66 -2 -91 -15 -18 -15 -18 -10 6
2 14 -2 43 -10 65 -17 48 -17 55 -3 55 5 0 17 -16 25 -35z m119 -1 c20 -43 14
-75 -22 -108 -35 -32 -43 -24 -15 14 22 30 29 74 13 84 -5 3 -11 15 -14 26 -9
34 19 23 38 -16z m4519 27 c3 -5 -1 -11 -9 -15 -40 -15 4 -77 57 -81 29 -3 37
1 41 17 5 16 2 19 -14 15 -11 -3 -19 0 -19 7 0 19 22 36 47 36 21 0 23 -5 23
-45 0 -25 -1 -45 -2 -46 -2 0 -31 -3 -64 -5 -59 -4 -63 -3 -88 27 -30 35 -33
61 -10 83 17 18 30 20 38 7z m836 -58 c0 -28 -17 -63 -30 -63 -6 0 -5 11 1 27
7 18 6 36 -1 56 -15 45 -12 55 10 28 11 -13 20 -34 20 -48z m86 59 c17 -11 34
-48 34 -75 0 -31 -36 -77 -60 -77 -26 0 -16 24 16 38 30 14 32 52 4 77 -30 27
-25 58 6 37z m-6502 -31 c-15 -25 -16 -36 -6 -69 7 -22 12 -41 12 -44 0 -2
-19 -4 -42 -4 l-43 1 -3 64 c-3 73 3 81 61 81 l38 0 -17 -29z m491 18 c4 -5
21 -9 37 -7 17 2 33 -2 35 -8 2 -7 -2 -12 -9 -11 -40 1 -47 -4 -55 -45 -7 -34
-13 -44 -31 -46 -26 -4 -27 -2 -5 42 13 29 14 40 5 61 -9 20 -9 25 3 25 7 0
17 -5 20 -11z m215 -58 c4 -39 2 -55 -8 -58 -7 -3 -16 -2 -20 2 -4 4 -1 10 6
12 14 6 16 69 2 78 -14 9 -12 27 3 23 6 -3 14 -28 17 -57z m5214 53 c9 -3 16
-13 16 -21 0 -10 -6 -13 -16 -9 -9 3 -20 6 -25 6 -5 0 -9 7 -9 15 0 16 9 19
34 9z m117 -5 c11 -5 17 -13 15 -18 -6 -9 -76 -2 -76 8 0 22 30 27 61 10z
m139 -51 c0 -28 -3 -49 -6 -45 -9 9 -12 107 -3 101 5 -3 9 -28 9 -56z m-5905
2 c0 -40 -3 -45 -23 -48 -26 -4 -62 23 -62 45 0 34 21 54 53 51 31 -3 32 -5
32 -48z m148 29 c5 -9 7 -28 3 -43 -6 -25 -10 -27 -49 -24 -36 3 -43 7 -52 31
-8 24 -6 31 10 43 25 18 75 14 88 -7z m207 11 c0 -5 -2 -10 -4 -10 -3 0 -8 5
-11 10 -3 6 -1 10 4 10 6 0 11 -4 11 -10z m5225 -35 c-1 -27 -5 -30 -44 -38
-48 -10 -71 2 -71 38 0 32 9 36 65 33 48 -3 50 -4 50 -33z m93 -17 c-5 -15
-68 -24 -68 -9 0 12 18 19 48 20 15 1 22 -4 20 -11z m131 -2 c9 -11 8 -15 -5
-20 -26 -10 -86 -7 -79 4 3 6 15 10 26 10 10 0 19 5 19 10 0 15 26 12 39 -4z
m541 0 c0 -2 -3 -11 -6 -20 -9 -23 -24 -20 -24 4 0 11 7 20 15 20 8 0 15 -2
15 -4z m-6022 -37 c-18 -12 -55 -11 -63 0 -7 12 22 18 53 13 18 -4 20 -7 10
-13z m4276 -2 c35 -26 -6 -39 -152 -49 -123 -9 -141 -8 -177 8 l-40 18 95 8
c52 5 115 12 140 17 68 13 114 12 134 -2z m-2266 -13 c39 -11 25 -31 -27 -38
-83 -11 -251 23 -251 51 0 7 244 -4 278 -13z m3914 -71 c10 -9 18 -27 18 -41
0 -28 -39 -112 -52 -112 -12 0 -10 13 13 64 19 44 19 49 5 71 -25 39 -17 48
16 18z m-6352 -1 c0 -5 -9 -17 -20 -27 -27 -24 -25 -51 5 -79 30 -28 31 -36 5
-36 -27 0 -70 43 -70 71 0 11 14 34 31 50 31 29 49 36 49 21z m767 -14 c13
-12 23 -30 23 -41 0 -28 -38 -77 -61 -77 -25 0 -24 4 6 34 34 34 33 71 -2 90
-23 12 -24 15 -9 16 11 0 30 -10 43 -22z m128 2 c29 -32 -4 -120 -47 -120 -19
0 -19 2 7 21 27 22 31 55 10 102 -10 23 8 22 30 -3z m4525 14 c0 -3 -9 -19
-21 -35 -25 -35 -20 -56 16 -65 28 -7 33 -22 9 -31 -18 -7 -74 43 -74 66 0 8
12 28 27 43 25 26 43 35 43 22z m832 -35 c16 -31 17 -41 7 -63 -12 -25 -53
-45 -66 -32 -4 4 3 13 15 22 26 18 28 44 6 85 -14 29 -14 30 2 27 9 -1 26 -19
36 -39z m-6437 -49 l0 -65 -32 -3 -33 -3 0 71 0 71 33 -3 32 -3 0 -65z m632
11 c3 -32 1 -41 -11 -41 -20 0 -33 28 -31 65 3 39 2 38 22 27 10 -6 18 -26 20
-51z m213 37 c0 -13 4 -29 9 -37 7 -10 2 -20 -14 -33 -34 -26 -47 -23 -38 10
4 15 7 39 6 55 -2 21 2 27 17 27 14 0 20 -7 20 -22z m5160 -26 c0 -27 -2 -51
-5 -53 -2 -3 -20 -3 -40 -1 -26 3 -35 9 -35 23 0 23 7 24 27 3 20 -20 33 -3
33 44 0 17 5 32 10 32 6 0 10 -22 10 -48z m-5695 26 c19 3 27 -2 37 -23 17
-38 0 -60 -48 -60 -44 -1 -64 10 -64 33 0 18 43 67 48 54 1 -5 14 -7 27 -4z
m5425 2 c0 -6 -12 -16 -27 -22 -27 -11 -27 -12 -5 -15 12 -3 22 -9 22 -14 0
-5 5 -9 10 -9 6 0 10 5 10 12 0 40 90 68 104 33 7 -20 -23 -33 -35 -14 -6 10
-11 11 -20 2 -18 -18 0 -34 34 -31 18 2 34 -1 37 -7 8 -15 -182 -17 -192 -2
-13 21 -9 49 10 63 20 16 52 18 52 4z m170 -35 c0 -25 -4 -45 -10 -45 -5 0
-10 13 -10 29 0 17 -4 33 -10 36 -17 10 -11 25 10 25 17 0 20 -7 20 -45z m50
31 c0 -16 -18 -31 -27 -22 -8 8 5 36 17 36 5 0 10 -6 10 -14z m360 -14 c0 -15
5 -33 12 -40 9 -9 7 -13 -7 -18 -22 -9 -48 22 -39 48 3 10 1 18 -5 18 -6 0
-11 5 -11 10 0 6 11 10 25 10 21 0 25 -5 25 -28z m-5876 2 c19 -49 0 -73 -56
-74 -29 0 -25 68 5 80 33 13 44 12 51 -6z m106 7 c0 -19 -22 -23 -38 -7 -15
15 -14 16 11 16 15 0 27 -4 27 -9z m210 -14 c0 -39 -22 -59 -60 -55 -42 4 -54
28 -13 28 40 0 62 15 45 32 -9 9 -19 10 -42 1 -25 -9 -30 -9 -30 3 0 10 14 14
50 14 46 0 50 -2 50 -23z m5360 19 c0 -2 -7 -6 -15 -10 -8 -3 -15 -1 -15 4 0
6 7 10 15 10 8 0 15 -2 15 -4z m108 -33 c3 -28 -1 -33 -23 -39 -39 -10 -75 10
-75 41 0 18 5 25 19 25 14 0 18 -5 14 -20 -4 -16 0 -20 17 -20 19 0 21 4 16
26 -6 21 -4 25 11 22 12 -2 19 -14 21 -35z m-3693 1 c46 -21 51 -42 18 -67
-42 -31 -143 -135 -143 -147 0 -24 33 -5 111 65 46 42 87 74 93 72 15 -5 46
-70 46 -97 0 -127 -103 -208 -290 -230 -52 -6 -110 -13 -129 -16 l-34 -5 6 43
c22 159 31 199 57 254 56 115 173 172 265 128z m2353 -13 c98 -50 145 -152
168 -360 l7 -64 -29 7 c-16 4 -72 14 -124 22 -175 26 -247 60 -286 135 -18 37
-18 132 1 170 l16 29 37 -19 c20 -11 64 -47 97 -80 33 -34 65 -61 72 -61 30 0
8 37 -66 113 -65 65 -78 84 -71 98 13 23 26 27 88 28 34 1 66 -6 90 -18z
m-4378 0 c0 -5 10 -11 22 -13 21 -3 21 -4 4 -21 -10 -10 -23 -16 -30 -14 -14
5 -21 57 -7 57 6 0 11 -4 11 -9z m5600 -6 c7 -9 10 -18 7 -21 -10 -11 -37 5
-37 21 0 19 14 19 30 0z m1289 -114 c42 -59 34 -127 -21 -165 -33 -23 -41 -8
-13 26 29 34 34 93 10 124 -8 10 -15 25 -15 32 0 21 18 13 39 -17z m-5709 -42
c13 -48 5 -81 -26 -110 -27 -25 -31 -17 -9 21 18 32 18 90 0 114 -8 10 -12 23
-9 28 10 16 33 -13 44 -53z m235 16 c20 -51 15 -83 -20 -122 -30 -35 -32 -17
-4 32 21 34 21 38 5 78 -18 49 -19 57 -7 57 5 0 17 -20 26 -45z m5125 23 c12
-13 20 -35 20 -55 0 -36 -34 -113 -50 -113 -13 0 -13 6 6 42 16 30 15 76 -1
126 -9 28 -1 28 25 0z m140 -64 c0 -29 -14 -60 -43 -91 -33 -36 -40 -15 -12
34 24 39 25 48 15 74 -7 16 -19 29 -26 29 -17 0 -18 12 -1 29 10 10 17 6 40
-19 15 -16 27 -42 27 -56z m-5606 57 c14 -15 16 -29 11 -65 -8 -52 -42 -103
-58 -87 -6 6 -2 19 12 37 22 28 29 98 11 109 -12 8 -13 25 -2 25 5 0 17 -9 26
-19z m219 2 c8 -10 18 -34 22 -54 6 -30 2 -40 -25 -68 -36 -40 -51 -35 -21 7
25 35 27 84 6 102 -16 14 -20 30 -7 30 5 0 16 -8 25 -17z m3627 -62 c0 -66 -1
-68 -25 -68 -24 0 -25 2 -25 63 0 63 2 67 43 73 4 0 7 -30 7 -68z m153 7 c-6
-76 -10 -91 -23 -83 -5 3 -10 37 -10 76 0 61 2 69 19 69 17 0 19 -6 14 -62z
m1715 10 c11 -42 11 -50 -4 -73 -9 -14 -23 -25 -31 -25 -13 0 -13 3 1 25 20
31 21 79 1 95 -20 17 -19 32 2 28 11 -2 22 -21 31 -50z m-7138 -33 c0 -67 -9
-85 -30 -60 -13 15 -9 103 5 125 14 23 25 -5 25 -65z m470 63 c0 -6 -10 -22
-21 -34 l-21 -23 22 -28 c25 -33 13 -40 -29 -18 -39 20 -39 35 0 80 32 36 49
44 49 23z m408 -41 c2 -26 7 -47 13 -47 5 0 9 -4 9 -10 0 -5 -11 -10 -25 -10
-24 0 -25 2 -19 40 4 24 2 45 -5 53 -12 15 -4 30 13 24 6 -2 12 -25 14 -50z
m5497 -7 c0 -50 -2 -55 -24 -58 -19 -3 -22 0 -17 13 3 9 6 37 6 62 0 37 3 44
18 41 14 -3 17 -14 17 -58z m109 -8 c1 -34 0 -62 -2 -62 -2 0 -12 5 -23 10
-21 12 -25 52 -9 95 17 45 33 24 34 -43z m-6636 -3 c-3 -59 -4 -62 -30 -65
-28 -3 -28 -3 -28 62 l0 64 30 0 31 0 -3 -61z m1156 55 c20 -8 21 -24 2 -24
-15 0 -25 -27 -19 -47 3 -7 13 -13 24 -13 10 0 19 -4 19 -9 0 -18 -15 -19 -49
-5 -31 13 -33 16 -28 51 4 20 12 40 19 45 16 9 13 9 32 2z m4912 -9 c-10 -8
-23 -16 -29 -18 -16 -5 15 -47 40 -53 29 -8 46 4 40 26 -3 11 2 21 10 24 24
10 83 7 83 -4 0 -5 -18 -10 -39 -10 -33 0 -40 -4 -43 -22 -3 -21 -8 -23 -71
-22 -80 1 -100 13 -71 45 18 21 69 48 89 48 6 0 1 -6 -9 -14z m-5215 -19 c0
-5 -12 -15 -28 -22 l-28 -12 28 -1 c42 -1 30 -41 -13 -41 -34 0 -53 72 -24 88
19 11 63 2 65 -12z m100 14 c28 -15 25 -44 -4 -37 -26 7 -52 -6 -43 -21 5 -8
15 -8 32 -2 33 13 34 13 34 -4 0 -20 -32 -28 -64 -17 -21 9 -26 17 -26 44 0
19 3 37 7 40 10 10 42 8 64 -3z m321 -3 c-6 -7 -12 -33 -14 -57 -2 -32 -7 -45
-18 -45 -11 0 -16 14 -18 58 l-3 57 32 0 c24 0 29 -3 21 -13z m106 1 c15 -15
16 -75 1 -84 -19 -11 -71 -6 -80 8 -5 7 -9 30 -9 51 0 36 1 37 38 37 21 0 43
-5 50 -12z m4942 -7 c15 -29 13 -31 -25 -31 -19 0 -35 -4 -35 -10 0 -5 18 -10
40 -10 22 0 40 -4 40 -10 0 -5 -22 -10 -49 -10 -51 0 -61 8 -61 54 0 30 7 36
46 36 23 0 37 -6 44 -19z m110 -1 c4 -6 5 -24 2 -40 -4 -26 -8 -30 -37 -30
-28 0 -33 4 -39 31 -11 59 -9 62 31 56 20 -4 39 -11 43 -17z m322 8 c3 -7 3
-32 0 -55 -4 -41 -6 -43 -37 -43 -30 0 -33 3 -37 38 -7 58 0 72 37 72 18 0 35
-6 37 -12z m-6294 -20 c2 -12 -3 -18 -15 -18 -11 0 -28 -7 -39 -16 -18 -15
-17 -15 19 -10 41 5 51 -10 13 -20 -43 -10 -70 -1 -81 29 -8 24 -6 31 10 43
27 20 89 14 93 -8z m261 8 c10 -12 8 -15 -10 -18 -36 -5 -36 -28 0 -28 35 0
41 -15 11 -25 -29 -9 -71 20 -63 43 15 42 41 54 62 28z m754 -23 c18 -31 18
-32 -4 -52 -30 -28 -49 -27 -41 2 3 12 10 25 16 29 8 5 7 11 -2 20 -16 16 -16
41 0 36 7 -3 21 -19 31 -35z m4366 31 c38 -8 40 -20 6 -36 -22 -10 -23 -13
-10 -20 21 -12 10 -28 -19 -28 -33 0 -49 23 -41 60 7 32 13 34 64 24z m1024
-8 c3 -8 2 -27 -2 -43 -6 -22 -14 -29 -38 -31 -28 -3 -32 1 -43 32 -6 20 -9
40 -5 46 10 16 82 12 88 -4z m86 -18 c15 -26 14 -29 -14 -58 -19 -20 -32 -27
-39 -20 -6 6 -4 16 7 28 19 21 22 48 7 57 -16 10 -11 27 7 23 10 -2 24 -15 32
-30z m-744 -38 c4 -6 -7 -10 -25 -10 -18 0 -29 4 -25 10 3 6 15 10 25 10 10 0
22 -4 25 -10z m-6039 -150 c-1 -77 -2 -80 -25 -80 -23 0 -24 2 -18 54 4 44 29
106 42 106 1 0 2 -36 1 -80z m5419 0 c0 -58 -3 -70 -16 -70 -34 0 -40 74 -8
114 11 14 21 26 23 26 1 0 1 -31 1 -70z m835 -15 c0 -60 -3 -75 -15 -75 -12 0
-15 14 -13 75 2 53 6 75 15 75 9 0 13 -21 13 -75z m-5465 3 c-8 -77 -12 -91
-25 -83 -5 3 -10 37 -10 76 0 63 2 69 20 69 20 0 21 -4 15 -62z m4445 -4 c0
-57 -2 -65 -17 -62 -15 3 -19 16 -21 66 -3 57 -1 62 18 62 18 0 20 -6 20 -66z
m-5410 29 c0 -64 -12 -103 -31 -103 -16 0 -19 8 -19 58 0 64 4 72 32 72 13 0
18 -7 18 -27z m308 10 c12 -23 1 -105 -14 -110 -16 -5 -54 45 -54 70 0 24 27
57 46 57 7 0 17 -8 22 -17z m332 -13 c0 -27 -3 -30 -30 -30 -16 0 -30 -4 -30
-10 0 -5 14 -10 31 -10 24 0 30 -4 27 -17 -4 -22 -53 -30 -74 -12 -8 6 -14 24
-14 40 0 23 7 33 38 48 50 26 52 25 52 -9z m5095 -27 c0 -47 -2 -53 -21 -53
-26 0 -64 35 -64 60 0 23 38 52 65 48 17 -3 20 -11 20 -55z m830 47 c16 -7 17
-9 3 -9 -25 -1 -32 -20 -17 -48 12 -22 11 -26 -11 -44 -30 -23 -40 -24 -40 -4
0 8 7 15 15 15 20 0 19 34 -1 50 -8 8 -20 22 -25 32 -9 16 -6 18 23 17 18 0
42 -4 53 -9z m-5716 -9 c11 -7 12 -20 5 -63 -8 -45 -13 -53 -33 -56 -21 -3
-23 -1 -16 20 4 12 10 42 12 66 5 44 9 48 32 33z m226 -10 c-3 -11 0 -29 7
-40 15 -24 2 -54 -25 -59 -13 -3 -15 3 -10 33 4 25 1 41 -11 54 -19 21 -12 31
21 31 20 0 23 -4 18 -19z m5253 -17 c4 -38 -13 -84 -31 -84 -9 0 -13 17 -12
60 0 55 2 60 20 58 14 -2 21 -12 23 -34z m-470 14 c7 -7 12 -27 12 -45 0 -26
-6 -36 -25 -45 -21 -9 -28 -8 -46 8 -39 35 -44 56 -19 76 26 21 61 23 78 6z
m112 -54 c0 -37 -3 -44 -19 -44 -10 0 -22 7 -25 16 -11 27 -6 82 7 87 22 8 37
-15 37 -59z m-5536 40 c22 -22 20 -50 -6 -68 -33 -23 -46 -20 -68 17 -25 40
-25 42 3 55 32 15 53 14 71 -4z m79 -1 c18 -65 18 -73 -2 -73 -13 0 -20 9 -24
37 -4 20 -4 40 -1 45 9 14 22 9 27 -9z m247 2 c17 -21 4 -37 -19 -23 -19 12
-51 5 -51 -11 0 -5 17 -11 38 -13 l37 -3 -28 -15 c-21 -10 -33 -11 -45 -3 -21
13 -27 50 -12 69 16 18 64 18 80 -1z m5347 -25 c0 -37 -2 -40 -28 -40 -35 0
-63 35 -48 62 6 12 21 18 43 18 32 0 33 -1 33 -40z m123 0 c0 -47 -15 -58 -63
-42 -29 9 -30 10 -7 11 38 2 58 17 42 33 -10 10 -17 10 -32 0 -26 -16 -30 -15
-30 7 0 22 13 29 58 30 31 1 32 0 32 -39z m-5711 -165 c-23 -43 -23 -45 -6
-74 27 -46 19 -59 -13 -21 -38 44 -38 76 2 124 39 48 49 31 17 -29z m5441 50
c0 -9 -7 -30 -16 -47 -14 -28 -14 -34 0 -72 20 -51 20 -57 2 -50 -7 3 -22 20
-32 39 -10 19 -22 32 -26 29 -21 -13 -4 38 25 74 35 44 47 51 47 27z m-5315
-27 c-15 -47 -17 -89 -5 -103 17 -21 -8 -20 -38 1 -29 20 -28 40 4 86 30 42
50 51 39 16z m4773 -45 c-3 -63 -5 -68 -27 -71 -21 -3 -23 -1 -18 20 4 12 7
44 7 71 0 41 3 47 20 47 19 0 21 -5 18 -67z m667 30 c-32 -32 -32 -46 0 -71
16 -13 22 -23 15 -27 -13 -8 -59 20 -67 41 -10 26 7 63 35 78 38 20 48 9 17
-21z m555 10 c24 -31 21 -77 -7 -103 -14 -14 -15 -13 -8 5 17 46 17 58 -4 85
-23 32 -26 40 -12 40 5 0 19 -12 31 -27z m-6636 -39 c7 -64 4 -74 -30 -74 -23
0 -24 3 -24 65 0 62 1 65 24 65 21 0 24 -6 30 -56z m1066 6 c11 -27 10 -33
-14 -65 -29 -37 -33 -39 -54 -26 -10 6 -6 12 14 26 25 16 26 21 21 67 -5 41
-4 48 7 39 8 -7 19 -25 26 -41z m630 3 c17 -26 30 -53 30 -61 0 -17 -59 -77
-67 -68 -3 3 1 14 10 24 23 25 21 84 -3 115 -22 28 -25 37 -10 37 6 0 24 -21
40 -47z m259 11 c12 -19 21 -48 21 -63 0 -27 -31 -71 -50 -71 -16 0 -11 27 5
34 19 7 19 62 0 96 -17 29 -18 40 -6 40 5 0 18 -16 30 -36z m5206 4 c45 -54
49 -76 20 -114 -14 -19 -33 -34 -41 -34 -21 0 -17 12 14 37 l27 22 -32 61
c-35 66 -30 78 12 28z m-6005 12 c0 -5 -7 -10 -15 -10 -8 0 -15 5 -15 10 0 6
7 10 15 10 8 0 15 -4 15 -10z m110 -9 c5 -11 10 -31 10 -44 0 -28 -34 -76 -46
-64 -4 4 -2 13 4 19 15 15 16 74 2 83 -15 9 -12 25 5 25 8 0 19 -9 25 -19z
m101 -8 c19 -50 -4 -123 -38 -123 -13 0 -13 3 1 25 18 28 21 77 6 106 -9 15
-7 19 5 19 8 0 20 -12 26 -27z m218 -4 c19 -54 14 -106 -11 -123 -30 -22 -35
-11 -14 29 17 31 18 38 4 80 -12 35 -12 45 -3 45 7 0 18 -14 24 -31z m507 -66
c-5 -37 -35 -85 -47 -77 -5 3 -2 18 6 34 19 37 19 81 0 106 -27 36 -14 39 16
4 24 -28 29 -42 25 -67z m4438 75 c13 -19 13 -25 0 -57 -21 -50 -40 -69 -56
-53 -9 9 -8 15 8 26 14 11 19 26 18 60 -1 51 7 57 30 24z m204 -33 c2 -32 -2
-57 -12 -70 -22 -30 -28 -13 -15 39 9 35 9 50 0 59 -16 16 -13 29 7 25 13 -2
18 -15 20 -53z m117 24 c13 -25 14 -36 4 -67 -14 -45 -27 -62 -45 -62 -19 0
-18 30 3 52 19 21 22 80 5 86 -17 5 -15 22 3 22 8 0 22 -14 30 -31z m100 1
c31 -59 10 -130 -38 -130 -20 0 -20 1 2 24 18 19 22 33 19 63 -3 21 -8 46 -12
56 -14 30 12 19 29 -13z m108 -5 c9 -20 17 -48 17 -63 0 -33 -25 -72 -46 -72
-13 0 -13 4 1 30 19 37 19 67 0 104 -18 35 -18 36 -2 36 7 0 21 -16 30 -35z
m-6195 -4 c16 -23 16 -23 -16 -16 -25 5 -32 3 -32 -9 0 -10 9 -16 25 -16 27 0
32 -9 13 -28 -21 -21 -58 -14 -68 13 -5 14 -7 32 -5 40 3 8 7 22 10 31 7 23
55 14 73 -15z m330 -14 c-4 -47 -14 -67 -31 -66 -9 0 -9 2 1 6 7 3 12 23 12
47 0 38 6 56 17 56 3 0 3 -19 1 -43z m641 -3 c18 -25 31 -47 29 -49 -2 -1 -18
-10 -36 -19 -38 -20 -52 -15 -28 9 20 20 20 34 1 59 -16 22 -20 46 -7 46 5 0
23 -21 41 -46z m-1079 6 c16 -39 0 -60 -46 -60 -36 0 -42 14 -28 68 10 35 58
30 74 -8z m210 20 c18 -11 11 -18 -20 -23 -32 -5 -35 -20 -8 -32 33 -14 28
-29 -9 -33 -26 -3 -33 1 -34 15 -1 10 -3 29 -4 43 -2 14 -1 28 2 33 6 10 55 9
73 -3z m520 -9 c23 -44 -1 -111 -41 -111 -22 0 -24 20 -8 86 12 47 31 57 49
25z m4724 2 c-1 -7 -2 -26 -2 -43 -2 -26 -6 -30 -32 -30 -38 0 -52 40 -24 71
19 21 60 22 58 2z m223 5 c17 -13 7 -28 -18 -28 -24 0 -25 -16 -1 -29 15 -9
15 -12 2 -21 -22 -15 -33 -7 -42 29 -8 30 -11 32 -50 29 -53 -4 -65 -28 -14
-28 44 0 47 -15 5 -24 -45 -9 -69 8 -69 48 l0 34 88 0 c48 0 93 -5 99 -10z
m-6429 -232 l3 -66 -36 0 c-33 0 -35 2 -35 33 0 17 3 49 6 69 6 32 9 36 33 34
25 -3 26 -6 29 -70z m5427 4 l0 -60 -32 0 c-17 0 -34 3 -36 8 -3 4 -2 31 0 60
5 51 6 52 37 52 l31 0 0 -60z m395 45 c30 -11 83 -15 181 -15 130 0 183 -11
124 -26 -34 -8 -314 1 -339 11 -14 6 -17 4 -14 -11 4 -23 37 -31 49 -12 6 9 9
7 9 -10 0 -28 -23 -38 -55 -24 -29 13 -41 52 -25 81 13 25 15 25 70 6z m-5406
-2 c5 -5 78 -8 164 -8 l156 0 7 -38 c5 -31 2 -40 -13 -48 -20 -11 -21 -8 -18
34 1 27 1 27 -57 26 -32 0 -92 -4 -133 -8 -59 -7 -77 -5 -86 5 -18 22 -104 16
-104 -7 0 -4 24 -9 53 -11 l52 -3 -36 -19 c-65 -33 -115 -1 -88 58 10 22 19
26 54 26 23 0 45 -3 49 -7z m423 -10 c4 -11 -26 -27 -35 -19 -2 3 -2 12 2 21
6 18 27 16 33 -2z m5371 -35 c-2 -39 -7 -53 -18 -53 -11 0 -16 14 -18 53 -3
47 -1 52 18 52 19 0 21 -5 18 -52z m-5268 22 c6 -12 10 -33 8 -48 -4 -28 -5
-26 -26 36 -11 35 1 44 18 12z m4770 -20 c0 -30 -4 -40 -16 -40 -12 0 -14 7
-9 33 13 60 25 64 25 7z m610 31 c0 -19 -22 -23 -38 -7 -15 15 -14 16 11 16
15 0 27 -4 27 -9z m76 -18 c-10 -10 -19 5 -10 18 6 11 8 11 12 0 2 -7 1 -15
-2 -18z m-6206 0 c9 -8 -35 -78 -52 -81 -15 -3 -18 4 -18 41 0 27 5 47 13 50
12 5 47 -1 57 -10z m5403 11 c12 -4 10 -12 -11 -45 -14 -21 -29 -39 -34 -39
-4 0 -8 20 -8 45 0 46 12 55 53 39z m832 -57 c0 -26 -20 -25 -23 2 -3 16 1 22
10 19 7 -3 13 -12 13 -21z m119 -99 c20 -28 20 -61 1 -98 -14 -26 -42 -50 -61
-50 -3 0 5 15 20 34 31 42 33 77 5 94 -16 11 -18 16 -9 28 17 19 26 18 44 -8z
m-5585 -42 c16 -66 15 -76 -14 -76 -28 0 -31 11 -13 39 9 15 9 25 0 46 -12 26
-8 50 7 40 5 -2 14 -25 20 -49z m5465 38 c12 -33 6 -112 -9 -118 -12 -4 -15 4
-15 42 0 26 -3 57 -6 70 -7 26 20 32 30 6z m342 -9 c19 -29 14 -90 -10 -114
-24 -23 -29 -7 -9 33 16 34 16 38 0 65 -20 33 -21 41 -7 41 5 0 17 -11 26 -25z
m-5674 3 c-7 -7 -12 -28 -12 -47 0 -37 -32 -101 -50 -101 -14 0 -13 7 6 36 12
18 15 37 11 74 l-6 50 31 0 c25 0 29 -3 20 -12z m219 -4 c14 -5 14 -12 4 -57
-6 -28 -17 -53 -24 -55 -9 -3 -11 2 -8 14 17 60 18 82 3 87 -9 4 -16 11 -16
18 0 6 6 8 13 5 6 -3 19 -9 28 -12z m4788 -10 c-7 -8 -18 -13 -25 -10 -7 3
-16 1 -19 -5 -7 -10 -25 -3 -25 10 0 8 62 28 73 23 4 -2 3 -10 -4 -18z m-669
-50 l0 -65 -37 3 c-43 3 -49 16 -38 84 6 42 8 44 41 44 l34 0 0 -66z m1234 50
c3 -9 6 -31 6 -49 0 -28 -5 -35 -30 -44 -34 -11 -36 -7 -19 48 7 20 13 42 15
49 5 17 21 15 28 -4z m-6658 -10 c-3 -9 -6 -36 -6 -60 0 -42 -1 -44 -29 -44
-34 0 -46 29 -35 86 6 31 9 34 41 34 28 0 34 -3 29 -16z m443 -8 c16 -17 19
-26 10 -31 -7 -5 -16 -1 -21 9 -13 22 -38 20 -38 -4 0 -13 7 -20 20 -20 11 0
20 -4 20 -8 0 -12 -23 -32 -37 -32 -14 0 -37 75 -29 96 8 22 50 16 75 -10z
m93 -33 c3 -36 1 -43 -14 -43 -15 0 -18 8 -18 43 0 74 25 74 32 0z m81 50 c-7
-2 -19 -2 -25 0 -7 3 -2 5 12 5 14 0 19 -2 13 -5z m5588 -48 c-2 -28 -8 -53
-14 -57 -20 -12 -33 3 -30 35 8 65 13 78 31 75 14 -3 16 -12 13 -53z m-6011
31 c0 -8 -10 -16 -22 -18 -13 -2 -24 -11 -26 -20 -3 -14 4 -18 30 -18 27 -1
30 -2 15 -11 -9 -6 -32 -9 -50 -7 -25 2 -33 8 -35 26 -2 13 4 32 14 43 20 23
74 26 74 5z m120 4 c18 -11 22 -52 6 -62 -6 -4 -32 -8 -58 -8 -52 0 -56 7 -38
54 8 21 16 26 42 26 18 0 40 -5 48 -10z m402 -35 c-6 -67 -23 -61 -36 13 -5
28 -3 32 17 32 20 0 22 -4 19 -45z m139 34 c27 -14 14 -29 -27 -29 -19 0 -34
-4 -34 -10 0 -5 14 -7 33 -3 l32 6 -19 -21 c-32 -36 -86 -24 -86 19 0 41 56
62 101 38z m354 -8 c8 -27 -4 -50 -37 -67 -32 -17 -48 -12 -48 16 0 22 16 36
22 19 2 -7 13 -9 26 -5 26 9 20 26 -9 26 -10 0 -19 4 -19 8 0 28 56 30 65 3z
m4390 9 c3 -5 -3 -10 -14 -10 -17 0 -41 -26 -41 -44 0 -8 39 -7 68 0 17 5 21
11 16 26 -8 25 10 38 55 38 32 0 33 -2 28 -29 -3 -15 -1 -33 5 -39 16 -16 -20
-28 -42 -14 -13 8 -28 8 -53 0 -19 -6 -51 -8 -72 -4 -34 7 -36 9 -30 34 4 15
11 33 17 39 12 15 54 17 63 3z m233 -9 c3 -10 -3 -12 -26 -6 -18 3 -33 2 -37
-4 -3 -7 3 -11 17 -12 23 -1 23 -1 -2 -9 -22 -6 -23 -8 -7 -15 11 -4 23 -3 30
4 13 13 47 15 47 1 0 -16 -39 -31 -73 -28 -30 3 -32 6 -35 46 l-3 43 42 -3
c25 -2 44 -9 47 -17z m72 -10 c0 -17 5 -33 10 -36 17 -10 11 -25 -10 -25 -14
0 -20 7 -20 23 0 12 -3 32 -6 45 -5 16 -2 22 10 22 11 0 16 -9 16 -29z m83 19
c-45 -18 -26 -35 53 -48 82 -13 97 -18 88 -33 -8 -13 -105 0 -125 17 -21 19
-40 18 -32 -2 4 -12 2 -15 -8 -12 -9 3 -14 19 -14 46 0 40 1 42 30 41 28 0 28
-1 8 -9z m354 -7 c3 -7 -9 -13 -28 -15 -18 -2 -35 -9 -37 -17 -4 -11 4 -13 38
-7 31 5 41 3 38 -6 -6 -17 -68 -29 -90 -17 -21 11 -25 64 -5 73 21 9 80 2 84
-11z m-5754 -33 c-5 -18 0 -20 41 -20 29 0 45 -4 41 -10 -10 -16 -72 -12 -89
6 -17 16 -21 36 -10 47 12 12 22 -3 17 -23z m6806 -133 l26 -46 -20 -38 c-13
-24 -28 -39 -42 -41 -29 -4 -29 1 2 32 30 30 31 51 5 91 -11 17 -20 36 -20 43
0 25 23 6 49 -41z m-5715 18 c13 -14 27 -37 30 -50 7 -27 -12 -73 -39 -95 -25
-21 -31 -2 -7 23 30 32 28 78 -4 116 -31 37 -13 42 20 6z m5440 19 c26 -10 59
-72 52 -99 -8 -30 -54 -85 -72 -85 -20 0 -18 8 17 47 34 39 34 71 -2 109 -28
30 -26 40 5 28z m-5560 -26 c34 -55 32 -132 -5 -143 -28 -9 -35 1 -16 23 21
23 21 58 2 92 -27 47 -10 72 19 28z m402 -20 c19 -36 13 -66 -22 -107 -36 -43
-49 -29 -18 19 26 39 27 49 8 109 -10 33 11 19 32 -21z m4144 24 c0 -9 -4 -33
-10 -51 -7 -26 -6 -42 5 -64 20 -40 19 -59 -2 -55 -11 2 -23 20 -31 43 l-13
41 -57 -7 c-31 -3 -65 -9 -74 -14 -14 -5 -18 -2 -18 14 0 26 32 35 104 29 l53
-4 12 43 c13 43 31 58 31 25z m930 -54 c3 -36 11 -72 19 -81 12 -15 11 -17 -7
-17 -12 0 -25 8 -30 18 -13 23 -24 136 -15 145 17 18 28 -4 33 -65z m-6405
-28 c0 -66 -3 -80 -15 -78 -29 6 -20 158 9 158 3 0 6 -36 6 -80z m6631 62 c12
-7 48 -72 42 -76 -28 -16 -59 -28 -63 -24 -3 3 -1 17 4 32 7 17 7 35 1 51 -10
25 -4 31 16 17z m-7264 -54 c2 -29 4 -54 4 -55 -1 0 -18 -4 -38 -8 l-38 -7 0
61 0 61 34 0 c34 0 34 0 38 -52z m1843 21 c8 -25 -25 -83 -50 -87 -14 -3 -16
0 -10 14 5 11 13 38 19 60 10 44 30 49 41 13z m-1125 2 c-17 -33 -12 -72 10
-78 24 -6 26 -19 4 -27 -23 -9 -32 0 -45 43 -13 43 0 81 27 81 11 0 12 -4 4
-19z m357 5 c-3 -8 -9 -32 -13 -53 -6 -37 -29 -73 -46 -73 -5 0 -1 11 8 25 12
18 15 39 12 70 -5 43 -4 45 19 45 18 0 24 -4 20 -14z m173 5 c0 -6 -4 -13 -10
-16 -5 -3 -10 -22 -10 -42 0 -34 -1 -35 -17 -21 -10 9 -24 13 -31 11 -7 -3
-10 1 -7 9 23 64 25 68 50 68 14 0 25 -4 25 -9z m116 1 c6 -4 14 -17 18 -28 6
-19 2 -22 -40 -29 -52 -7 -51 -21 2 -16 19 1 34 -2 34 -8 0 -6 -16 -11 -35
-11 -56 0 -96 55 -63 88 13 13 67 16 84 4z m124 -45 c0 -58 -46 -78 -76 -33
-22 34 -15 69 16 77 38 9 60 -7 60 -44z m3930 21 c0 -18 3 -42 6 -53 5 -18 0
-21 -30 -22 -35 -1 -36 0 -36 37 0 21 -3 45 -6 54 -5 13 1 16 30 16 34 0 36
-2 36 -32z m785 -28 c1 -33 -2 -60 -5 -60 -18 0 -30 30 -30 72 0 39 3 48 18
48 14 0 17 -10 17 -60z m329 38 c-4 -13 -10 -41 -13 -63 -5 -32 -11 -41 -28
-43 -22 -3 -22 -3 -7 48 8 28 12 54 9 59 -5 10 10 19 33 20 9 1 11 -6 6 -21z
m162 -29 c0 -26 -4 -42 -7 -37 -5 7 -15 5 -30 -6 -33 -23 -40 -20 -28 11 5 14
7 38 4 52 -5 24 -3 26 29 27 l34 0 -2 -47z m142 39 c7 -7 12 -21 12 -31 0 -14
-4 -17 -17 -12 -32 13 -47 10 -51 -9 -4 -16 0 -18 32 -12 38 7 39 7 30 -18 -8
-21 -62 -21 -86 1 -22 20 -23 51 -1 75 18 20 63 24 81 6z m113 -5 c12 -15 12
-16 -4 -10 -11 4 -24 4 -30 0 -7 -4 -2 -9 13 -13 33 -8 33 -40 -2 -59 -22 -13
-29 -13 -42 -2 -24 20 -20 67 6 85 29 20 42 20 59 -1z m-6751 -15 c0 -17 -3
-19 -12 -10 -17 17 -48 15 -48 -3 0 -10 10 -15 31 -15 24 0 30 -4 27 -17 -2
-13 -13 -18 -38 -18 -31 0 -35 3 -38 28 -5 45 4 57 43 57 29 0 35 -3 35 -22z
m125 -31 c1 -38 -2 -47 -15 -44 -11 2 -14 13 -12 40 2 28 -1 37 -13 37 -11 0
-15 -10 -15 -35 0 -24 -5 -35 -15 -35 -11 0 -15 12 -15 46 l0 45 43 -3 42 -3
0 -48z m615 47 c0 -4 -7 -12 -16 -19 -15 -10 -13 -14 15 -34 41 -29 40 -45 -1
-37 -40 8 -44 12 -52 59 -7 36 -6 37 24 37 16 0 30 -3 30 -6z m4780 -18 c0 -6
-5 -18 -10 -26 -8 -13 -10 -12 -10 3 0 9 -5 17 -11 17 -7 0 -8 -14 -4 -40 7
-44 -2 -51 -30 -20 -22 25 -13 68 18 79 26 10 47 4 47 -13z m175 15 c3 -5 0
-13 -6 -16 -5 -4 -9 -23 -7 -43 4 -44 -18 -54 -27 -12 -8 35 -27 35 -35 0 -3
-13 -11 -25 -18 -28 -10 -3 -12 5 -6 33 6 33 4 37 -12 33 -14 -3 -18 -11 -17
-31 1 -15 -2 -25 -8 -22 -5 4 -9 24 -9 46 0 37 1 39 32 39 17 0 40 -7 50 -17
17 -15 18 -15 18 5 0 23 33 32 45 13z m533 -3 c-2 -6 -14 -18 -26 -26 -19 -13
-22 -12 -28 3 -4 10 -1 21 7 26 20 13 51 11 47 -3z m-5983 -13 c0 -5 -12 -11
-27 -13 -26 -3 -29 -7 -28 -29 1 -5 12 -7 25 -5 17 2 25 -1 25 -12 0 -11 -9
-16 -28 -16 -37 0 -52 17 -52 58 0 33 0 33 43 30 23 -2 42 -7 42 -13z m113 3
c19 -19 14 -31 -11 -24 -14 3 -32 -1 -43 -9 -21 -16 -14 -19 41 -15 23 1 27
-1 19 -10 -18 -19 -75 -17 -87 2 -18 27 6 68 41 68 15 0 33 -5 40 -12z m5022
-17 c0 -16 3 -37 6 -46 5 -13 2 -16 -11 -14 -19 4 -39 54 -30 77 9 25 35 13
35 -17z m757 3 c2 -7 -5 -10 -20 -7 -14 3 -29 -2 -37 -12 -13 -16 -11 -17 29
-14 29 3 46 0 48 -8 8 -23 -71 -16 -93 8 -18 20 -18 21 1 35 22 17 66 15 72
-2z m-5508 -38 c10 -11 8 -16 -9 -21 -26 -8 -33 -3 -24 19 8 20 18 20 33 2z
m5600 0 c7 -8 8 -16 4 -19 -11 -6 -49 9 -58 22 -10 17 41 13 54 -3z m-409 -16
c0 -5 -18 -10 -39 -10 -22 0 -43 5 -46 10 -4 6 12 10 39 10 25 0 46 -4 46 -10z
m-4870 -4 c0 -3 -4 -8 -10 -11 -5 -3 -10 -1 -10 4 0 6 5 11 10 11 6 0 10 -2
10 -4z m1755 -1904 c73 -35 84 -105 25 -163 -71 -71 -210 2 -186 97 4 14 22
42 41 61 26 27 35 45 36 72 l0 36 21 -41 c14 -29 33 -47 63 -62z m1485 45 c0
-16 13 -30 45 -49 56 -34 70 -66 51 -112 -22 -53 -53 -76 -104 -76 -37 0 -50
6 -79 35 -30 30 -34 39 -28 67 8 33 27 66 74 125 31 38 41 41 41 10z m-1960
-196 c5 -11 10 -23 10 -27 0 -4 -46 -55 -103 -113 -57 -58 -143 -151 -193
-206 -49 -55 -96 -106 -105 -115 -9 -8 -98 -99 -199 -202 l-183 -187 -3 -648
c-3 -708 -10 -934 -28 -945 -22 -15 -65 -8 -75 11 -11 19 -6 1500 5 1586 4 32
19 56 82 127 143 161 664 693 701 715 44 28 77 29 91 4z m2756 -329 c187 -185
373 -372 413 -415 l74 -79 -5 -798 c-3 -577 -7 -802 -16 -812 -9 -11 -4 -18
23 -32 119 -64 100 -262 -30 -312 -52 -20 -101 -11 -150 28 -100 79 -76 266
37 284 34 6 38 9 31 28 -5 11 -7 371 -6 800 l3 778 -143 142 c-78 78 -194 191
-257 252 -134 129 -307 314 -344 369 -18 25 -24 45 -20 59 8 28 24 46 38 46 6
0 164 -152 352 -338z m-1752 -54 c19 -30 -51 -125 -209 -283 -83 -82 -163
-168 -177 -190 l-28 -41 -2 -761 -3 -762 25 -6 c41 -10 70 -34 101 -83 56 -88
35 -192 -50 -249 -26 -18 -48 -23 -94 -23 -57 0 -62 2 -102 43 -68 67 -79 148
-34 239 10 20 32 45 49 55 21 12 28 22 23 33 -3 8 -8 362 -11 786 -3 713 -2
774 13 805 20 40 359 381 424 428 47 33 58 35 75 9z m678 -262 c150 -149 179
-181 189 -218 8 -31 10 -219 7 -697 -3 -650 -4 -654 -24 -670 l-21 -16 27 -40
c15 -22 45 -81 67 -132 45 -102 45 -103 -34 -103 -30 0 -33 4 -58 70 -15 39
-30 70 -33 70 -4 0 -16 -28 -27 -63 l-20 -62 -45 4 c-25 1 -48 5 -52 7 -6 4
81 196 109 240 11 18 14 128 13 595 0 316 -3 621 -7 677 l-6 104 -106 93
c-142 124 -203 201 -209 266 -4 48 -4 49 24 49 24 0 59 -30 206 -174z m843
-178 c7 -6 9 -249 7 -704 -3 -583 -2 -698 10 -717 29 -46 130 -307 124 -322
-20 -52 -93 -10 -134 78 -34 73 -71 119 -79 99 -3 -7 -16 -25 -29 -41 -48 -57
-56 -116 -24 -168 25 -42 54 -48 139 -29 38 9 76 13 84 10 8 -3 19 -22 26 -43
22 -74 28 -71 -139 -71 -172 0 -162 -6 -199 107 -24 72 -27 140 -7 187 13 31
91 96 115 96 8 0 11 224 11 749 0 455 4 760 10 775 9 23 12 24 42 14 18 -6 38
-15 43 -20z m-2604 5 c11 -13 15 -134 19 -657 3 -353 3 -652 0 -666 -8 -32
-68 -48 -87 -23 -13 17 -16 185 -17 993 l-1 354 25 7 c39 11 47 10 61 -8z
m2791 -148 c27 -11 37 -22 42 -46 9 -45 6 -810 -3 -834 -6 -15 -2 -24 17 -39
34 -27 54 -79 43 -109 -15 -39 -59 -67 -103 -67 -82 0 -127 91 -76 156 23 28
23 28 23 478 0 391 3 476 19 476 2 0 19 -7 38 -15z m-3007 -27 c5 -13 10 -218
12 -456 l5 -433 24 -36 c33 -49 31 -85 -7 -117 -41 -35 -71 -41 -107 -22 -65
34 -80 93 -36 145 l26 31 -7 433 c-4 238 -4 443 -1 455 6 18 15 22 46 22 30 0
39 -4 45 -22z m5034 -772 c77 -40 114 -173 69 -250 -39 -66 -89 -99 -156 -103
-49 -3 -64 0 -108 26 -67 39 -88 82 -81 163 5 56 41 137 69 154 40 25 166 31
207 10z m-1264 -341 c49 -48 26 -134 -39 -151 -46 -11 -79 0 -103 35 -28 41
-23 75 18 114 39 36 90 37 124 2z m-3543 -107 c27 -21 88 -121 88 -144 0 -12
-7 -25 -16 -28 -36 -14 -59 -5 -83 30 -17 24 -29 33 -40 28 -9 -4 -40 -12 -68
-19 -50 -12 -53 -12 -53 6 0 10 7 37 17 60 12 32 26 46 57 60 48 22 76 24 98
7z m-1661 -119 c116 -35 151 -204 61 -298 -73 -76 -169 -77 -243 -2 -52 51
-66 109 -45 176 23 71 54 104 112 120 63 17 69 17 115 4z m1626 -95 c6 -17
-23 -63 -50 -76 -9 -4 -25 -12 -34 -16 -23 -11 -83 -99 -83 -122 0 -14 7 -16
48 -13 l47 5 39 -61 c21 -34 43 -61 49 -61 7 0 6 -5 -1 -12 -10 -10 -14 -10
-20 -1 -9 15 -122 33 -206 33 l-58 0 6 30 c3 17 22 69 42 115 20 46 33 88 30
93 -6 11 11 70 27 90 6 7 36 12 84 12 58 0 75 -3 80 -16z m163 7 c25 -7 79
-74 80 -99 0 -11 -17 -12 -82 -7 -97 8 -132 22 -136 52 -6 44 14 63 66 62 26
-1 58 -4 72 -8z m-782 -68 c59 -44 86 -126 61 -190 -22 -59 -100 -112 -164
-113 -43 0 -105 39 -126 80 -44 81 -8 208 66 241 35 15 133 5 163 -18z m2430
-73 c27 -17 31 -23 23 -39 -6 -10 -22 -26 -36 -35 -46 -30 -20 -38 116 -34 71
1 129 5 129 8 0 3 -9 19 -20 35 -21 31 -26 65 -11 65 5 0 22 3 39 6 29 6 31 4
75 -87 25 -52 47 -100 49 -107 2 -11 -44 -13 -245 -12 -136 0 -254 3 -262 7
-23 8 -18 31 27 125 46 97 57 104 116 68z m-1650 -27 c32 -42 102 -149 102
-158 0 -3 -47 -5 -104 -5 l-104 0 -27 31 c-41 49 -31 63 44 67 l63 3 -5 32
c-3 18 -8 40 -12 50 -12 30 12 19 43 -20z"/>
<path d="M4955 4743 c-36 -35 -37 -38 -33 -95 6 -77 17 -87 56 -49 30 28 32
33 32 105 0 42 -4 76 -8 76 -5 0 -26 -16 -47 -37z"/>
<path d="M5130 2992 l0 -90 110 -109 110 -108 0 -130 c0 -152 -1 -154 -113
-256 l-67 -61 39 -37 c22 -20 63 -63 90 -95 l51 -59 0 -209 c0 -209 0 -209 26
-243 30 -39 51 -50 70 -34 12 9 14 116 14 616 l0 605 -151 146 c-83 81 -158
148 -165 150 -11 3 -14 -15 -14 -86z"/>
<path d="M5130 2550 c0 -111 3 -200 8 -198 4 2 31 28 60 59 l52 56 0 90 0 90
-60 52 -60 52 0 -201z"/>
<path d="M4951 2681 l-51 -59 0 -87 0 -86 51 -55 c29 -30 56 -54 60 -54 5 0 9
90 9 200 0 110 -4 200 -9 200 -4 0 -31 -27 -60 -59z"/>
<path d="M3280 2040 c0 -5 5 -10 10 -10 6 0 10 5 10 10 0 6 -4 10 -10 10 -5 0
-10 -4 -10 -10z"/>
<path d="M1564 1808 c-44 -21 -58 -94 -24 -128 29 -29 94 -27 114 2 24 34 20
85 -9 113 -26 27 -47 30 -81 13z"/>
<path d="M4114 1762 c-15 -10 -34 -47 -34 -66 0 -9 11 -23 25 -32 72 -47 154
27 95 86 -20 20 -65 26 -86 12z"/>
<path d="M5936 1737 c-42 -30 15 -107 68 -93 65 16 50 106 -17 106 -18 0 -41
-6 -51 -13z"/>
<path d="M2590 1370 c-28 -28 -26 -75 5 -105 30 -30 54 -31 89 -4 18 15 26 30
26 53 0 64 -76 100 -120 56z"/>
<path d="M8016 1334 c-26 -25 -19 -63 18 -100 53 -53 102 -43 125 26 11 33 10
37 -19 63 -35 31 -98 37 -124 11z"/>
<path d="M7497 1232 c-25 -28 -22 -87 5 -106 50 -35 99 -6 101 60 1 25 -5 41
-18 50 -26 20 -69 17 -88 -4z"/>
<path d="M5027 1002 c-25 -28 -22 -84 6 -110 41 -39 94 -23 111 34 19 63 -74
123 -117 76z"/>
<path d="M1843 9115 c-3 -9 -3 -18 0 -22 10 -10 37 6 37 22 0 20 -29 20 -37 0z"/>
<path d="M7740 9140 c0 -5 7 -10 16 -10 8 0 12 5 9 10 -3 6 -10 10 -16 10 -5
0 -9 -4 -9 -10z"/>
<path d="M7230 9110 c0 -5 11 -10 25 -10 14 0 25 5 25 10 0 6 -11 10 -25 10
-14 0 -25 -4 -25 -10z"/>
<path d="M7140 8894 c0 -8 5 -12 10 -9 6 3 10 10 10 16 0 5 -4 9 -10 9 -5 0
-10 -7 -10 -16z"/>
<path d="M1733 8904 c-3 -8 -1 -20 6 -27 8 -8 11 -4 11 16 0 30 -7 35 -17 11z"/>
<path d="M7237 8905 c-7 -16 8 -29 23 -20 15 9 12 35 -4 35 -8 0 -16 -7 -19
-15z"/>
<path d="M7490 8922 c-21 -17 -21 -19 -5 -32 15 -12 19 -11 35 10 30 39 9 54
-30 22z"/>
<path d="M1830 8901 c-11 -22 2 -31 33 -23 23 6 22 19 -3 32 -15 8 -21 6 -30
-9z"/>
<path d="M7607 8914 c-4 -4 -7 -11 -7 -16 0 -13 50 -6 53 7 2 12 -36 19 -46 9z"/>
<path d="M2770 8685 c0 -10 10 -15 31 -15 27 0 30 2 19 15 -7 8 -21 15 -31 15
-11 0 -19 -7 -19 -15z"/>
<path d="M2900 8664 c0 -8 5 -12 10 -9 6 4 8 11 5 16 -9 14 -15 11 -15 -7z"/>
<path d="M8175 8690 c3 -5 10 -10 16 -10 5 0 9 5 9 10 0 6 -7 10 -16 10 -8 0
-12 -4 -9 -10z"/>
<path d="M1722 8489 c1 -13 8 -23 13 -21 15 3 12 35 -3 40 -9 3 -13 -3 -10
-19z"/>
<path d="M1825 8480 c-7 -12 18 -24 37 -18 8 3 5 9 -9 16 -14 8 -24 9 -28 2z"/>
<path d="M7141 8484 c0 -11 3 -14 6 -6 3 7 2 16 -1 19 -3 4 -6 -2 -5 -13z"/>
<path d="M7235 8470 c-4 -6 6 -10 24 -10 16 0 33 5 36 10 4 6 -6 10 -24 10
-16 0 -33 -4 -36 -10z"/>
<path d="M1442 8070 c0 -14 2 -19 5 -12 2 6 2 18 0 25 -3 6 -5 1 -5 -13z"/>
<path d="M1430 7864 c0 -8 5 -12 10 -9 6 3 10 10 10 16 0 5 -4 9 -10 9 -5 0
-10 -7 -10 -16z"/>
<path d="M1730 7871 c0 -11 5 -23 11 -27 16 -9 30 18 17 33 -15 19 -28 16 -28
-6z"/>
<path d="M1857 7883 c-4 -3 -7 -12 -7 -20 0 -15 26 -18 34 -4 7 11 -18 33 -27
24z"/>
<path d="M2270 7861 c0 -11 26 -22 34 -14 3 3 3 10 0 14 -7 12 -34 11 -34 0z"/>
<path d="M7226 7866 c3 -8 -2 -16 -13 -19 -17 -4 -17 -4 0 -12 9 -4 24 -5 32
-1 13 5 13 9 3 26 -15 23 -30 27 -22 6z"/>
<path d="M1850 7659 c-8 -15 -7 -21 4 -25 19 -7 36 3 36 21 0 22 -29 26 -40 4z"/>
<path d="M8367 7673 c-14 -13 -6 -33 13 -33 13 0 20 7 20 20 0 19 -20 27 -33
13z"/>
<path d="M1610 7656 c0 -8 5 -18 10 -21 6 -3 10 3 10 14 0 12 -4 21 -10 21 -5
0 -10 -6 -10 -14z"/>
<path d="M2906 7681 c-3 -5 1 -11 9 -15 8 -3 15 -1 15 4 0 13 -18 22 -24 11z"/>
<path d="M7835 7660 c-3 -5 1 -10 9 -10 8 0 18 5 21 10 3 6 -1 10 -9 10 -8 0
-18 -4 -21 -10z"/>
<path d="M8231 7662 c-13 -24 -5 -32 32 -32 28 0 29 1 15 22 -20 30 -35 33
-47 10z"/>
<path d="M1698 7324 c-10 -10 4 -44 18 -44 15 0 17 10 8 34 -6 16 -16 20 -26
10z"/>
<path d="M1827 7313 c-14 -13 -6 -33 12 -33 21 0 45 23 34 33 -8 9 -38 9 -46
0z"/>
<path d="M7236 7311 c-9 -14 18 -31 42 -24 26 6 29 18 6 27 -22 9 -42 7 -48
-3z"/>
<path d="M1740 7080 c0 -23 10 -26 28 -8 18 18 15 28 -8 28 -13 0 -20 -7 -20
-20z"/>
<path d="M1850 7090 c0 -5 5 -10 10 -10 6 0 10 5 10 10 0 6 -4 10 -10 10 -5 0
-10 -4 -10 -10z"/>
<path d="M2783 6884 c0 -28 22 -43 39 -26 7 7 6 17 -1 31 -16 29 -38 27 -38
-5z"/>
<path d="M7840 6881 c0 -11 26 -22 34 -14 3 3 3 10 0 14 -7 12 -34 11 -34 0z"/>
<path d="M8166 6894 c-10 -25 -7 -34 9 -34 8 0 15 9 15 19 0 26 -16 35 -24 15z"/>
<path d="M8255 6880 c-4 -6 7 -10 25 -10 18 0 29 4 25 10 -3 6 -15 10 -25 10
-10 0 -22 -4 -25 -10z"/>
<path d="M1720 6686 c0 -14 5 -26 10 -26 6 0 10 9 10 19 0 11 -4 23 -10 26 -6
4 -10 -5 -10 -19z"/>
<path d="M7140 6685 c0 -14 5 -25 10 -25 6 0 10 11 10 25 0 14 -4 25 -10 25
-5 0 -10 -11 -10 -25z"/>
<path d="M7255 6680 c-4 -7 -3 -16 3 -22 14 -14 45 -2 40 15 -6 16 -34 21 -43
7z"/>
<path d="M7386 6672 c-2 -4 -1 -14 3 -21 6 -10 10 -9 14 3 6 16 -8 32 -17 18z"/>
<path d="M1840 6660 c0 -21 16 -26 39 -11 11 7 10 11 -7 20 -28 15 -32 14 -32
-9z"/>
<path d="M7490 6670 c0 -5 9 -10 19 -10 11 0 23 5 26 10 4 6 -5 10 -19 10 -14
0 -26 -4 -26 -10z"/>
<path d="M2157 6483 c-14 -13 -7 -33 11 -33 26 0 34 11 21 27 -13 14 -22 16
-32 6z"/>
<path d="M2900 6449 c-12 -43 -6 -64 10 -39 10 15 14 80 5 80 -2 0 -9 -18 -15
-41z"/>
<path d="M7615 6470 c-3 -5 -1 -10 4 -10 6 0 11 5 11 10 0 6 -2 10 -4 10 -3 0
-8 -4 -11 -10z"/>
<path d="M6856 6072 c-4 -18 -5 -36 -2 -39 11 -12 17 5 14 39 l-3 33 -9 -33z"/>
<path d="M1726 6065 c-4 -11 1 -15 19 -15 29 0 41 15 19 24 -24 9 -31 7 -38
-9z"/>
<path d="M7115 6070 c-8 -12 20 -24 35 -15 5 3 10 10 10 16 0 12 -37 12 -45
-1z"/>
<path d="M2770 5880 c-11 -7 -7 -10 18 -10 20 0 31 4 27 10 -8 13 -26 13 -45
0z"/>
<path d="M2891 5863 c-13 -14 -12 -18 4 -29 22 -16 39 -5 33 22 -4 23 -20 27
-37 7z"/>
<path d="M8355 5841 c-3 -5 -1 -12 4 -15 12 -8 41 3 41 15 0 12 -37 12 -45 0z"/>
<path d="M7001 1174 c-27 -34 -27 -55 2 -81 47 -43 85 -37 107 17 11 28 11 34
-7 58 -29 39 -74 41 -102 6z"/>
<path d="M4406 1188 c-25 -36 -20 -73 15 -102 17 -14 41 -26 54 -26 28 0 65
43 65 74 -1 62 -101 102 -134 54z"/>
<path d="M8470 1870 c-26 -26 -26 -80 1 -114 28 -35 100 -38 123 -4 23 32 20
90 -4 116 -27 29 -92 30 -120 2z"/>
<path d="M2049 1291 c-16 -16 -29 -39 -29 -51 0 -30 53 -80 84 -80 64 0 92 98
40 139 -36 28 -60 26 -95 -8z"/>
<path d="M3025 1165 c-17 -39 -9 -67 25 -85 36 -19 59 -12 77 26 16 32 16 38
2 62 -11 21 -24 28 -52 30 -35 3 -39 1 -52 -33z"/>
</g>
</svg>
