<?xml version="1.0" standalone="no"?>
<!DOCTYPE svg PUBLIC "-//W3C//DTD SVG 20010904//EN"
 "http://www.w3.org/TR/2001/REC-SVG-20010904/DTD/svg10.dtd">
<svg version="1.0" xmlns="http://www.w3.org/2000/svg"
 width="5rem" height="5rem" viewBox="0 0 1024.000000 1024.000000"
 preserveAspectRatio="xMidYMid meet">

<g transform="translate(0.000000,1024.000000) scale(0.100000,-0.100000)"
fill="#000000" stroke="none">
<path d="M4789 8694 l-34 -35 25 -19 c30 -24 42 -24 81 -5 l30 16 -18 30 c-29
50 -45 53 -84 13z"/>
<path d="M5431 8680 c-22 -31 -22 -32 -4 -52 10 -11 31 -27 47 -35 28 -14 30
-14 52 14 13 15 23 33 24 39 0 16 -42 52 -70 59 -21 5 -30 0 -49 -25z"/>
<path d="M5087 8593 c-45 -62 -319 -499 -346 -552 -12 -22 -21 -45 -21 -51 0
-6 62 -10 180 -10 l180 0 0 -284 0 -284 53 -4 c28 -2 59 -7 67 -11 13 -6 15
30 18 290 l3 297 169 0 c94 -1 170 1 170 3 0 12 -423 653 -431 653 -4 0 -23
-21 -42 -47z m25 -339 c-6 -62 -13 -117 -17 -123 -3 -6 -32 -11 -63 -11 -31 0
-74 -4 -94 -9 -40 -9 -41 -5 -7 34 27 32 145 231 166 280 l18 45 3 -51 c2 -29
-1 -103 -6 -165z"/>
<path d="M5698 8307 c-23 -9 -26 -15 -21 -41 13 -66 21 -77 50 -70 48 10 53
13 48 26 -2 7 -9 32 -15 56 -11 44 -17 47 -62 29z"/>
<path d="M4512 8248 c-11 -60 -6 -68 44 -68 31 0 32 1 37 53 2 28 3 55 0 60
-2 4 -19 7 -37 7 -32 0 -34 -2 -44 -52z"/>
<path d="M3731 8057 c-52 -83 -148 -235 -214 -336 -65 -101 -121 -190 -124
-198 -4 -11 30 -13 190 -13 l195 0 1 -511 c0 -281 1 -512 3 -513 2 -1 31 0 66
2 l62 4 0 512 0 512 190 -4 191 -4 -67 93 c-36 52 -104 157 -150 234 -123 204
-228 368 -239 372 -6 1 -52 -66 -104 -150z m100 -216 l-6 -193 -112 -3 -113
-2 55 78 c68 97 162 259 171 294 3 14 7 25 8 23 2 -2 0 -90 -3 -197z"/>
<path d="M6410 8158 c-17 -24 -48 -70 -68 -103 -19 -33 -83 -134 -141 -225
-107 -167 -181 -295 -181 -312 0 -5 76 -8 178 -6 l179 3 6 -359 c4 -198 7
-427 7 -511 l0 -151 58 -13 c31 -7 63 -15 70 -18 9 -4 12 105 12 524 l0 528
180 -3 c99 -2 180 0 180 4 0 4 -46 78 -102 163 -56 86 -135 207 -176 270 -41
63 -91 143 -112 179 -20 36 -42 68 -48 70 -6 2 -25 -16 -42 -40z m8 -318 c-5
-91 -13 -169 -18 -173 -4 -5 -46 -13 -91 -18 -46 -5 -90 -12 -98 -14 -11 -4
-10 0 2 17 9 13 36 57 60 98 24 41 67 113 96 160 28 47 51 89 51 94 0 5 2 7 4
5 2 -2 -1 -78 -6 -169z"/>
<path d="M5730 7970 l0 -70 40 0 40 0 0 70 0 70 -40 0 -40 0 0 -70z"/>
<path d="M4498 7968 c-3 -35 -3 -66 -1 -70 2 -5 22 -8 45 -8 37 0 40 2 34 23
-3 12 -6 43 -6 70 0 47 0 47 -34 47 l-34 0 -4 -62z"/>
<path d="M3144 7480 c-51 -21 -73 -110 -36 -143 53 -48 123 -42 155 12 24 41
21 66 -10 101 -30 32 -75 45 -109 30z"/>
<path d="M7049 7441 c-43 -44 -35 -87 21 -116 49 -25 94 -20 124 16 35 41 33
71 -5 103 -44 37 -101 36 -140 -3z"/>
<path d="M3120 7195 c0 -57 2 -65 19 -65 10 0 33 -3 50 -6 l31 -6 0 71 0 71
-50 0 -50 0 0 -65z"/>
<path d="M7060 7228 c0 -13 3 -40 6 -60 7 -38 7 -38 56 -38 l49 0 -3 58 -3 57
-52 3 c-50 3 -53 2 -53 -20z"/>
<path d="M5475 7164 c-58 -50 -115 -86 -281 -181 l-41 -23 -129 66 c-71 37
-169 93 -218 125 -103 68 -131 73 -203 32 l-48 -26 2 -211 c3 -209 3 -211 25
-220 13 -5 48 -24 78 -42 131 -77 462 -254 475 -254 6 0 58 28 116 63 58 34
189 105 293 157 185 94 187 95 181 124 -3 16 -5 107 -5 202 l0 174 -30 0 c-36
0 -77 19 -104 49 -11 12 -25 21 -32 21 -7 0 -43 -25 -79 -56z m-723 -107 c51
-46 317 -193 367 -203 l31 -6 0 -145 0 -145 -27 7 c-16 3 -102 47 -193 97 -91
50 -182 100 -202 111 -20 11 -39 29 -42 41 -14 52 -3 286 13 286 3 0 27 -19
53 -43z"/>
<path d="M4760 6903 c0 -63 9 -80 53 -99 23 -11 84 -45 137 -76 52 -32 101
-58 108 -58 8 0 12 19 12 63 l-1 62 -77 38 c-42 21 -104 53 -137 72 -80 46
-95 45 -95 -2z"/>
<path d="M3120 7000 l0 -60 50 0 50 0 0 60 0 60 -50 0 -50 0 0 -60z"/>
<path d="M7060 7002 c0 -32 2 -61 4 -63 2 -2 27 -2 56 -1 l51 4 -3 56 -3 57
-52 3 -53 3 0 -59z"/>
<path d="M2785 7031 c-6 -6 -8 -35 -7 -65 l4 -56 54 0 54 0 0 59 c0 44 -4 60
-16 65 -24 9 -79 7 -89 -3z"/>
<path d="M7394 7026 c-3 -7 -4 -35 -2 -62 l3 -49 58 -3 57 -3 0 59 c0 67 -5
72 -71 72 -24 0 -42 -5 -45 -14z"/>
<path d="M3120 6799 l0 -59 34 0 c19 0 41 -3 50 -6 14 -5 16 4 16 59 l0 65
-50 0 -50 0 0 -59z"/>
<path d="M7062 6803 l3 -58 53 -3 53 -3 -3 58 -3 58 -53 3 -53 3 3 -58z"/>
<path d="M2780 6748 l0 -68 56 0 57 0 -7 46 c-3 26 -6 55 -6 64 0 14 -10 19
-50 22 l-50 3 0 -67z"/>
<path d="M7400 6756 l0 -66 55 0 55 0 -3 63 -3 62 -52 3 -52 3 0 -65z"/>
<path d="M6090 6709 c-52 -38 -171 -107 -265 -153 -93 -47 -219 -114 -280
-149 -176 -102 -378 -207 -399 -207 -21 0 -310 151 -536 280 -74 43 -162 91
-195 108 -61 30 -190 108 -261 156 -21 14 -41 26 -45 26 -3 0 -9 -118 -13
-262 -4 -145 -9 -270 -11 -278 -3 -11 26 -31 98 -68 56 -29 170 -91 252 -138
83 -47 206 -116 275 -154 189 -103 319 -175 376 -207 l51 -30 134 82 c74 45
206 122 294 170 88 48 216 120 285 158 69 38 174 96 233 127 l108 57 0 273 c0
150 -2 274 -3 275 -2 2 -46 -28 -98 -66z m-1425 -384 c260 -145 419 -226 460
-234 l30 -7 -4 -154 c-1 -85 -4 -157 -6 -159 -4 -4 -293 146 -364 189 -25 15
-143 81 -261 145 -118 65 -236 130 -262 144 l-48 26 0 146 0 147 118 -60 c64
-34 216 -116 337 -183z"/>
<path d="M4290 6376 l0 -55 108 -57 c59 -32 166 -91 237 -132 72 -41 173 -98
225 -127 52 -28 118 -66 145 -83 50 -31 50 -31 57 -9 3 12 6 40 7 62 l1 41
-87 43 c-48 24 -187 98 -308 166 -121 67 -257 141 -302 164 l-83 41 0 -54z"/>
<path d="M3120 6600 l0 -60 50 0 50 0 0 60 0 60 -50 0 -50 0 0 -60z"/>
<path d="M7060 6638 c0 -13 3 -40 6 -60 7 -38 7 -38 54 -38 l48 0 4 56 c1 31
1 58 -1 60 -2 2 -28 4 -58 4 -48 0 -53 -2 -53 -22z"/>
<path d="M7400 6536 l0 -64 51 -4 c28 -1 53 -1 55 1 2 2 4 33 4 68 l0 63 -55
0 -55 0 0 -64z"/>
<path d="M2780 6525 l0 -65 50 0 50 0 0 65 0 65 -50 0 -50 0 0 -65z"/>
<path d="M3120 6390 l0 -60 50 0 50 0 0 60 0 60 -50 0 -50 0 0 -60z"/>
<path d="M7070 6390 l0 -60 50 0 50 0 0 60 0 60 -50 0 -50 0 0 -60z"/>
<path d="M7407 6374 c-4 -4 -7 -35 -7 -68 l0 -61 53 0 52 1 3 62 c3 62 3 62
-25 62 -15 0 -37 3 -48 6 -11 3 -24 2 -28 -2z"/>
<path d="M2780 6305 l0 -65 50 0 50 0 0 65 0 65 -50 0 -50 0 0 -65z"/>
<path d="M6630 6233 c-58 -36 -179 -107 -270 -156 -91 -49 -210 -115 -265
-147 -55 -31 -167 -94 -250 -140 -82 -46 -193 -108 -245 -138 -227 -132 -376
-212 -416 -226 l-43 -14 -98 51 c-188 97 -806 439 -928 512 -38 23 -140 79
-225 125 -85 46 -175 94 -200 108 -25 13 -70 38 -100 54 l-55 30 -5 -274 c-3
-150 -5 -274 -5 -274 0 -1 65 -37 145 -79 80 -43 150 -81 155 -85 6 -4 53 -31
105 -60 169 -94 190 -105 605 -336 226 -125 444 -245 485 -267 41 -22 83 -46
93 -53 16 -10 25 -8 60 16 50 33 343 200 352 200 3 0 79 42 168 93 89 52 227
129 307 172 80 43 278 152 441 242 162 89 301 163 308 163 9 0 11 9 5 33 -4
17 -7 141 -7 275 1 133 -2 242 -6 242 -3 0 -53 -30 -111 -67z m-2811 -224 c85
-45 225 -121 311 -169 270 -151 512 -285 615 -340 55 -29 131 -71 169 -93 37
-22 107 -55 154 -73 l85 -32 -2 -153 c-1 -85 -5 -156 -7 -159 -8 -7 -32 6
-609 325 -137 76 -270 149 -295 162 -149 83 -427 238 -495 277 -44 25 -83 46
-87 46 -4 0 -8 65 -10 145 -2 83 1 145 6 145 5 0 79 -37 165 -81z"/>
<path d="M3730 5901 l0 -51 71 -37 c115 -62 274 -150 439 -243 85 -48 211
-118 280 -156 118 -64 297 -163 385 -214 57 -32 151 -80 159 -80 3 0 6 26 6
58 l0 58 -117 59 c-65 31 -147 75 -183 95 -36 21 -135 76 -220 123 -210 114
-322 177 -470 262 -129 75 -288 157 -327 169 -22 7 -23 5 -23 -43z"/>
<path d="M7064 6236 c-3 -7 -4 -38 -2 -67 l3 -54 53 -3 52 -3 0 70 0 71 -50 0
c-34 0 -52 -5 -56 -14z"/>
<path d="M3125 6185 c-3 -30 -4 -59 0 -65 7 -12 92 -14 99 -2 3 5 2 34 -1 65
l-6 57 -42 0 -43 0 -7 -55z"/>
<path d="M2780 6078 l0 -68 50 0 50 0 0 49 c0 27 3 56 6 64 4 12 -6 16 -50 19
l-56 3 0 -67z"/>
<path d="M7400 6086 l0 -66 55 0 56 0 -3 63 -3 62 -52 3 -53 3 0 -65z"/>
<path d="M2780 5864 l0 -64 55 0 55 0 -4 56 c-2 30 -6 57 -8 58 -1 2 -24 6
-50 8 l-48 6 0 -64z"/>
<path d="M7402 5870 l-3 -60 56 0 55 0 0 60 0 60 -52 0 -53 0 -3 -60z"/>
<path d="M3074 5498 c-1 -139 -3 -262 -7 -273 -5 -17 17 -32 181 -119 103 -55
241 -129 307 -166 66 -37 194 -108 285 -158 164 -89 512 -281 935 -517 121
-67 252 -139 292 -159 l71 -37 64 39 c34 22 95 57 133 79 39 22 133 76 210
120 77 44 257 143 400 220 143 77 355 193 470 258 116 65 269 149 340 188 72
38 164 89 205 112 121 69 218 115 240 115 16 0 19 5 16 23 -3 12 -8 134 -11
272 -3 137 -8 251 -10 254 -3 2 -22 -7 -42 -21 -21 -14 -112 -64 -203 -113
-228 -122 -554 -300 -620 -340 -60 -36 -214 -123 -435 -245 -77 -43 -171 -96
-210 -117 -219 -124 -444 -248 -490 -270 l-53 -26 -28 20 c-16 11 -58 35 -94
53 -36 18 -130 69 -210 115 -80 45 -226 126 -325 180 -179 98 -410 225 -725
400 -58 32 -152 83 -210 115 -58 31 -183 100 -278 153 -95 54 -178 97 -185 97
-11 0 -13 -53 -13 -252z m327 -39 c227 -124 399 -219 659 -364 96 -54 270
-149 385 -212 116 -64 284 -157 375 -208 203 -114 244 -135 295 -150 31 -9 40
-17 39 -34 0 -11 -1 -79 -2 -151 -2 -117 -4 -130 -20 -130 -9 0 -82 37 -162
81 -80 45 -217 121 -305 169 -234 127 -428 235 -617 341 -175 99 -268 149
-488 265 -74 39 -157 83 -185 99 -27 15 -78 43 -113 63 -41 22 -67 44 -73 60
-8 21 -2 282 6 282 1 0 94 -50 206 -111z"/>
<path d="M3270 5368 l1 -53 177 -92 c182 -95 630 -342 715 -394 26 -16 49 -29
52 -29 2 0 26 -13 53 -29 27 -16 102 -57 167 -91 65 -34 141 -76 169 -93 54
-32 214 -119 356 -195 47 -25 91 -49 98 -55 9 -7 12 4 12 51 l0 60 -67 35
c-38 19 -117 63 -178 98 -60 34 -227 126 -370 204 -143 77 -296 162 -340 187
-44 25 -165 91 -270 148 -104 56 -194 106 -200 110 -22 17 -354 190 -364 190
-7 0 -11 -21 -11 -52z"/>
<path d="M2778 5650 l4 -60 49 0 49 0 0 60 0 60 -52 0 -53 0 3 -60z"/>
<path d="M7400 5688 c0 -13 3 -40 6 -60 7 -38 7 -38 55 -38 l49 0 0 60 0 60
-55 0 c-50 0 -55 -2 -55 -22z"/>
<path d="M2780 5436 l0 -66 50 0 51 0 -3 63 -3 62 -47 3 -48 3 0 -65z"/>
<path d="M7400 5481 c0 -10 3 -39 6 -65 l7 -46 50 0 c46 0 49 1 43 23 -3 12
-6 41 -6 65 l0 42 -50 0 c-42 0 -50 -3 -50 -19z"/>
<path d="M2650 4949 c0 -140 -3 -263 -5 -274 -5 -16 6 -26 57 -54 35 -19 126
-71 203 -116 77 -45 223 -126 325 -180 102 -54 217 -116 255 -139 39 -22 180
-99 315 -171 241 -129 335 -181 575 -315 66 -37 156 -87 200 -110 44 -23 114
-62 155 -85 41 -23 149 -81 240 -128 l165 -86 65 41 c36 22 142 83 237 134 94
51 227 124 295 162 144 81 595 327 653 356 22 11 150 80 285 154 273 150 703
385 853 465 l98 52 -3 267 -3 267 -75 -41 c-41 -23 -178 -96 -305 -163 -126
-67 -264 -142 -305 -165 -41 -23 -172 -95 -290 -160 -118 -64 -309 -170 -425
-235 -115 -65 -282 -157 -370 -205 -88 -48 -196 -108 -239 -134 -43 -26 -131
-74 -195 -108 -64 -34 -145 -79 -181 -100 -65 -38 -103 -47 -115 -28 -4 6 -51
33 -105 60 -54 27 -136 71 -181 98 -46 27 -142 81 -214 119 -71 39 -168 92
-215 118 -47 27 -137 76 -200 110 -211 113 -674 367 -730 400 -121 70 -778
431 -804 441 -14 6 -16 -17 -16 -247z m289 -28 c86 -43 267 -141 403 -217 136
-77 288 -161 339 -189 331 -179 502 -273 744 -410 66 -37 181 -100 255 -140
74 -40 189 -101 255 -137 66 -36 141 -73 168 -83 l47 -18 0 -153 0 -153 -28
10 c-16 5 -94 46 -173 90 -79 43 -201 108 -271 144 -70 36 -156 82 -190 103
-35 21 -124 71 -198 112 -74 40 -160 87 -190 105 -30 18 -109 61 -175 95 -65
34 -153 81 -195 105 -249 141 -436 243 -590 325 -191 101 -335 182 -362 204
-15 11 -18 29 -18 103 0 92 9 183 18 183 2 0 75 -36 161 -79z"/>
<path d="M2847 4873 c-10 -9 -8 -86 2 -101 4 -8 82 -53 172 -101 90 -48 252
-136 359 -196 107 -59 238 -131 290 -160 91 -49 202 -111 515 -285 77 -43 165
-91 195 -108 132 -72 273 -150 370 -204 84 -47 192 -103 303 -156 4 -2 7 21 7
51 l0 54 -102 53 c-57 29 -157 83 -223 120 -66 37 -201 112 -300 166 -99 54
-236 129 -305 167 -69 38 -192 106 -275 151 -172 94 -282 156 -550 306 -104
59 -226 126 -270 150 -44 23 -103 56 -131 71 -28 16 -54 26 -57 22z"/>
<path d="M2230 4391 c0 -137 -2 -261 -6 -277 -5 -27 -1 -31 53 -60 32 -17 117
-64 188 -103 72 -40 173 -96 225 -123 52 -28 158 -85 235 -128 182 -101 690
-376 875 -475 146 -78 175 -94 350 -190 52 -28 169 -91 260 -140 91 -48 221
-118 290 -155 69 -37 163 -86 210 -108 47 -23 118 -60 158 -83 l73 -41 54 36
c53 35 216 125 515 286 85 45 207 111 270 145 63 34 153 81 200 105 47 23 90
46 95 50 6 4 120 67 255 140 135 73 283 154 330 180 47 26 146 81 220 120 339
182 424 228 560 303 273 151 303 167 354 186 l51 19 -1 266 c0 146 -4 269 -8
273 -4 4 -19 -1 -34 -10 -15 -10 -111 -60 -214 -112 -103 -52 -224 -115 -270
-141 -46 -25 -171 -94 -278 -151 -107 -58 -278 -151 -380 -206 -102 -55 -230
-125 -285 -155 -55 -30 -134 -73 -175 -97 -41 -24 -196 -108 -345 -188 -244
-130 -440 -237 -790 -432 l-120 -66 -100 52 c-94 49 -168 89 -570 309 -155 85
-455 246 -700 378 -66 35 -124 67 -130 72 -5 4 -55 31 -110 60 -55 29 -161 88
-235 130 -74 43 -160 90 -190 105 -30 15 -148 81 -262 146 -114 65 -260 145
-325 179 -65 33 -153 80 -197 105 -43 25 -82 45 -87 45 -5 0 -9 -112 -9 -249z
m280 -22 c85 -45 229 -123 320 -174 161 -90 285 -159 615 -340 274 -150 457
-251 530 -290 39 -21 207 -112 375 -203 168 -90 339 -184 380 -207 148 -83
387 -205 403 -205 15 0 17 -17 17 -155 0 -85 -3 -155 -6 -155 -6 0 -359 184
-564 295 -69 37 -210 114 -315 170 -104 56 -266 144 -360 195 -93 51 -226 123
-295 160 -69 37 -168 92 -220 122 -52 30 -133 74 -180 99 -47 24 -195 105
-330 179 -135 75 -311 171 -392 214 l-148 77 0 127 c0 106 6 172 14 172 1 0
71 -36 156 -81z"/>
<path d="M2420 4267 l0 -53 53 -31 c28 -17 111 -62 182 -101 72 -38 186 -100
255 -139 69 -38 186 -102 260 -143 74 -40 180 -99 235 -130 55 -32 154 -87
220 -123 66 -35 158 -86 205 -113 47 -26 112 -62 145 -79 33 -17 107 -57 165
-90 91 -50 237 -129 555 -301 44 -23 143 -76 220 -118 l140 -74 7 36 c13 69
12 70 -69 110 -43 21 -141 72 -218 114 -77 42 -248 134 -380 206 -595 321
-681 369 -1025 562 -80 45 -251 139 -380 209 -129 70 -284 156 -345 191 -183
105 -210 120 -217 120 -5 0 -8 -24 -8 -53z"/>
<path d="M7944 3809 c-16 -17 -65 -49 -109 -71 -44 -22 -233 -124 -420 -225
-511 -278 -789 -429 -1010 -548 -393 -211 -551 -298 -857 -467 -135 -75 -228
-148 -228 -178 0 -22 31 -34 60 -25 22 7 337 181 399 220 21 13 80 44 132 70
52 26 128 67 169 90 154 87 392 216 625 340 132 70 251 135 265 145 14 10 66
38 115 63 90 45 250 131 525 284 346 192 352 194 392 188 31 -6 41 -3 63 19
50 51 17 126 -56 126 -26 0 -43 -8 -65 -31z"/>
<path d="M2226 3808 c-38 -54 -10 -100 72 -119 22 -5 124 -55 228 -113 492
-272 895 -492 1107 -605 127 -68 291 -155 362 -194 162 -89 329 -177 605 -322
118 -62 240 -127 270 -144 30 -17 61 -31 67 -31 20 0 43 53 32 73 -11 19 -189
127 -311 188 -95 47 -345 180 -593 314 -93 51 -262 141 -375 200 -113 59 -248
131 -300 160 -52 29 -187 103 -300 165 -113 62 -245 135 -295 163 -153 86
-236 131 -340 187 -55 29 -113 63 -128 76 -36 31 -81 31 -101 2z"/>
<path d="M7705 3479 c-4 -6 -4 -26 -1 -45 l7 -34 167 0 c176 0 192 4 192 45 0
41 -16 45 -191 45 -108 0 -170 -4 -174 -11z"/>
<path d="M2234 3466 c-3 -8 -4 -25 -2 -38 3 -23 4 -23 161 -26 l157 -3 0 41 0
40 -155 0 c-126 0 -157 -3 -161 -14z"/>
<path d="M2550 3273 c-263 -3 -296 -5 -307 -20 -17 -23 -16 -58 2 -73 11 -9
84 -10 317 -3 l303 8 3 48 c2 34 0 46 -10 45 -7 -2 -146 -4 -308 -5z"/>
<path d="M7400 3226 l0 -44 73 -6 c39 -3 182 -7 316 -9 226 -3 246 -2 263 15
10 10 18 26 18 37 0 44 -16 46 -352 49 l-318 3 0 -45z"/>
<path d="M2320 3053 c-71 -5 -90 -15 -90 -47 0 -46 0 -46 460 -46 239 0 451 3
472 6 32 6 37 11 43 41 3 19 4 37 1 40 -6 7 -799 12 -886 6z"/>
<path d="M7044 3051 c-10 -11 -3 -91 9 -91 6 0 233 0 502 0 447 0 491 2 503
17 15 21 15 35 -1 57 -13 18 -42 19 -511 20 -274 0 -500 -1 -502 -3z"/>
<path d="M2385 2833 c-140 -4 -155 -8 -155 -43 0 -44 -22 -43 744 -46 l726 -3
6 24 c15 59 14 59 -176 66 -175 7 -883 7 -1145 2z"/>
<path d="M6540 2785 l0 -45 759 0 c683 0 759 2 765 16 10 25 7 42 -10 58 -14
14 -97 16 -765 16 l-749 0 0 -45z"/>
<path d="M2256 2607 c-12 -9 -17 -23 -14 -47 l3 -35 907 0 c652 0 910 3 918
11 8 8 8 23 3 45 l-9 34 -895 3 c-720 2 -899 -1 -913 -11z"/>
<path d="M6185 2602 c-3 -8 -5 -29 -5 -48 l0 -34 933 0 c712 0 936 3 945 12
17 17 15 42 -7 62 -17 15 -90 17 -940 19 -759 2 -922 0 -926 -11z"/>
<path d="M3190 2400 l-945 -5 -9 -27 c-22 -62 -94 -58 1125 -58 l1109 0 0 50
0 50 -167 -2 c-93 -2 -593 -5 -1113 -8z"/>
<path d="M5810 2362 l0 -52 1119 0 1119 0 10 30 c23 63 71 60 -886 60 -477 0
-978 3 -1114 7 l-248 6 0 -51z"/>
<path d="M5094 2386 c-108 -49 -152 -158 -105 -262 62 -135 248 -136 317 -1
22 42 21 128 -3 174 -40 76 -141 120 -209 89z m101 -121 c28 -27 30 -38 14
-83 -14 -42 -60 -60 -94 -38 -33 22 -48 53 -40 84 16 64 76 82 120 37z"/>
<path d="M2365 2181 l-120 -6 -9 -28 c-21 -59 -101 -56 1332 -50 l1313 6 -3
41 -3 41 -1195 1 c-657 0 -1249 -2 -1315 -5z"/>
<path d="M5429 2154 c-1 -19 -2 -38 -3 -44 -1 -6 447 -10 1308 -10 1151 -1
1311 1 1325 14 23 24 1 62 -42 70 -20 4 -610 6 -1311 5 l-1276 -2 -1 -33z"/>
<path d="M5175 1493 c-49 -7 -54 -23 -8 -23 46 0 73 8 73 21 0 9 -11 9 -65 2z"/>
</g>
</svg>
