<?xml version="1.0" standalone="no"?>
<!DOCTYPE svg PUBLIC "-//W3C//DTD SVG 20010904//EN"
 "http://www.w3.org/TR/2001/REC-SVG-20010904/DTD/svg10.dtd">
<svg version="1.0" xmlns="http://www.w3.org/2000/svg"
 width="5rem" height="5rem" viewBox="0 0 1024.000000 1024.000000"
 preserveAspectRatio="xMidYMid meet">

<g transform="translate(0.000000,1024.000000) scale(0.100000,-0.100000)"
fill="#000000" stroke="none">
<path d="M5100 9364 c-82 -13 -141 -29 -184 -51 -63 -32 -140 -104 -183 -171
-20 -31 -46 -57 -61 -63 -97 -35 -180 -108 -221 -192 -64 -130 -63 -282 2
-409 l34 -66 -108 -26 c-120 -29 -346 -99 -396 -123 -30 -14 -35 -13 -95 16
-80 40 -177 55 -298 48 -253 -16 -342 -97 -358 -328 l-7 -96 -125 -101 c-125
-99 -297 -261 -381 -358 l-45 -52 -58 35 c-32 19 -93 46 -135 61 -65 23 -93
26 -191 27 -132 0 -196 -13 -295 -61 -259 -123 -416 -429 -361 -706 31 -159
118 -300 246 -401 l78 -61 -32 -76 c-47 -110 -68 -193 -75 -300 l-6 -95 -163
-3 -162 -2 0 -35 c0 -32 -2 -34 -37 -37 l-38 -3 -2 -175 -2 -175 36 -30 36
-30 191 2 c105 1 194 2 199 2 4 1 7 14 7 30 0 17 3 32 8 34 12 8 62 -5 62 -16
0 -6 15 -26 32 -44 20 -21 29 -37 22 -41 -19 -13 -139 -106 -144 -112 -3 -3
-33 -28 -68 -54 l-62 -49 0 -218 0 -219 -70 0 c-64 0 -73 -3 -101 -29 l-30
-29 -6 -174 -6 -173 26 -27 c19 -20 36 -28 62 -28 33 0 35 -2 35 -34 0 -34 27
-66 56 -66 24 0 55 36 57 65 l2 30 124 0 124 0 2 -34 c3 -34 26 -61 52 -61 26
0 65 49 61 75 -4 20 0 24 21 27 38 4 51 40 51 142 0 73 3 91 18 102 13 10 18
31 20 102 5 131 19 125 -254 116 l-224 -7 0 209 0 209 139 112 138 111 90 -88
c63 -62 109 -97 152 -117 l61 -28 0 -965 0 -965 30 -52 c18 -31 48 -64 72 -80
l42 -28 880 -5 881 -5 0 -264 0 -265 -160 -121 -160 -122 -3 -81 -3 -82 1181
0 1180 0 0 98 -1 97 -48 35 c-27 19 -126 94 -220 165 l-171 130 0 208 0 207
934 0 c570 0 945 4 960 10 34 13 104 77 124 114 16 28 17 111 19 976 2 519 4
948 5 952 2 4 111 8 244 10 l241 3 12 -60 c64 -319 585 -375 736 -80 26 51 30
69 29 134 0 61 -5 86 -26 127 -34 65 -94 118 -177 158 -62 29 -73 31 -181 31
-104 0 -120 -3 -173 -27 -108 -51 -163 -109 -198 -208 l-16 -45 -246 0 -247 0
-1 240 -1 239 24 7 c14 3 66 28 116 53 162 84 272 219 272 334 l0 48 62 12
c126 23 224 95 281 206 27 54 31 71 32 146 0 78 -3 90 -34 148 -40 74 -100
130 -180 169 -52 26 -65 28 -176 28 -102 0 -129 -4 -178 -24 -73 -29 -158
-110 -192 -183 l-25 -53 0 65 c0 88 -13 128 -57 180 -74 87 49 80 -1405 80
l-1288 0 0 670 0 669 38 6 c105 18 266 89 360 160 34 25 88 76 121 112 l60 65
153 -26 c84 -14 206 -38 271 -54 l118 -27 5 -100 c9 -206 63 -294 230 -378 51
-26 190 -67 226 -67 10 0 18 -5 18 -10 0 -6 -40 -97 -88 -203 -49 -106 -115
-250 -147 -320 -52 -114 -61 -128 -79 -122 -71 22 -66 30 -66 -104 0 -92 3
-121 13 -121 10 0 138 101 191 150 5 5 -12 19 -38 31 -25 13 -46 28 -46 34 0
7 36 90 80 186 45 96 111 240 148 321 l67 147 130 1 c156 0 241 13 304 45 91
46 158 147 187 285 17 79 18 269 3 342 -31 145 -161 293 -326 370 -58 27 -79
32 -148 32 -95 1 -166 -27 -237 -92 -40 -36 -48 -40 -113 -44 -90 -6 -152 -34
-214 -96 -39 -39 -54 -64 -70 -117 -12 -37 -21 -80 -21 -96 0 -16 -6 -32 -13
-35 -7 -2 -51 4 -98 15 -46 11 -151 31 -234 46 -82 14 -160 28 -173 31 l-22 4
19 38 c57 113 68 266 26 377 -40 106 -109 192 -187 231 -20 11 -56 45 -81 77
-91 117 -198 176 -342 190 -27 3 -61 3 -75 1z m134 -39 c37 -8 89 -27 114 -42
61 -35 137 -107 163 -152 13 -24 38 -46 75 -65 84 -44 154 -138 184 -248 16
-59 9 -193 -14 -265 -23 -72 -109 -187 -191 -255 -143 -118 -349 -197 -474
-182 -184 21 -490 189 -577 317 -60 87 -76 148 -72 267 5 129 27 185 101 258
49 48 135 102 163 102 7 0 34 32 60 71 88 132 201 194 384 208 8 0 46 -6 84
-14z m1787 -531 c111 -33 269 -166 324 -274 36 -71 48 -155 42 -293 -8 -193
-59 -317 -156 -379 -66 -41 -100 -49 -251 -55 -320 -12 -556 74 -635 232 -29
57 -30 66 -33 211 -4 174 10 252 57 316 59 80 156 124 256 116 48 -4 53 -2 76
28 32 42 78 73 142 95 65 23 108 23 178 3z m-2480 -440 c65 -67 223 -163 361
-218 54 -22 180 -55 211 -56 4 0 7 -302 7 -670 l0 -670 -482 2 -483 3 -17 140
c-9 77 -17 164 -17 193 -1 58 17 30 -248 385 -56 75 -96 137 -89 137 7 0 36 7
65 16 78 23 136 80 160 158 41 135 35 303 -15 400 -13 27 -23 50 -21 52 17 17
434 146 528 163 3 1 21 -15 40 -35z m-714 -80 c68 -21 125 -71 150 -131 26
-62 36 -177 23 -277 -25 -194 -123 -253 -405 -243 -162 5 -224 25 -271 90 -48
65 -58 107 -58 247 1 221 60 301 242 330 78 12 256 3 319 -16z m-593 -426 c40
-146 74 -194 164 -229 45 -17 87 -23 204 -28 l147 -6 135 -185 c74 -102 150
-205 169 -230 33 -44 34 -49 51 -215 10 -93 20 -180 23 -192 l5 -23 -605 0
-606 0 5 38 c3 20 7 45 9 56 7 35 -14 172 -36 237 -31 92 -73 162 -142 235
l-59 64 26 35 c72 94 256 268 425 402 70 56 80 60 85 41z m-786 -381 c297 -86
491 -378 453 -677 -21 -165 -77 -274 -200 -393 -253 -245 -662 -215 -899 65
-53 63 -94 137 -128 233 -25 72 -25 260 0 335 74 219 221 370 421 433 109 35
241 36 353 4z m4081 -422 c3 -4 -27 -31 -96 -90 l-33 -27 0 85 0 86 63 -26
c34 -14 64 -27 66 -28z m1936 -424 c130 -64 202 -180 193 -311 -9 -122 -77
-218 -194 -276 -55 -27 -67 -29 -174 -29 -107 0 -119 2 -175 29 -211 104 -260
353 -100 512 86 86 169 116 303 110 68 -3 95 -10 147 -35z m-835 -1621 l0
-1480 -2505 0 -2505 0 0 1389 0 1389 33 20 c17 12 64 52 102 91 l70 71 2403 0
2402 0 0 -1480z m-5507 1224 c32 -8 99 -15 148 -15 l89 0 0 -564 c0 -451 -3
-565 -13 -565 -17 0 -115 65 -155 103 -19 18 -70 72 -114 120 -61 66 -78 91
-70 99 8 8 12 64 12 168 l0 156 -38 37 c-21 21 -55 42 -76 48 l-37 10 6 72
c12 131 51 271 96 344 20 33 20 33 56 18 20 -8 63 -22 96 -31z m5869 -129 c57
-63 130 -101 227 -119 l66 -12 -3 -45 c-8 -112 -123 -245 -275 -319 -46 -22
-90 -40 -98 -40 -12 0 -14 50 -11 337 l3 338 21 -43 c12 -24 43 -68 70 -97z
m-6076 -320 c4 -8 11 -15 16 -15 5 0 23 -10 40 -21 l30 -22 -5 -146 -5 -146
-51 2 -51 2 0 -39 0 -40 -182 0 -183 1 -32 29 -33 30 0 149 0 150 43 3 c41 3
42 4 45 41 l3 37 180 0 c150 0 181 -2 185 -15z m6938 -476 c116 -21 221 -91
261 -175 11 -22 21 -69 23 -107 4 -57 0 -75 -22 -121 -48 -98 -151 -167 -274
-184 -160 -22 -327 52 -390 172 -36 70 -38 170 -4 236 53 101 154 167 277 180
38 4 70 8 71 9 0 0 26 -4 58 -10z m-6630 -695 c3 -9 6 -49 6 -89 l0 -73 -43
-6 c-60 -9 -126 3 -137 25 -15 27 -13 146 3 152 6 3 46 6 88 6 61 1 78 -2 83
-15z m-221 -93 c4 -59 11 -98 19 -102 7 -5 30 -10 50 -14 21 -3 56 -8 78 -11
25 -4 40 -11 40 -20 0 -11 -22 -14 -111 -14 l-110 0 2 101 c2 78 -1 103 -12
110 -17 11 -316 12 -322 2 -3 -5 -8 -79 -12 -165 l-7 -158 68 -1 c48 -1 60 -3
39 -8 -16 -4 -41 -6 -55 -5 -14 1 -37 2 -52 3 l-28 1 0 172 c0 148 2 174 17
190 16 18 31 19 204 17 l186 -3 6 -95z m-68 -1 c0 -20 -41 -31 -55 -15 -10 12
-8 17 11 24 29 12 44 9 44 -9z m-185 -17 c0 -25 -1 -26 -16 -11 -9 9 -13 21
-10 27 13 20 26 11 26 -16z m90 7 c0 -5 -5 -10 -11 -10 -5 0 -7 -4 -4 -10 3
-6 -1 -7 -9 -4 -23 9 -20 34 4 34 11 0 20 -4 20 -10z m-135 -11 c10 -15 -1
-23 -20 -15 -9 3 -13 10 -10 16 8 13 22 13 30 -1z m225 -29 c0 -5 -12 -10 -27
-11 l-28 -1 28 -11 c32 -13 36 -27 7 -27 -25 0 -44 32 -28 48 15 15 48 16 48
2z m-90 -15 c0 -16 -35 -21 -44 -6 -8 12 4 21 26 21 10 0 18 -7 18 -15z m-100
-5 c0 -5 0 -13 0 -17 0 -9 -30 -12 -43 -5 -5 2 0 10 10 18 22 16 33 18 33 4z
m85 -30 c-3 -5 -1 -10 4 -10 6 0 11 -9 11 -20 0 -21 -7 -25 -27 -12 -14 9 -6
52 9 52 5 0 6 -4 3 -10z m105 -35 c0 -16 -45 -21 -54 -6 -8 12 4 21 31 21 14
0 23 -6 23 -15z m-52 -87 c-3 -22 -8 -23 -109 -26 -91 -2 -108 0 -113 14 -3 9
-4 20 0 25 3 5 55 9 115 9 109 0 110 0 107 -22z m310 10 c-3 -9 -37 -14 -114
-15 -116 -3 -154 1 -154 17 0 6 54 10 136 10 104 0 135 -3 132 -12z m-10 -70
c-6 -16 -41 -26 -98 -27 -32 0 -41 2 -30 9 18 12 25 11 -135 19 l-130 8 198 1
c153 2 198 -1 195 -10z m-434 -64 c20 -8 21 -28 2 -43 -20 -17 -46 -3 -46 25
0 24 14 30 44 18z m376 -16 c-1 -42 -52 -51 -58 -10 -3 19 1 22 27 22 18 0 31
-5 31 -12z"/>
<path d="M5085 9001 c-45 -12 -89 -37 -138 -79 -41 -36 -52 -40 -134 -51 -49
-6 -110 -11 -136 -11 -26 0 -47 -3 -47 -7 0 -5 61 -48 134 -97 100 -66 139
-99 155 -127 31 -54 97 -107 156 -124 154 -45 323 81 325 241 1 95 -69 202
-155 238 -46 19 -121 27 -160 17z m155 -52 c84 -51 120 -108 120 -194 0 -131
-91 -224 -218 -225 -60 0 -101 18 -150 64 -41 38 -58 68 -67 123 -15 90 46
203 129 239 49 21 145 18 186 -7z"/>
<path d="M4297 7323 c-3 -5 -6 -60 -8 -123 l-4 -115 116 -3 116 -3 33 -34 c43
-45 60 -45 60 -1 0 19 6 36 13 39 9 3 12 38 12 123 l0 119 -167 3 c-91 1 -169
-1 -171 -5z m235 -73 c-33 -27 -63 -50 -66 -50 -5 0 -94 68 -125 96 -2 2 53 4
123 4 l128 0 -60 -50z m-200 32 c5 -13 124 -112 134 -112 5 0 38 25 72 55 35
30 65 55 68 55 2 0 4 -39 4 -87 l0 -88 -150 -1 -150 -1 0 94 c0 51 4 93 9 93
5 0 11 -3 13 -8z m258 -222 c0 -11 -3 -20 -8 -20 -4 0 -13 9 -20 20 -11 18
-10 20 8 20 13 0 20 -7 20 -20z"/>
<path d="M3613 8105 c-33 -14 -43 -32 -43 -76 0 -21 -5 -29 -18 -29 -29 0 -42
-21 -42 -65 0 -63 19 -75 132 -80 111 -5 123 2 131 74 4 34 0 48 -14 62 -11
11 -23 19 -29 19 -5 0 -10 9 -10 20 0 61 -52 98 -107 75z m62 -29 c13 -9 19
-26 19 -49 0 -32 4 -37 28 -42 29 -7 36 -19 17 -31 -7 -4 -7 -10 -1 -16 5 -5
7 -20 4 -33 -4 -22 -9 -24 -84 -27 -99 -4 -120 7 -116 60 2 27 9 40 26 47 15
7 22 18 22 39 0 54 45 82 85 52z"/>
<path d="M3380 7147 c-84 -29 -104 -132 -36 -194 35 -32 38 -33 129 -33 66 0
99 -4 113 -15 37 -28 51 -19 58 38 9 79 7 176 -4 198 -10 17 -22 19 -118 18
-59 0 -123 -5 -142 -12z m216 -17 c24 0 24 -1 24 -105 0 -58 -3 -105 -6 -105
-3 0 -19 10 -36 21 -22 16 -32 19 -41 10 -6 -6 -38 -11 -72 -11 -102 0 -159
53 -135 126 19 57 70 76 184 68 32 -2 70 -4 82 -4z"/>
<path d="M2511 6732 c-61 -24 -126 -88 -140 -137 -6 -22 -11 -93 -11 -157 0
-137 -4 -133 103 -97 95 32 147 65 154 100 4 19 12 29 24 29 34 0 88 61 128
144 64 131 64 126 -16 126 -37 0 -97 2 -133 5 -48 4 -77 0 -109 -13z"/>
<path d="M8209 6490 c-19 -10 -41 -26 -48 -34 -18 -21 -7 -46 19 -46 17 0 20
4 15 20 -5 16 2 24 39 42 39 19 52 20 103 12 l58 -9 -3 -34 c-2 -20 2 -37 10
-42 21 -14 38 -10 38 9 1 40 29 -35 30 -79 0 -57 -30 -105 -85 -136 -65 -37
-175 -26 -213 20 -12 14 -10 20 14 41 l29 24 -29 -5 c-23 -5 -33 0 -51 23 -25
31 -24 31 -41 -23 -2 -7 19 -35 46 -62 79 -79 179 -91 273 -31 51 32 87 96 87
155 0 45 -36 122 -65 138 -69 39 -169 47 -226 17z"/>
<path d="M6853 6093 c37 -2 96 -2 130 0 34 2 4 3 -68 3 -71 0 -99 -1 -62 -3z"/>
<path d="M1687 5663 c-20 -14 -37 -30 -37 -35 0 -12 34 -10 48 4 18 18 24 -11
20 -97 -2 -63 0 -75 12 -73 12 3 15 23 15 112 0 65 -4 111 -10 113 -6 2 -27
-9 -48 -24z"/>
<path d="M8741 5174 c-12 -15 -21 -32 -21 -39 0 -7 -7 -18 -15 -25 -8 -7 -15
-16 -15 -19 0 -6 170 -3 178 4 4 3 -30 69 -46 88 -22 25 -57 21 -81 -9z m67
-16 c25 -25 13 -38 -34 -38 -41 0 -44 1 -30 16 9 8 16 20 16 25 0 13 34 11 48
-3z"/>
<path d="M8620 5051 c-48 -23 -55 -30 -58 -59 -3 -30 0 -34 35 -48 21 -9 47
-29 60 -48 57 -88 200 -86 251 4 11 19 31 35 57 43 34 12 40 18 43 45 3 32
-12 45 -83 72 l-26 10 6 -58 c6 -49 4 -62 -17 -92 -13 -19 -41 -44 -62 -54
-36 -17 -43 -18 -80 -5 -53 18 -86 67 -86 126 0 24 5 53 11 65 6 11 9 21 7 23
-2 1 -28 -9 -58 -24z m370 -61 c0 -10 -32 -30 -49 -30 -6 0 -11 16 -11 35 l0
36 30 -16 c17 -9 30 -20 30 -25z m-350 23 c-1 -24 -14 -53 -25 -53 -19 0 -38
28 -31 45 5 15 56 22 56 8z"/>
<path d="M2096 4574 c-24 -24 -20 -71 8 -89 29 -20 52 -11 72 28 13 25 14 34
3 53 -15 28 -59 32 -83 8z m62 -21 c-10 -2 -26 -2 -35 0 -10 3 -2 5 17 5 19 0
27 -2 18 -5z m-8 -28 c0 -9 -7 -18 -16 -22 -18 -7 -39 11 -30 26 11 17 46 13
46 -4z"/>
<path d="M3915 8988 c-35 -12 -65 -36 -65 -52 0 -8 2 -8 8 0 14 22 71 44 112
44 45 0 72 -11 107 -43 13 -11 26 -17 30 -14 8 8 -27 48 -36 42 -4 -2 -20 5
-37 16 -32 21 -72 23 -119 7z"/>
<path d="M3933 8885 c-37 -16 -53 -42 -53 -85 0 -42 15 -67 50 -85 44 -23 69
-18 106 19 55 55 41 131 -28 155 -38 13 -36 13 -75 -4z"/>
<path d="M3757 8874 c-4 -4 -7 -14 -7 -23 0 -11 3 -12 11 -4 6 6 10 16 7 23
-2 6 -7 8 -11 4z"/>
<path d="M4172 8860 c0 -14 2 -19 5 -12 2 6 2 18 0 25 -3 6 -5 1 -5 -13z"/>
<path d="M3733 8810 c0 -25 2 -35 4 -22 2 12 2 32 0 45 -2 12 -4 2 -4 -23z"/>
<path d="M4211 8824 c0 -11 3 -14 6 -6 3 7 2 16 -1 19 -3 4 -6 -2 -5 -13z"/>
<path d="M3810 8778 c-3 -26 -1 -43 3 -39 5 5 7 26 5 47 l-3 39 -5 -47z"/>
<path d="M8120 8060 l0 -40 -40 0 c-22 0 -40 -4 -40 -10 0 -5 18 -10 40 -10
l40 0 0 -46 c0 -27 4 -43 10 -39 6 3 10 24 10 46 0 39 0 39 40 39 22 0 40 5
40 10 0 6 -18 10 -40 10 l-40 0 0 40 c0 22 -4 40 -10 40 -5 0 -10 -18 -10 -40z"/>
<path d="M5736 8035 c-28 -26 -34 -66 -16 -107 9 -20 1 -41 -55 -143 -36 -66
-66 -124 -68 -130 -2 -5 -54 18 -115 52 -62 33 -115 57 -118 52 -6 -10 10 -63
67 -220 l39 -106 -52 -92 c-29 -53 -47 -96 -42 -101 8 -7 215 21 248 33 7 3
18 -9 25 -28 26 -73 116 -68 152 9 11 23 39 75 64 116 24 41 44 80 44 87 1 6
-27 27 -61 46 -35 19 -102 55 -149 82 l-85 48 70 128 c70 129 70 129 106 129
77 0 114 97 55 147 -34 30 -75 29 -109 -2z m96 -22 c34 -30 17 -78 -35 -96
-27 -10 -70 37 -61 66 3 12 11 28 16 35 15 17 58 15 80 -5z m-265 -390 c3 -6
-12 -42 -33 -80 -44 -79 -43 -78 -49 -71 -6 6 -85 230 -85 241 0 12 161 -75
167 -90z m169 -89 c66 -36 124 -71 130 -77 8 -9 1 -32 -30 -89 l-42 -76 -23
24 c-28 29 -76 32 -105 5 -15 -14 -56 -25 -136 -39 -63 -10 -116 -18 -118 -17
-2 2 116 219 164 302 11 18 24 33 30 33 7 0 65 -30 130 -66z m12 -226 c20 -26
23 -56 6 -72 -43 -44 -110 18 -69 64 21 23 48 26 63 8z"/>
<path d="M7663 7950 c-39 -16 -56 -77 -33 -120 24 -45 116 -46 139 -1 17 31
13 86 -7 104 -23 21 -70 29 -99 17z m81 -42 c21 -30 20 -51 -3 -72 -27 -25
-72 -17 -90 15 -13 24 -13 29 2 53 22 34 69 36 91 4z"/>
<path d="M6150 7810 c8 -5 22 -9 30 -9 10 0 8 3 -5 9 -27 12 -43 12 -25 0z"/>
<path d="M6253 7754 c-22 -22 -25 -32 -20 -68 5 -32 1 -50 -13 -74 -28 -45
-25 -50 8 -16 24 26 34 29 70 26 34 -3 45 1 66 22 34 33 34 79 1 111 -33 33
-78 33 -112 -1z m104 -33 c8 -18 9 -30 1 -45 -22 -41 -57 -47 -88 -16 -25 25
-25 45 1 71 27 27 70 22 86 -10z"/>
<path d="M7791 7565 c-155 -24 -166 -44 -166 -320 0 -273 10 -293 163 -316
108 -17 508 -18 642 -1 155 19 169 41 177 277 6 165 -7 281 -36 316 -31 39
-121 50 -416 54 -200 3 -295 0 -364 -10z m681 -35 c32 -7 64 -20 73 -30 26
-29 38 -143 32 -301 -6 -172 -18 -211 -69 -228 -133 -42 -724 -35 -810 10 -33
18 -43 77 -42 259 0 178 10 246 39 270 9 7 57 19 108 26 116 16 585 12 669 -6z"/>
<path d="M8032 7338 c-8 -8 -12 -46 -12 -104 0 -132 20 -146 125 -92 117 59
115 122 -7 184 -52 26 -88 30 -106 12z m96 -37 c20 -10 47 -30 60 -43 l22 -25
-19 -25 c-22 -28 -116 -72 -131 -63 -6 3 -10 44 -10 91 0 78 1 84 20 84 12 0
37 -9 58 -19z"/>
<path d="M6067 7335 c-20 -41 -20 -45 -8 -45 5 0 12 11 15 25 4 14 11 25 16
25 6 0 10 7 10 15 0 26 -16 16 -33 -20z"/>
<path d="M5820 7260 c20 -13 33 -13 25 0 -3 6 -14 10 -23 10 -15 0 -15 -2 -2
-10z"/>
<path d="M7280 7195 l0 -55 55 0 55 0 0 55 0 55 -55 0 -55 0 0 -55z"/>
<path d="M6003 7218 c-12 -16 -24 -48 -18 -48 2 0 11 14 20 30 16 31 15 40 -2
18z"/>
<path d="M8880 6214 c0 -9 5 -14 12 -12 18 6 21 28 4 28 -9 0 -16 -7 -16 -16z"/>
<path d="M1367 6162 c-23 -25 -22 -69 2 -82 32 -16 59 -12 76 14 36 55 -35
116 -78 68z"/>
<path d="M8886 6133 c-11 -11 -6 -23 9 -23 8 0 15 4 15 9 0 13 -16 22 -24 14z"/>
<path d="M8880 6025 c0 -8 7 -15 15 -15 8 0 15 7 15 15 0 8 -7 15 -15 15 -8 0
-15 -7 -15 -15z"/>
<path d="M8886 5943 c-11 -11 -6 -23 9 -23 8 0 15 4 15 9 0 13 -16 22 -24 14z"/>
<path d="M8885 5850 c-4 -6 -3 -16 3 -22 6 -6 12 -6 17 2 4 6 3 16 -3 22 -6 6
-12 6 -17 -2z"/>
<path d="M8836 5749 c-21 -16 -26 -29 -26 -64 0 -35 5 -48 26 -64 82 -65 183
51 109 124 -30 31 -73 32 -109 4z"/>
<path d="M1101 5301 c-15 -10 -8 -41 9 -41 15 0 25 29 14 40 -5 5 -15 5 -23 1z"/>
<path d="M1207 5304 c-4 -4 -7 -16 -7 -26 0 -20 25 -25 36 -7 8 13 -19 43 -29
33z"/>
<path d="M1201 5186 c-14 -17 -7 -36 14 -36 22 0 29 20 13 36 -13 13 -16 13
-27 0z"/>
<path d="M1086 5181 c-8 -12 21 -34 34 -26 17 11 11 35 -9 35 -11 0 -22 -4
-25 -9z"/>
<path d="M1093 5074 c-7 -18 11 -39 26 -30 17 11 13 46 -4 46 -9 0 -18 -7 -22
-16z"/>
<path d="M1193 5074 c-8 -22 18 -37 36 -20 7 8 10 19 7 25 -10 16 -36 13 -43
-5z"/>
<path d="M8312 4395 c-41 -13 -103 -53 -130 -85 -7 -8 -25 -39 -39 -68 -46
-96 -22 -223 55 -298 109 -106 293 -112 406 -13 96 85 127 209 77 312 -29 59
-108 131 -168 151 -56 19 -142 20 -201 1z m176 -213 c39 -24 72 -46 72 -47 0
-6 -227 -125 -239 -125 -12 0 -17 251 -5 263 7 7 50 -16 172 -91z"/>
<path d="M6881 2410 c-53 -48 -54 -50 -37 -69 10 -11 35 -32 57 -46 21 -15 36
-31 33 -36 -3 -5 -29 -25 -59 -45 -30 -20 -55 -40 -55 -44 0 -4 37 -40 82 -79
l81 -71 504 0 503 0 0 63 c0 34 2 100 3 145 l4 84 -35 26 c-19 15 -62 48 -95
75 l-60 47 -436 0 -436 -1 -54 -49z m957 -10 c20 -17 59 -46 87 -65 l50 -35
-423 0 -423 0 -75 56 c-40 31 -76 60 -80 65 -3 5 161 9 411 9 l416 0 37 -30z
m-767 -87 c32 -19 36 -31 14 -39 -9 -4 -15 -19 -15 -36 l0 -30 -32 20 c-28 18
-73 52 -152 114 l-21 17 35 29 35 29 53 -43 c30 -24 67 -52 83 -61z m889 -93
l0 -50 -422 0 c-233 0 -429 4 -437 9 -12 8 -9 59 6 84 2 4 195 7 429 7 l424 0
0 -50z m-894 -51 l25 -16 -38 -29 c-20 -15 -46 -37 -56 -47 -18 -18 -20 -17
-71 30 -28 26 -53 53 -53 58 -1 6 19 26 45 46 l47 36 38 -31 c21 -17 50 -38
63 -47z m902 -76 l-3 -48 -472 0 c-308 0 -474 4 -475 10 -1 6 20 27 48 47 l49
38 428 0 428 0 -3 -47z"/>
<path d="M6699 1745 c-108 -40 -134 -74 -123 -161 12 -100 65 -134 205 -134
52 0 86 6 114 20 78 37 95 63 97 150 1 51 -2 64 -22 85 -46 49 -190 70 -271
40z m110 -24 c20 -13 4 -31 -28 -31 -34 0 -44 9 -30 27 13 15 38 17 58 4z"/>
<path d="M6765 1710 c-3 -5 3 -10 15 -10 12 0 18 5 15 10 -3 6 -10 10 -15 10
-5 0 -12 -4 -15 -10z"/>
<path d="M3852 1738 c-9 -9 -12 -70 -12 -215 0 -190 1 -203 19 -213 30 -16
2103 -14 2119 2 17 17 17 409 0 426 -17 17 -2109 17 -2126 0z m198 -80 l0 -43
-57 1 c-48 0 -58 4 -57 17 3 56 3 56 52 60 26 2 50 4 55 5 4 1 7 -17 7 -40z
m290 -4 c0 -45 -1 -45 -30 -42 -16 1 -30 -1 -30 -5 -1 -36 0 -37 55 -37 l55 0
-3 62 -2 62 45 -3 c25 -1 46 -4 47 -4 0 -1 3 -18 5 -37 3 -35 3 -35 -34 -32
-35 3 -38 1 -38 -22 0 -25 3 -26 55 -26 l54 0 3 62 3 63 45 -4 c25 -1 46 -4
47 -4 0 -1 3 -18 5 -37 3 -35 3 -35 -34 -32 -35 3 -38 1 -38 -21 0 -23 3 -25
55 -26 l55 0 0 59 0 60 49 0 c50 0 61 -9 61 -50 0 -21 -19 -30 -61 -30 -22 0
-29 -5 -29 -19 0 -15 7 -18 53 -16 28 1 55 3 60 4 4 0 7 26 7 56 l0 55 45 0
c25 0 48 1 53 3 4 1 8 -13 10 -32 4 -41 -11 -53 -56 -45 -31 6 -33 5 -30 -17
3 -21 9 -24 52 -27 27 -2 53 1 57 5 5 5 10 32 11 61 l3 53 50 -3 c50 -3 50 -3
50 -38 0 -34 -1 -35 -42 -38 -35 -3 -43 -7 -43 -23 0 -18 6 -20 58 -17 56 3
57 4 57 33 1 28 3 30 38 27 35 -3 37 -2 37 27 l0 31 158 -2 157 -2 -142 -3
-143 -4 0 -34 c0 -34 -1 -35 -40 -35 -33 0 -40 -3 -40 -20 0 -17 6 -20 43 -19
56 1 73 9 73 37 0 23 3 23 102 27 57 2 113 0 125 -5 15 -6 -14 -9 -90 -9
l-113 -1 0 -25 0 -25 111 0 c78 0 108 -3 103 -11 -4 -8 -53 -10 -155 -6 l-149
5 0 -35 c0 -21 -5 -33 -12 -32 -43 5 -58 -2 -58 -26 0 -24 3 -25 56 -25 l56 0
-4 35 -4 35 138 0 c85 0 138 -4 138 -10 0 -6 -40 -11 -97 -12 -54 -1 -109 -2
-123 -3 -21 0 -26 -6 -28 -33 l-3 -32 -79 1 -78 1 -4 44 -3 44 37 0 c34 0 38
3 38 25 0 23 -3 25 -50 25 l-50 0 0 -35 c0 -34 -1 -35 -40 -35 -36 0 -40 -2
-40 -25 0 -23 3 -25 51 -25 28 0 48 -4 44 -9 -3 -6 -143 -10 -335 -11 l-330
-1 0 30 c0 16 -3 36 -6 45 -5 13 2 16 35 16 37 0 41 2 41 25 0 27 -8 29 -73
18 -36 -6 -39 -8 -33 -34 5 -27 4 -29 -28 -29 -32 0 -34 -2 -40 -42 -8 -49
-21 -40 -29 20 l-5 43 36 -3 c33 -3 37 0 40 23 3 24 1 25 -53 25 l-56 -1 3
-32 c1 -18 -1 -33 -5 -33 -4 0 -11 0 -17 0 -5 0 -10 15 -10 33 l0 32 -120 -4
c-83 -2 -120 0 -120 8 0 12 101 17 231 12 42 -2 79 1 82 7 4 5 3 32 -2 60 l-8
51 51 4 c28 2 52 4 54 5 1 1 2 -19 2 -44z m1301 25 c3 -5 5 -35 4 -67 l-2 -57
-51 -3 -52 -3 0 69 c0 38 2 71 5 74 8 8 89 -3 96 -13z m134 -24 c0 -39 -1 -40
-38 -43 -30 -3 -37 -7 -35 -20 2 -12 14 -17 38 -18 18 0 35 -5 38 -12 2 -8
-12 -12 -46 -12 l-50 0 -1 67 c0 75 6 85 59 81 34 -3 35 -4 35 -43z m138 0 l0
-40 -46 -3 -47 -3 0 46 0 46 47 -3 46 -3 0 -40z m-1715 -2 l-3 -38 -52 -3 -53
-3 0 40 0 41 56 0 55 0 -3 -37z m939 31 c-10 -11 -57 -13 -57 -3 0 5 14 9 32
9 17 0 28 -3 25 -6z m-30 -30 c-3 -3 -12 -4 -19 -1 -8 3 -5 6 6 6 11 1 17 -2
13 -5z m766 -80 l42 1 0 -75 0 -75 -50 0 -50 0 1 55 c2 83 6 127 11 109 3 -11
15 -15 46 -15z m-97 -97 l-3 -52 -46 -3 -47 -3 0 55 c0 31 5 56 10 56 6 0 10
-4 10 -10 0 -5 15 -9 33 -9 22 1 26 3 12 7 l-20 5 20 7 c30 11 34 5 31 -53z
m-136 -3 l0 -55 -47 3 -48 3 -3 43 -3 42 45 0 c25 0 46 5 46 10 0 6 2 10 5 10
3 0 5 -25 5 -56z m-1502 4 c-3 -32 -1 -33 35 -36 55 -5 45 -22 -13 -22 l-50 0
0 36 0 35 -62 -1 c-98 -2 -118 -1 -118 10 0 6 42 10 106 10 l106 0 -4 -32z
m-68 -48 c0 -6 -30 -10 -70 -10 -40 0 -70 4 -70 10 0 6 30 10 70 10 40 0 70
-4 70 -10z m1250 0 c0 -5 -20 -10 -45 -10 -25 0 -45 5 -45 10 0 6 20 10 45 10
25 0 45 -4 45 -10z m130 0 c0 -5 -22 -10 -50 -10 -27 0 -50 5 -50 10 0 6 23
10 50 10 28 0 50 -4 50 -10z"/>
<path d="M3960 1654 c0 -23 3 -25 33 -22 24 2 33 8 35 26 3 19 -1 22 -32 22
-32 0 -36 -3 -36 -26z"/>
<path d="M4260 1656 c0 -31 8 -36 38 -25 13 5 22 17 22 29 0 16 -7 20 -30 20
-25 0 -30 -4 -30 -24z"/>
<path d="M4410 1656 c0 -19 4 -22 25 -18 16 3 25 11 25 23 0 14 -7 19 -25 19
-20 0 -25 -5 -25 -24z"/>
<path d="M4546 1664 c-9 -23 2 -34 27 -30 13 2 23 11 25 24 3 18 -2 22 -21 22
-14 0 -28 -7 -31 -16z"/>
<path d="M4687 1673 c-4 -3 -7 -15 -7 -25 0 -13 8 -18 30 -18 25 0 30 4 30 25
0 20 -5 25 -23 25 -13 0 -27 -3 -30 -7z"/>
<path d="M4820 1661 c0 -19 18 -31 46 -31 8 0 14 10 14 25 0 21 -5 25 -30 25
-23 0 -30 -5 -30 -19z"/>
<path d="M4972 1668 c-21 -21 -13 -38 18 -38 25 0 30 4 30 25 0 27 -26 35 -48
13z"/>
<path d="M4470 1526 c0 -35 -1 -36 -40 -36 -36 0 -40 -2 -40 -25 0 -24 3 -25
59 -25 l60 0 -6 35 -6 35 42 0 c38 0 42 2 39 23 -3 19 -10 22 -55 25 l-53 3 0
-35z"/>
<path d="M4605 1549 c-4 -5 -4 -21 -1 -35 6 -22 4 -24 -34 -24 -36 0 -40 -2
-40 -25 0 -24 3 -25 56 -25 l56 0 -4 33 c-3 31 -1 32 32 32 34 0 48 12 49 43
1 15 -105 17 -114 1z"/>
<path d="M4740 1525 c0 -34 -1 -35 -40 -35 -36 0 -40 -2 -40 -25 0 -24 3 -25
60 -25 l60 0 0 36 c0 35 1 36 35 32 33 -4 35 -2 35 24 0 27 -1 28 -55 28 l-55
0 0 -35z"/>
<path d="M4880 1525 c0 -34 -1 -35 -40 -35 -36 0 -40 -2 -40 -25 0 -24 3 -25
60 -25 l60 0 0 35 c0 33 2 35 35 35 31 0 35 3 35 25 0 24 -3 25 -55 25 l-55 0
0 -35z"/>
<path d="M5560 1655 c0 -21 5 -25 30 -25 25 0 30 4 30 25 0 21 -5 25 -30 25
-25 0 -30 -4 -30 -25z"/>
<path d="M5560 1589 c0 -17 5 -20 32 -17 22 2 34 9 36 21 3 14 -4 17 -32 17
-30 0 -36 -4 -36 -21z"/>
<path d="M5708 1655 c3 -16 11 -25 23 -25 14 0 19 7 19 25 0 20 -5 25 -24 25
-19 0 -22 -4 -18 -25z"/>
<path d="M5840 1655 c0 -23 4 -26 28 -23 19 2 27 9 27 23 0 14 -8 21 -27 23
-24 3 -28 0 -28 -23z"/>
<path d="M4120 1657 c0 -30 6 -36 31 -30 12 3 19 14 19 29 0 19 -5 24 -25 24
-20 0 -25 -5 -25 -23z"/>
<path d="M5833 1495 c-2 -54 -1 -55 27 -55 27 0 28 2 32 55 l3 55 -30 0 c-29
0 -30 -1 -32 -55z"/>
<path d="M5700 1466 c0 -22 4 -26 31 -26 26 0 30 3 27 23 -2 16 -11 23 -30 25
-24 3 -28 0 -28 -22z m37 -2 c-3 -3 -12 -4 -19 -1 -8 3 -5 6 6 6 11 1 17 -2
13 -5z"/>
<path d="M5560 1466 c0 -22 4 -26 31 -26 26 0 30 3 27 23 -2 16 -11 23 -30 25
-24 3 -28 0 -28 -22z"/>
</g>
</svg>
